<svg xmlns="http://www.w3.org/2000/svg" xmlns:xlink="http://www.w3.org/1999/xlink" viewBox="0 0 167.19 153.41">
  <defs>
    <style>
      .cls-1 {
        fill: url(#linear-gradient);
      }

      .cls-10, .cls-12, .cls-15, .cls-16, .cls-17, .cls-2, .cls-3, .cls-4, .cls-5, .cls-6, .cls-7, .cls-8, .cls-9 {
        fill-rule: evenodd;
      }

      .cls-2 {
        fill: url(#radial-gradient);
      }

      .cls-3 {
        fill: url(#radial-gradient-2);
      }

      .cls-4 {
        fill: url(#linear-gradient-2);
      }

      .cls-5 {
        fill: url(#linear-gradient-3);
      }

      .cls-6 {
        fill: #4e8f2b;
      }

      .cls-7 {
        fill: url(#radial-gradient-3);
      }

      .cls-8 {
        fill: #d2892a;
      }

      .cls-9 {
        fill: #794c1e;
      }

      .cls-10 {
        fill: url(#linear-gradient-4);
      }

      .cls-11 {
        fill: #64953f;
      }

      .cls-12 {
        fill: #1a171b;
      }

      .cls-13, .cls-16 {
        fill: #fff;
      }

      .cls-14, .cls-17 {
        fill: #a7d5e7;
      }

      .cls-15 {
        fill: #e31f5c;
      }
    </style>
    <linearGradient id="linear-gradient" x1="92.56" y1="104.64" x2="92.56" y2="162.41" gradientTransform="translate(-3 -9)" gradientUnits="userSpaceOnUse">
      <stop offset="0" stop-color="#fff"/>
      <stop offset="0.79" stop-color="#e3e2e4"/>
      <stop offset="1" stop-color="#b0b8bb"/>
    </linearGradient>
    <radialGradient id="radial-gradient" cx="58.55" cy="83.78" r="56.01" gradientTransform="translate(-3 -9)" gradientUnits="userSpaceOnUse">
      <stop offset="0" stop-color="#e5de00"/>
      <stop offset="0.65" stop-color="#c9d200"/>
      <stop offset="0.77" stop-color="#c4d005"/>
      <stop offset="0.91" stop-color="#b6cb14"/>
      <stop offset="1" stop-color="#a9c621"/>
    </radialGradient>
    <radialGradient id="radial-gradient-2" cx="61.45" cy="99.28" r="69.38" gradientTransform="translate(-3 -9)" gradientUnits="userSpaceOnUse">
      <stop offset="0" stop-color="#c9d200"/>
      <stop offset="0.24" stop-color="#c4d001"/>
      <stop offset="0.54" stop-color="#b5ca05"/>
      <stop offset="0.86" stop-color="#9cc00c"/>
      <stop offset="0.92" stop-color="#97be0d"/>
      <stop offset="1" stop-color="#7eb61e"/>
    </radialGradient>
    <linearGradient id="linear-gradient-2" x1="71.37" y1="48.31" x2="74.2" y2="64.36" gradientTransform="translate(-3 -9)" gradientUnits="userSpaceOnUse">
      <stop offset="0" stop-color="#95ba0c"/>
      <stop offset="0.18" stop-color="#90b80e"/>
      <stop offset="0.41" stop-color="#81b013"/>
      <stop offset="0.65" stop-color="#68a51b"/>
      <stop offset="0.88" stop-color="#4b9725"/>
      <stop offset="1" stop-color="#2e6920"/>
    </linearGradient>
    <linearGradient id="linear-gradient-3" x1="20.95" y1="54.03" x2="52.44" y2="121.13" gradientTransform="translate(-3 -9)" gradientUnits="userSpaceOnUse">
      <stop offset="0" stop-color="#fffeff"/>
      <stop offset="0.56" stop-color="#e5de00"/>
      <stop offset="1" stop-color="#c9d200"/>
    </linearGradient>
    <radialGradient id="radial-gradient-3" cx="55.97" cy="24.06" r="47.52" gradientTransform="translate(-3 -9)" gradientUnits="userSpaceOnUse">
      <stop offset="0" stop-color="#bf7c10"/>
      <stop offset="0.15" stop-color="#a16318"/>
      <stop offset="1" stop-color="#744813"/>
    </radialGradient>
    <linearGradient id="linear-gradient-4" x1="72.58" y1="32.83" x2="141.15" y2="32.83" gradientTransform="translate(-3 -9)" gradientUnits="userSpaceOnUse">
      <stop offset="0" stop-color="#96bf26"/>
      <stop offset="0.36" stop-color="#96bf21"/>
      <stop offset="0.81" stop-color="#97be12"/>
      <stop offset="0.92" stop-color="#97be0d"/>
      <stop offset="1" stop-color="#7eb61e"/>
    </linearGradient>
  </defs>
  <g id="Шар_2" data-name="Шар 2">
    <g id="Vrstva_2" data-name="Vrstva 2">
      <g>
        <g>
          <path class="cls-1" d="M161.7,97.32c-6.59-2.09-17-1.71-25.11-.84-.43-.11-.85-.21-1.24-.27-3.48-.59-11.4-1-16.27.39a14.42,14.42,0,0,0-7,4.48c-1.39.25-3,.53-5.21.77a13.64,13.64,0,0,1-5.91-.33l-.18.12a14.09,14.09,0,0,0-.33-1.89c-.17-.59,1-2-.45-2.16S88,99.36,84.55,101s2.12,1.71,4.53,3.81c1.26,1.1,1.4,3,1,4.85a143.21,143.21,0,0,0-38.55.79,87,87,0,0,0-31.71,12s-6.94,3.74-7.86,13.46,16.44,13.91,21.81,14.57a115.76,115.76,0,0,0,16.82.72c6-.13,19.24,2.83,32.18,2.17s30-4.73,41-8.47,29.39-11.55,29.62-22.45-22.42-13.26-32.16-13.59c-6.59-.22-15.29.55-22.17.89a8.58,8.58,0,0,0,.91-1.48,10.45,10.45,0,0,0,.75-2.55l0,.06s6.44-2,9.86-3.09a72.32,72.32,0,0,1,22.95-2.82c11.7.26,21.46,2.89,22.11,7.35s1.49,5.38,3.62,5.91a6.55,6.55,0,0,0,2.77.33s-1.72-.92.8-3.68S171.81,100.54,161.7,97.32Z"/>
          <path class="cls-2" d="M135.57,71.06C129.29,42.12,105.24,35.84,95.3,35s-23.18,4-29.81,2.44-22.14-6.1-38.87,1.92S2,71.06,2,71.06s-4.71,9.93.18,35.73,24.75,37,30.5,38.7A48.11,48.11,0,0,0,50,147.41c5.93-.35,20.92,7.49,33.47,5.75s27.19-12.55,35.91-22.49S141.84,100,135.57,71.06Z"/>
          <path class="cls-3" d="M120.43,45.25C103,30.78,81.15,35.32,72.79,36.72S59.89,35,53.44,34.63s-19.18,2.61-19.18,2.61,11.16-1.05,10.63,1.92-11.15,5.05-6.27,4.36,8.19-.7,11.33,1.74S59,53.63,65.64,54a23.09,23.09,0,0,0,11.85-2.79c15-2.27,15.34,14.29,15.17,22.83C92.3,91.55,94,92.42,94,92.42s2.11-17.18,4.73-23.63,11-8.54,7.49,23.36-22.13,42.36-26,43.75-22,.18-29.11,2.27S44,146,49.08,145.84s10.11,4.36,16.73,5.93,24.76.87,33.82-4,30.33-22.32,35-44.8S137.87,59.72,120.43,45.25Z"/>
          <path class="cls-4" d="M85.86,48.05c-3.14,0-9.24,1.92-8-.53s4.53-7.84,2.27-6.1S74,48.74,73,46.48s-2.61-5.75-2.61-5.75-1,5.92-2.79,5.92-3.66-5.58-3.66-5.58-.7,4.36-2.1,4.19-2.44-4.36-2.44-4.36,1,5.06-.87,5.75S52.56,46,52.56,46A24.91,24.91,0,0,0,62.85,54.5c6.62,2.79,12.9-.35,17.43-2.27S89,48.05,85.86,48.05Z"/>
          <path class="cls-5" d="M70.56,69.7c-3.39,1.7-12.59.48-15.25-4.84S47.8,53,41,54.2s-5.71-7.72-5.71-7.72c-2.15-11.83-21.82,5.94-27.7,22.74C.35,90,7.59,115.86,14,124.92s8.89,8.19,7.32,1.92c0,0-8.42-14,1.5-32.69,3.92-7.36,10.9,28.57,13.32,39.71s4.12-6.29,7-17.19S54.82,94.88,61.6,88.34,74,68,70.56,69.7Z"/>
          <path class="cls-6" d="M101.2,1.5c-3.84-1.56-12-2.79-16,1S80.8,15.1,80.8,15.1c7.67-5.75,31.73-4.88,31.73-4.88S105,3.07,101.2,1.5Z"/>
          <path class="cls-7" d="M73,33.4c-.52-9.58-4-20.91-4.53-22.48s-.18-5.23-1.75-5.75-11,4.7-13.42,9.06,3.14,4.53,6.8,10.11,5.06,19.18,4.36,23.36a42.23,42.23,0,0,0-.34,7.17l1.12.33a13.57,13.57,0,0,0,4.09.34S73.48,43,73,33.4Z"/>
          <path class="cls-8" d="M60.93,8.13a24.09,24.09,0,0,0-7.49,8.19c2.44,3,9.76-2.44,12.37-6.45S65.81,5,60.93,8.13Z"/>
          <path class="cls-9" d="M72.61,30.62c-.17-9.94-4.7-22-4.7-22l-2.79,3.84s2.44,1.91,4.18,13.77-.7,27.19-.7,27.19S72.79,40.55,72.61,30.62Z"/>
          <path class="cls-10" d="M136.76,37.41c.87-7.32,3.49-24.4-8.54-32.94S98.59,2.9,93.53,6.21s-7.84,6.1-9.76,6.8-3.84,2.27-7.67,3.49a6.68,6.68,0,0,1-6.1-.88s-1,2.1.17,5.76a45.84,45.84,0,0,0,2.09,5.4s5.23-5.4,8-8.19,9.41-8.19,21.27-7.5S124.73,18.76,128,30.62s4.71,14.29,7.15,15.68,3,.88,3,.88S135.89,44.74,136.76,37.41Z"/>
          <path class="cls-11" d="M108.52,5.81a23.27,23.27,0,0,0-7.09,4.64c5-4.06,14.06-6.62,14.06-6.62A37.12,37.12,0,0,0,108.52,5.81Zm21.27,4.64S127.12,9.06,122,9.29a19.35,19.35,0,0,0-9.53,3.6C119.45,8.59,129.79,10.45,129.79,10.45Zm-2,7.91a8.06,8.06,0,0,0-6,.34c6-1.39,14.18,5.12,14.18,5.12S131.53,19.4,127.81,18.36Zm-.23,8c2,.35,6,5.23,6,5.23s-2-2.55-3.48-4.18S127.58,26.37,127.58,26.37Z"/>
        </g>
        <g>
          <path class="cls-12" d="M74.46,98.09s-7.3-6.93-5.83-21.63S77.87,55,85.22,59,93,72.19,92.57,83.39C92.23,92.34,83.64,105.44,74.46,98.09Z"/>
          <path class="cls-12" d="M93.13,76.11c-.78-3.83-1.4-16.52,5-18.85,7.43-2.71,17.5,10.36,17.5,24.5s-9.95,13.42-12.82,11.71S96,90.3,93.13,76.11Z"/>
          <g>
            <path class="cls-13" d="M113.21,74.87c-2-9.28-7.85-15.9-13.11-14.78s-7.94,9.56-6,18.84S102,94.84,107.25,93.71,115.19,84.16,113.21,74.87ZM82.19,61C76.05,60.6,70.59,69,70,79.6s3.89,19.56,10,19.91,11.61-8,12.21-18.65S88.33,61.29,82.19,61Z"/>
            <path class="cls-14" d="M89.46,66.64a.94.94,0,0,0-.09-.19A1.66,1.66,0,0,1,89.46,66.64ZM81.93,61c-4.54,0-7.39,4-9.23,7.48,0,0,4.64-5.59,10.37-4.73,4.7.7,6,2.22,6.3,2.75C88.88,65.49,86.32,60.9,81.93,61Zm18.19-1c-4.07.76-5.64,6.16-5.64,6.16S97,62,100.31,61.47,107.37,63,107.37,63,104.2,59.24,100.12,60Z"/>
            <path d="M75.78,67.35c-2.14-.1-4,2.4-4.15,5.58s1.47,5.85,3.6,5.95A2.82,2.82,0,0,0,77,78.36a7.67,7.67,0,0,0,.09-2.3c-.22-1.43-.44-3.42.72-2.26a6.5,6.5,0,0,1,1.17,1.8,8.38,8.38,0,0,0,.44-2.3C79.53,70.12,77.92,67.45,75.78,67.35ZM74.46,71A1.27,1.27,0,0,1,73,70a1.26,1.26,0,1,1,1.5,1ZM97.54,65c-1.93-.09-3.6,2.15-3.73,5s1.31,5.25,3.24,5.34a2.9,2.9,0,0,0,2.33-1.17c0-.2-.07-.42-.12-.65-.38-1.94-1.54-3.26-.27-3a3.09,3.09,0,0,1,1.6,1.14,7.71,7.71,0,0,0,.18-1.29C100.91,67.52,99.46,65.13,97.54,65Zm-1.21,3.4a1.08,1.08,0,1,1,.84-1.28A1.08,1.08,0,0,1,96.33,68.44Z"/>
            <path d="M71.82,29.69c-6.34,1.56-8.66,15-8.66,15S66.75,34.21,72,32.45c4.31-1.45,10.07,2.81,10.07,2.81S78.16,28.12,71.82,29.69Zm27.29-2.36C94.68,26.76,91.25,34,91.25,34c9.13-10.77,15.1,1.1,15.1,1.1S103.53,27.89,99.11,27.33Z"/>
            <path d="M97.79,125.81C83.46,128.11,71,122.21,64.9,112s-10.47-14.29-16.26-8.52-5.22,26.92,10,37.51,36,2.45,41.35-3.64,8.46-10.67,11.49-13,13.86-9.55,13.86-9.55S109.76,123.88,97.79,125.81ZM56.9,93.16c-.87-.27-8.18-2.49-12.43-.61-4.54,2-5,11.39-5,11.39s1.84-8.86,7.68-10.51A17.92,17.92,0,0,1,56.9,93.16Z"/>
            <path class="cls-15" d="M56.62,116.41c1.36,5.32-1.5,7.91-1.5,7.91s-.13-5.18-1.63-8.45-5.05-.28-5.32,4.63,4.63,13.23,11,8.87S56.62,116.41,56.62,116.41Z"/>
            <path class="cls-16" d="M50.5,126.06s2.24,3.57,5.36,3.57a4.19,4.19,0,0,0,4-2.68S54.08,128.74,50.5,126.06Z"/>
            <path class="cls-16" d="M62.26,109.21s-5.68,12.15,10.24,22,26.94.47,29.16-2.69a23.43,23.43,0,0,1,3.08-3.86S78.83,136.65,62.26,109.21Z"/>
            <path class="cls-17" d="M66.2,114.8A47.26,47.26,0,0,1,62.26,109a14.48,14.48,0,0,0-.19,10.52s-.12-3.15,2.07-3.33,6.06,3.39,7.43,4.46,2,1,2,1A51.41,51.41,0,0,1,66.2,114.8Z"/>
          </g>
        </g>
      </g>
    </g>
  </g>
</svg>
