<svg xmlns="http://www.w3.org/2000/svg" xmlns:xlink="http://www.w3.org/1999/xlink" viewBox="0 0 86.45 86.93">
  <defs>
    <style>
      .cls-1, .cls-11, .cls-12, .cls-13, .cls-2, .cls-5 {
        fill-rule: evenodd;
      }

      .cls-1 {
        fill: url(#linear-gradient);
      }

      .cls-2 {
        fill: #070707;
      }

      .cls-3 {
        fill: #48496e;
      }

      .cls-4 {
        fill: #2a2234;
      }

      .cls-5 {
        fill: #372945;
      }

      .cls-6 {
        fill: url(#radial-gradient);
      }

      .cls-7 {
        fill: url(#radial-gradient-2);
      }

      .cls-8 {
        fill: #1a171b;
      }

      .cls-12, .cls-9 {
        fill: #fff;
      }

      .cls-10 {
        fill: #a7d5e7;
      }

      .cls-11 {
        fill: #e85d85;
      }
    </style>
    <linearGradient id="linear-gradient" x1="44.16" y1="47.47" x2="44.16" y2="86.59" gradientUnits="userSpaceOnUse">
      <stop offset="0" stop-color="#fff"/>
      <stop offset="1" stop-color="#c8c1c1"/>
    </linearGradient>
    <radialGradient id="radial-gradient" cx="46.29" cy="22.57" r="62.38" gradientUnits="userSpaceOnUse">
      <stop offset="0" stop-color="#9a8abc"/>
      <stop offset="0.08" stop-color="#8e7fb0"/>
      <stop offset="0.26" stop-color="#796c99"/>
      <stop offset="0.47" stop-color="#6a5e89"/>
      <stop offset="0.69" stop-color="#615680"/>
      <stop offset="1" stop-color="#5e537d"/>
    </radialGradient>
    <radialGradient id="radial-gradient-2" cx="49.74" cy="30.16" r="47.79" gradientUnits="userSpaceOnUse">
      <stop offset="0" stop-color="#fff"/>
      <stop offset="1" stop-color="#716c9b"/>
    </radialGradient>
  </defs>
  <g id="Шар_2" data-name="Шар 2">
    <g id="Vrstva_2" data-name="Vrstva 2">
      <g>
        <path class="cls-1" d="M86.19,68.73a4.25,4.25,0,0,0-3-2.58s2-.69,1.14-2-3.49-1.74-3.49-1.74a5,5,0,0,0-2.48-4.52,11.94,11.94,0,0,0-4-1.75S71.62,51.87,66.86,51c-3.94-.75-5.54-.35-5.54-.35a13.3,13.3,0,0,0-6.4-2.16,14.36,14.36,0,0,0-3.07,0,.08.08,0,0,1,0,.05s0,0,0-.05-.11-.38-1.7-.43a15.74,15.74,0,0,0-3.08.13,13.07,13.07,0,0,0-4.91-.69,24.64,24.64,0,0,0-5.12.83,53.1,53.1,0,0,0-8.78.14c-4.8.49-5.76,1.61-5.76,1.61a34.12,34.12,0,0,0-6.49.48,12.47,12.47,0,0,0-3.59,1.53,8.65,8.65,0,0,0-4.19,1c-2,1.12-1.78,2.58-1.78,2.58A3.18,3.18,0,0,0,3.94,57.1c-1.12,1.53-.37,2.23-.37,2.23a2.17,2.17,0,0,0-1.3,1.88,3.37,3.37,0,0,0,.86,2.3S1.42,64,2,65s2.57,1.6,2.57,1.6-2,.84-1.45,2.16A3.55,3.55,0,0,0,4.3,70.47S3,71.59,3.77,72.56s1.36.84,1.36.84a3.58,3.58,0,0,0,1.46,2.71,4.45,4.45,0,0,0,2.29.7,3.47,3.47,0,0,0,2.87,1.81c2.3.35,3.37.56,3.37.56s-.19,1.18,2.58,1.39,4.77.21,4.77.21-1.72.7.27,1.39a16.38,16.38,0,0,0,4.29.77s-.18.76,2.73,1.39,5.82,1.33,5.82,1.33a42.86,42.86,0,0,0,9.21.9,77.17,77.17,0,0,0,9-1.18,22.53,22.53,0,0,0,6-.07c3.41-.49,3.28-1.19,3.28-1.19a20.72,20.72,0,0,0,4.63-.35,2.64,2.64,0,0,0,1.42-1s3.55-.28,5-1.25,1.44-1.61,1.44-1.61,3.87-.48,5-1.39a5,5,0,0,0,1.44-1.67,6.39,6.39,0,0,0,2.52-1.67,1.22,1.22,0,0,0-.26-1.67S87.35,71.1,86.19,68.73Z"/>
        <g>
          <path class="cls-2" d="M84.6,47.42c-1.23-5.24-3.08-5.71-3.08-5.71a4.05,4.05,0,0,0,1.08-4.47,6.27,6.27,0,0,0-3.55-3.85s.16-6.47-2.62-10-4-3.85-4-3.85-2.92-9.41-7.7-11.4c-4-1.66-5.55-.78-5.55-.78S56.24,2.88,52.7,2.57c-2.37-.21-3-.07-3.07,0a.5.5,0,0,1,0,.11.07.07,0,0,1,0-.11c0-.24-.12-.84-1.71-1A7.15,7.15,0,0,0,44.84,2,7.11,7.11,0,0,0,39.91.41a12.91,12.91,0,0,0-5.09,1.85A23.78,23.78,0,0,0,26,2.57c-4.77,1.08-5.7,3.54-5.7,3.54S16,6,13.86,7.19a11.67,11.67,0,0,0-3.55,3.39s-2.15-.31-4.16,2.16a8.65,8.65,0,0,0-1.69,5.7S3.07,18.29,2,21.68s-.31,4.93-.31,4.93S.45,27.69.45,30.77a13.16,13.16,0,0,0,.93,5.09A3,3,0,0,0,.3,39.25a6.49,6.49,0,0,0,2.62,3.54,5.28,5.28,0,0,0-1.39,4.78,10.27,10.27,0,0,0,1.23,3.7,6.75,6.75,0,0,0-.46,4.62c.77,2.16,1.39,1.85,1.39,1.85s.15,4.32,1.54,6S7.54,65.3,7.54,65.3s.62,3.23,2.93,4,3.39,1.23,3.39,1.23a3,3,0,0,0,2.62,3.09,32.33,32.33,0,0,0,4.78.46,1.89,1.89,0,0,0,.3,3.08,8.89,8.89,0,0,0,4.32,1.7s-.15,1.69,2.77,3.08,5.86,2.93,5.86,2.93,5.24,2.46,9.25,2a38,38,0,0,0,8.94-2.62,10.18,10.18,0,0,0,6-.15C62.1,83,62,81.48,62,81.48s3.54.15,4.62-.77A4.78,4.78,0,0,0,68,78.39s3.54-.61,4.93-2.77a7.39,7.39,0,0,0,1.38-3.54S78.13,71,79.21,69a14.09,14.09,0,0,0,1.38-3.69,8.64,8.64,0,0,0,2.47-3.7,4.93,4.93,0,0,0-.31-3.7S85.83,52.66,84.6,47.42Z"/>
          <path class="cls-3" d="M26.34,71c-2.93-4-5.08-4-4.62-8.17,0,0-4.62-2.16-3.7,1.69s2,6.94,5.09,8.17S29.27,75,26.34,71ZM19.1,46c.51-.57-2.16,1.08-2.16,4.78s-1.54,6,.46,7.7,1.7.77,2.16-1.85,3.08-.92,1.7-3.39S17.71,47.57,19.1,46Zm-6.32-6.47c-3.24.77-5.24,1.38-6.94.92a7.53,7.53,0,0,0,.62,5.24c1.39,2.93,4,4.32,5.4,1.7s2.77-3.55,2.62-5.55S16,38.79,12.78,39.56ZM5.07,34.93c1.7-1.23,2.47-2.46,3.55-2.62s-1.23-3.54-.77-5.39.61-1.85-1.54-.62a3.07,3.07,0,0,0-.41.22c1.3-1.31,2-.65,3-2.07s1.69-1.69.77-2.62.15-4.16-2.16-2.77c0,0-.77-.62-2,2.46-1,2.57-1.41,5.88-.62,5.84a5.37,5.37,0,0,0-1.23,2.49C3.07,32.62,3.38,36.17,5.07,34.93Zm9.87-2.16C16,30.46,16.63,30.31,18,28.46s4-3.08,1.69-3.85-.61-3.09-2.46-2.47S13.4,22,11.55,24c0,0-1.39,2.16-.62,6S13.86,35.09,14.94,32.77ZM5.84,18.59c1.39-.92,2.62-.61,3.4-1.54S8.93,14.13,8,14.43s.16-2.15-.61-1.38c0,0-.31-1.7-1.39,1.54S4.46,19.52,5.84,18.59ZM2.61,34c.46-1.54.61-3.08-.16-2.78S2.3,28,1.53,28.61c0,0-1.7-.46-.93,3.09S2.15,35.55,2.61,34ZM4.3,43c.31-1.7,2-7.09.77-5.71S3.22,38,2.61,38.32s-1.7-1.69-1.7-.15c0,0-.46.31.77,2.77S4,44.64,4.3,43Zm2.32,6.32C6,46.49,6.15,44.8,5.23,46s-3.08-1.85-3.55-.15c0,0-.92-.16.31,2.77S3.84,52,5.38,51.12,7.23,52,6.62,49.27Zm5.85,12.17c2.31-1.23,2.47-2.31,1.85-5.09s-.46-4.93-2-3.69-5.55,2.93-6.17.15c0,0-1.08,2.16,1.39,5.09S10.16,62.67,12.47,61.44ZM5.07,53c-.92.62-2.31-1.69-2.92-.3,0,0-1.7-.47-.47,2.46s3.24,5.55,3.39,3.08S6,52.35,5.07,53Zm2.47,6.32c-.31-.92-2.62-1.38-2.47,1.24,0,0-.46,0,1.24,3.23s2.46,5.4,3.23,2.47.77-1.08-.3-3.7S7.85,60.21,7.54,59.28Zm7.71,3.86c-1.39.61-2.62,1.23-4,.31a5.71,5.71,0,0,0,.31,5.39c1.69,2.77,3.08,3.54,4.93,3.54s.92,0,.15-4.62S16.63,62.52,15.25,63.14Zm18.34,15c-2.78-2.16-5.86-1.39-6.94-2.32s-2.93-4-3.24-.92c0,0-1.54,2,2,5.24s4.78,3.85,6.16,1.23S36.36,80.24,33.59,78.09ZM28,25.38a14.59,14.59,0,0,1,2.77-2.78c1.24-.77,2.62-1.54,2.62-1.54s-5.9,2.07-9.62,3.17a7.14,7.14,0,0,1,1.61.38C27.42,25.22,28,25.38,28,25.38Zm-4.23-1.15c-.27,0-.24.07-.24.07Z"/>
          <path class="cls-2" d="M69,38c.93-1.38-.92-1.23-2.31-1.07s-1.23-.77-.61-2.47-2.93-2-2.62-3.08-2.62.31-3.86.46-2-.31-3.39-.15-2.31,2-2.31,2c-1.08,1.85-.31,3.08,2,2s1.08.47.78,1.7.61.15,2.15,0-.31,1.08-.61,2,1.23.31,3.85.16-.15,1.23-1.7,2.77,1.7.77,4.16,1.39,1.55,1.54,3.4,3.85.77-2.31-.31-4.62-.16-1.85,2-2.47S68.11,39.4,69,38Z"/>
          <path class="cls-4" d="M51,61c-.92.92-1.23,2.77-1.85.31s-1.08-4.63-1.38-3.55S45.45,56.51,45,59c-.23,1.22-2.62,5.08-1.23,4.62s.15,2.47,1.85,2.16,2,2.46,3.39.61,3.54.16,3.39-1.85S51.93,60.05,51,61Zm-18-.93a23.37,23.37,0,0,0,7.86-4.77c3.08-2.93-1.08-4.47,0-5.86S41.45,46.18,39,45s-3.7-1.08-8.63-1.69-6.94,2-6.94,6.31S27.11,52,30,51.89s1.39.15-.77.77a8.54,8.54,0,0,0-5.55,5.7C22.8,61.44,28.65,61.44,33,60.05Zm8.17,5.09C42.52,62.21,43,56.05,39,58.05c0,0-4.62,1.54-7.71,2.78s-5.7.77-4.93,3.39,5.09,2.15,5.09,2.15-5.09,1.7-3.7,3.86S30,74.08,34.2,71.92,39.75,68.07,41.14,65.14Zm9.25,2.93c-.93,2.31-2.78-2.31-3.09.31s-2.46,1.85-2.46,1.85.92,1.69-1.24,4.31S36.67,79.32,39,81s6.47,3.4,9.86.78,3.86-2.32,4-6.48S51.31,65.76,50.39,68.07ZM53.31,67c0,.69,1.24,2.93,1.85,7.09s.16,8.17,2.31,4.62,3.09-4.62,2.78-8.47S53.47,63.45,53.31,67Zm10.79-5.7c-.46.77-1.08,3.39-2.31,2.62,0,0,1.7,3.08,3.08,6.16S66.26,77,68,73.62s2.31-3.39.77-7.4S64.56,60.52,64.1,61.29ZM74,54.35c-3.55-2.77-6.94-2-6.78,0s.92,1.85-.78,1.7c0,0-.77,2,1.55,3.7s1.85,3.08,3.54,4.77,5.7,1.85,6.32-2.31S77.51,57.13,74,54.35Zm7.09-8.47C79.51,44.8,82,44.33,80,44s1.38-1.39-1.85-1.24-4.78.62-6,2S75.51,50,75.51,50a20.27,20.27,0,0,1,4,3.54c1.85,2.16,2.78.93,1.7-1.54S78,47.72,79.67,47.26,82.6,47,81.06,45.88ZM80.59,36c-.92-1.54-1.85,0-3.54,2.31s-2.78,2.47-2.78,2.47c-.61,2,3.09.77,5.09.77s1.54-.31,2.47-1.54S81.52,37.55,80.59,36ZM66.26,29.54c-1.7,2.62-1.23,3.85.31,3.08s3.7-.92,2.93,1.23,4.62,3.55,3.39,5.09a8.64,8.64,0,0,0,4.47-5.09c1.54-4,.77-7.09-.31-6.93s-2.16,1.08-2-.31.77-2.93-.16-2.77-1.85-3.24-3.39-2-1.23-1.08-2.77,2.47S68,26.92,66.26,29.54ZM58,28.2c-.1.16-.21.35-.32.57C57.63,28.77,57.8,28.71,58,28.2Zm5.07.41a11.85,11.85,0,0,0,4-4c2-2.78.46-2.16.62-4.94s-.62-1.08-.93.31-1.23-1.39-1.85-3.54-1.07-1.54-1.23.31-.77.77-1.54-.78-1.54-.77-2.31-2.15-2.16,1.23-3.7.92,1.23,2.62,1.85,8.17a15.38,15.38,0,0,1,0,5.29c.61-1,1-.93.76.26-.31,1.39.15,1.69,1.85.31S61.48,29.69,63,28.61Zm-8.47-.46c1.69-2.31,1.38-1.23,1.69-4.62s0-3.7-1.54-5.55-3.08-2.93-2.62-1.7-.92,1.24-4-1.23-1.07,2.16-3.23,2-1.7,2.62-4,2.93c-2.1.28-.89,1.58,1.2,2.51a13.74,13.74,0,0,0-5.52-.5c-3.69.3-.46,4.31-4.16,3.85s-3.52,3.34-2.91,5.93c.31,1.3,1.06,4.4,5.69,8.4s8.17,2.31,8.17,2.31c4.31-1.54,3.39-5.08,3.39-5.08a9.17,9.17,0,0,0,.92-9.56,9.33,9.33,0,0,0-4.2-4.77,9.82,9.82,0,0,1,3.12,2.31C48.07,28,50.08,26.61,51,28.92S52.85,30.46,54.55,28.15ZM25.42,33.39c1.85-1.39,3.85-6.63,1.23-6.32,0,0-5.39-1.08-8.48,3.39s-4,11.87-1.23,12.18,5.55,0,5.86-3.55S23.57,34.78,25.42,33.39Zm-17.57,2C4.61,38.32,4.61,42,7.08,41.56s4.47,1.08,5.85-.62-.61-4.93,1.39-6.62A5.63,5.63,0,0,0,7.85,35.39Zm13-16.8c.61,4,2.15,5.71,3.85,3.7s3.7-2.77,6.93-3.23,8.48-7.55,4.93-7.86c0,0-2.46-1.7-8.63-.62S20.18,14.59,20.8,18.59Zm-3.09.16s-4.31,1.08-5.85,3.85S10.78,26.76,13.09,26s2.77.93,4.62-.46S21.72,17.52,17.71,18.75Zm-2.46-1.54c1.85-.93,6.16-7.4,2-6.32a4.59,4.59,0,0,0-4,3.24C12.32,17.21,13.4,18.13,15.25,17.21Zm-3.86-4.47c1.24-1.08,4.47-6.63,1.7-4.93a9,9,0,0,0-2.47,3.39C10,13.05,10.16,13.82,11.39,12.74ZM23.57,8c.92.16,3.7-2.46-1.23-2.31a2.23,2.23,0,0,0-2,1.23C19.87,8.12,22.64,7.81,23.57,8Zm7.24.62c1.85-.16,5.86-.77,7.25-.62S43,4.72,37.29,4.88c-.62,0-4.17-.16-6.32,1.23S29,8.73,30.81,8.58Zm17.73,1.54c3.23.46,8,1.69,4.77-1.08s-2.92-2-6.47-2c0,0-3.7-.62-3.54,1.85S45.3,9.66,48.54,10.12ZM36.82,4.26a20.12,20.12,0,0,0,6,.16c1.7-.31,0-3.7-3.85-3.86a4.86,4.86,0,0,0-3.54,1.7C33.59,4.11,34.82,4,36.82,4.26ZM50.69,6.42c2.16.77,3.55,1.85,5.09,1.85s4-5.09-4.47-5.24a3,3,0,0,0-3.24,1.08C47,5.8,48.54,5.65,50.69,6.42Zm9.87,4.47c3.08,1.23,4.78,2,6.47,4.16s3.39,2.78,2.31-1.08S66.41,9,63.64,7.65c0,0-2.54-.77-3.89.12C57.21,9.44,57.47,9.66,60.56,10.89ZM8.16,29.69c1.23-1.85,1.54-4.16,0-4.16,0,0-2.47-.46-2.32,1.7S6.92,31.54,8.16,29.69Zm.15-8.32c1.7-.93,3.85-3.54.93-3.08,0,0-1.08-.46-2,1.54S6.62,22.29,8.31,21.37Z"/>
          <path class="cls-5" d="M60.85,50.4c-1.51-.46-.47-.92.57-2.08s.23-2.66-.34-4.51,1.15-2.54,2.08-3.46S62.23,40,60,40.12s-3.12-1.39-2.89-2.78.23-2.66-.7-2.42-2.07.46-1.27-1.51.35-1.85-.69-1.38a32.83,32.83,0,0,1-4.85,2.08c-1.51.34-1.51,2.54-1.51,2.54.58,5-6.35,10.4-6.35,10.4a40.28,40.28,0,0,1,.81,5.66c.11,2.55-.58,2.78-.58,2.78a3.59,3.59,0,0,1,1.62,1.73c.57,1.27-.7,2.66,0,2.31s1,.12,1.85.35.57-1,.92-1.73.46.57.46,1.27.35.34,1.27.34.81.12.81-1.27.58-.11,1,.81.23.81.93,0,.81.12,2.19.92.35-.69-.23-2.19.47-1,2.43-1.5S59,57.8,60.5,57.8s-1.85-2-3-2.78.92-1.15,1.61-2.65,3.47.46,5.55.34S62.35,50.86,60.85,50.4Z"/>
          <path d="M51.83,43.81c-2-2.88-3.23-3.92-2.19-6s1.61-3.46.69-2.65-1.5,1.15-1.85,0c0,0-.92,3-2.19,3.81s-.47,2.89-2.09,3.7-4.39.92-3.46,2.89a14.64,14.64,0,0,1,1.73,5.55c.12,2-.35,3.12,1.62,2s3.81-2.2,5.55-2.2,0-1.27,1-3.23S53.8,46.7,51.83,43.81ZM6.07,53.64a3.13,3.13,0,0,1,2.31-2.89s-.58-1.16-1.5-3.12a11.58,11.58,0,0,1-1-3.82c-2.2,3.7.34,3.93,0,5.78S4.1,51.1,4.1,51.1s.7.8.12,2.77A3.71,3.71,0,0,1,2.6,56.3a6.68,6.68,0,0,0,1.73,2.31,7.8,7.8,0,0,0,2.32,1.27A20.56,20.56,0,0,1,6.07,53.64Zm6.35,8c1.62.46,2.2-.58,3.36-2.08s1.61.93,1.61.93-.34-2.08-.81-7.17.81-7.86.81-7.86-1.61,2.43-3,4.28S12,51.21,12,51.21A14.41,14.41,0,0,1,13.12,58c-.47,3.23-2.78,2-2.78,2A3.15,3.15,0,0,0,12.42,61.61Zm-3.58.46a17.73,17.73,0,0,1-2-1.61c.34,4.62-2.08,2.19-2.08,2.19s-.12.46,1.15,2.43A18.59,18.59,0,0,0,10,69s-.23-.35,0-2,.81-4.16.81-4.16S10.11,63,8.84,62.07Zm8-.46s-.12.35-1.16.93a2,2,0,0,1-1.73.23A4.93,4.93,0,0,1,15.2,67c-.47,2.66-4.28,2.35-4.28,2.35a10.71,10.71,0,0,0,5.32,4.24,12.17,12.17,0,0,0,7.28.46s-1.5-1.61-4.28-5.31A11.13,11.13,0,0,1,16.82,61.61ZM38.46,86.15l-1.19-.26A2,2,0,0,0,38.46,86.15ZM35.19,84a8.13,8.13,0,0,1-1.39-5.55A6.4,6.4,0,0,1,28,78.37,9.46,9.46,0,0,1,24,74.44c.46,9.13,7.63,8.21,7.63,8.21s.11.57,1.27,1.61c.77.7,3,1.3,4.39,1.63A6,6,0,0,1,35.19,84Z"/>
          <path class="cls-6" d="M6.3,56a17.26,17.26,0,0,1,.23-2.54,6.35,6.35,0,0,1,1.62-2.78C3.87,53.06,6.3,56,6.3,56ZM5.93,44a9.52,9.52,0,0,0,.53,1.68C6.25,45.13,6.08,44.57,5.93,44Zm0,0a8.94,8.94,0,0,1,.17-4.91,10.81,10.81,0,0,1,3.68-5S3.29,34.59,5.93,44Zm20.18-16.9S20.17,25,17.16,30.76a14.76,14.76,0,0,0-1.49,10.53A13,13,0,0,1,17.85,31.1C21.44,25.79,26.11,27.14,26.11,27.14ZM2.83,42.66S.84,39.8.92,37.84c.07-1.61.49-2,.49-2S-2.56,38.58,2.83,42.66Zm-1,4.51a8.57,8.57,0,0,1,.69-2.32s-3.92,1.62,0,5.78A5.52,5.52,0,0,1,1.79,47.17ZM2.6,52s-2.77,2.31.58,5.55a10.18,10.18,0,0,1-.81-3.35A7.74,7.74,0,0,1,2.6,52ZM8.13,25c-.2,0-6.76,1.51-4.26,9.36a8.49,8.49,0,0,1,1-6.36C6.74,25.4,8,25,8.13,25ZM4.46,26A10.88,10.88,0,0,1,7.22,20.5,28.94,28.94,0,0,0,10,17.23S3.54,19.43,4.46,26Zm6.27-.38c0,.24,0,.38,0,.38S10.72,25.77,10.73,25.64Zm0,0a7.85,7.85,0,0,1,3.77-5.4c3.05-1.91,4.45-2.16,4.85-2.19C18.34,18.08,11.29,18.6,10.73,25.64Zm8.62-7.59h0Zm3.39,5.12a7.26,7.26,0,0,1-.76-1A3.94,3.94,0,0,0,22.74,23.17Zm12-11.83c4,.81,4,3.93,4,3.93a6,6,0,0,0-4.85-5.78c-5-1.27-12.13.69-13.18,5.66a9.29,9.29,0,0,0,1.24,7c-.62-1.09-1.3-3.16-.66-6.56C22.36,10.07,30.68,10.53,34.73,11.34Zm-11.67-.69S18,8.8,14.27,12.5c0,0,3.58-1.74,5.67-1.85A20.32,20.32,0,0,1,23.06,10.65ZM35.42,4.41c-7.16.69-8.09,4.39-8.09,4.39a15.13,15.13,0,0,1,9.48-3.7c5.55,0,7.39,1.62,7.39,1.62S42.59,3.71,35.42,4.41Zm-20,2.65a16,16,0,0,1,3.81-.34s-.23.23,0,1.73a6,6,0,0,1,3.82-2.89A16.34,16.34,0,0,1,29,5.68a12.28,12.28,0,0,0-3.7-1A30.35,30.35,0,0,0,21.67,5a9.2,9.2,0,0,1,6.47-2.77,12.45,12.45,0,0,1,3.7.23s-5.43-1.5-8.32.23-3.58,3.47-3.58,3.47-3.7-.58-5.78.69a8.72,8.72,0,0,0-2.89,2.66A7.22,7.22,0,0,1,15.43,7.06ZM5.57,13.15a8.74,8.74,0,0,0-1.12,4.43s.19-4.31,5.86-7A5.05,5.05,0,0,0,5.57,13.15ZM45.36,2.33A5.47,5.47,0,0,0,40.28,0a10.69,10.69,0,0,0-6.17,2.82A10.64,10.64,0,0,1,45.36,2.33ZM41.89,9.49l.32-.38A1.43,1.43,0,0,0,41.89,9.49Zm.32-.38a9,9,0,0,1,4.08-1.58c3.92-.81,8.78,2.54,8.78,2.54s-.46-.93-2.89-2.43a10.48,10.48,0,0,0-5.55-1.27s-.11-2.31,4.28-3.58,8.32,4.74,8.32,4.74A8.33,8.33,0,0,0,52,1.86c-5.78-.46-6,4.63-6,4.63C44.51,6.67,42.89,8.35,42.21,9.11Zm26.5,9.51S68.82,16,65.12,13a11.06,11.06,0,0,0-7.86-2.43C66.86,11.46,68.71,18.62,68.71,18.62ZM48.83,34.45c.92-.57,3.7-1.27,5.08-2.89a14.21,14.21,0,0,0,2.89-6.12c.35-2-.23-3.81-.92-2.54s-1.5,1.27-1.85.46-.93-.69-1.16.46-.58,2.77-1,1.27-1.62-3-2-2-.23,2.77-1,2-3.7-3.7-4.28-1.15c0,0,3.35,3.12,3.82,5.54S47.9,35,48.83,34.45Zm-4.16,7.86c1.62-1.38,2.89-4.39-1.16-8.55,0,0,.93,1.85-.58,1.5s-2.88-.81-2.54.12-1.73,1.27-.34,2.54,3.23,2.43,2.77,3.93S43.05,43.7,44.67,42.31ZM62.35,30.76c1.5-1,3.47-3.82,2.54-3.93s-1.73.23-1.62-.93.23-2.77-.57-1.27-1.28,4.85-2.2,3.81.81-4.5-.12-4.27-.92-1.85-2.08,0c0,0,.24.69-.57,2.77s-2,4.62-.7,4.39S61,29,60.73,30,60.85,31.8,62.35,30.76ZM71.13,30c-.81.92-.34-3.82-2.54-1.51l-2.31,3.12c-1.62,2.2-1.85,3.82-.93,4.16s3.24-.46,2.89.58-1.15,3.47.23,3.24,1.74,1.73,3.82.23,5.78-8.21,4.27-7.74-4.16,2.54-4.39.81S71.94,29,71.13,30Zm5.55,19c-1.62-1.27-2-2.2-.81-2s1.85.7.46-.92.35-1.39,1.39-1.62.69-3.23,5.08-.58c0,0-1.38-3.35-7.39-2s-7.51,6-6,6.24-1.5,1.27.34,1.39,5.32.57,7.52,3,4.62,6,3.23,3S78.3,50.17,76.68,48.9ZM70,51.79c-1.74-.69-1.85.46-2.89.34s-1.5.7-1.27,1.85-.47,1.39-1.62,1.74-.23,1.15,1.5,2.43a46.88,46.88,0,0,1,4.62,4.39c-.58-1.51.23-1.62,1.51-1.28s-1-1.73-2.89-2.88-1-1.62.57-1.85.62-.12-.54-1.51.16-1.58,2.59-.53a35.13,35.13,0,0,1,6.24,4.27s.5-1.42-1.12-3.5C75.27,53.44,71.71,52.48,70,51.79Zm-6.59,8.43c-1.5-1.15-1.5-.57-1.39.24s-1.38.23-3-.35-1.39.58-.12,1.73,4.55,5.24,4.55,5.24c-.35-2-1-2.58,0-2.35s.58-.58.35-1.62,2.08,1,3.23,2,1.62.23,0-2S64.89,61.38,63.39,60.22Zm-4.85,4.51c-.81-1-1.16-.46-1.28.46s-2.08-.11-3.58-.92-1.35,1.7-.42,3.54a18.61,18.61,0,0,1,1.31,3.43c.23-2.31,1.31-2.12,2-1.42s.93-.7,1.27-1.74,1,.47,2.08,2,.81-1.5.35-3.58S59.34,65.77,58.54,64.73Zm-8.79,2.43c-1-.69-.81,1.27-.81,1.27.47,1,2.31,1,2.43.35S50.79,67.85,49.75,67.16Zm-2.43.11a3.1,3.1,0,0,0-.8,1.85c-.23,1.39-.35-2.19-1.51-3.12s-.46.58-.57,2.08a11.5,11.5,0,0,1-.58,3.24c-.46,1.62-1,2.19-1.85,4.51s.69.11,2.19-.7,1.16-1.27,2.2-2.77,1.16.92,2.54,1.62,1.39-1.16.7-3.7S47.32,67.27,47.32,67.27Zm-23.92-24a12.59,12.59,0,0,0-3.7,1.28S21.3,43.85,23.4,43.23Zm20.11,24c.12-2.65-.46-3.12-.46-3.12a21.35,21.35,0,0,0,.46-5.89A5.5,5.5,0,0,0,41.66,55l.93-2.65s0-4.51-2.31-6.82-6.94-3.35-11-3.35a22.56,22.56,0,0,0-5.9,1,25.9,25.9,0,0,1,6.32-.49C36.54,43,39,44.39,39.58,46s-2.66,3.24-4.51,3-.23,1-1.27,1.39,1.74,1.85,3.7,2.2-2,2.54-2.66,4,4.16-1.5,5.09-2.08-.12.93-2,2.31a18.28,18.28,0,0,1-10.63,4.39c-6.24.7-9.13-.34-9.13-.34s4.39,2.42,11.56.81A25,25,0,0,0,41.08,56a18.21,18.21,0,0,1-3.69,3.47c-2,1.27.69.8-1.16,2.42s3.35.35,3.35.35a23.16,23.16,0,0,0-3.12,5.66c-.69,2.43,3.24-1.15,5-2.66s.23.58-1.27,2.55a39.18,39.18,0,0,1-7.28,6.35c-2.31,1.62,3.7-1.27,4.74-2.31s0,.58-.46,1.62.23.46,1.27-.35-.23,1.27-.35,3,2-.58,4-4.51S43.51,67.27,43.51,67.27Zm25.66-54c1.85,4.63.81,7.86.81,7.86l1.85-1.61S71.21,8.26,60.92,7.06C60.92,7.06,67.32,8.68,69.17,13.3Z"/>
          <path class="cls-7" d="M18.09,33.53c-.81,1.62.23,1.39.81.23a6.92,6.92,0,0,1,1.5-2C21,30.76,18.9,31.91,18.09,33.53ZM43,33.37A6.85,6.85,0,0,1,45.71,38c.69,3.81-3.13,6.41-8.56,3.53S29.3,31.8,29.3,31.8C31.4,38.45,35.71,42.42,40,43.11s6.87-1.72,6.64-4.84C46.44,35.71,43.92,33.93,43,33.37Zm0,0a2.46,2.46,0,0,0-.32-.19ZM36.81,29s-1.39.81-.23,3.12,4.16,2.66,4.39.93S38.77,28.21,36.81,29ZM55.18,18.66a8.67,8.67,0,0,1,1.11,2.57c.81,2.88.55,4.45-.75,7.56C53.91,32.68,51,32.84,51,32.84a9.58,9.58,0,0,0,1.39-2.78,9.7,9.7,0,0,0-.23-3.12,9.5,9.5,0,0,1-.81,3.58,10.2,10.2,0,0,1-2.54,3.12s2.35-5-4.28-9.7C38.29,19.52,33.23,23,33.23,23A10.44,10.44,0,0,1,48,29.25c1,3.46-1,7.17-1,7.17l.23,1.5a6.36,6.36,0,0,0,1.16-1.39c.92-1.27.69-1.73.69-1.73A5.21,5.21,0,0,0,51.6,34c1.27-.81,4.54-2.88,5.32-8.55A8.69,8.69,0,0,0,55.18,18.66Zm-.8-.85a6.4,6.4,0,0,1,.8.85A2.75,2.75,0,0,0,54.38,17.81Zm-9.6,11.1c.93-.12-.11-2.43-1.5-3.24,0,0-3.35-1-3.12.92S43.86,29,44.78,28.91Zm4.39-6c.24-1-1.15-3-2.08-3.59,0,0-2.08-.46-.8,1S48.94,23.94,49.17,22.9ZM52.29,20c.47.34-.57-2.78-2.08-3.35,0,0-1.5-.23-.57.69S51.83,19.66,52.29,20Zm9.6,1c.34-1.39-1-5.32-1.51-4.39A3.4,3.4,0,0,0,60,20C60.62,22,61.54,22.43,61.89,21.05Zm3.46,1.27c.93-1.62-.34-5.89-1.38-4.85a4.48,4.48,0,0,0-.35,2.88C64,22,64.43,23.94,65.35,22.32Zm5.57,5a.44.44,0,0,0,0-.15S70.91,27.27,70.92,27.32Zm-2.56,6c1.47-.68,3-3.37,2.56-6A5.81,5.81,0,0,1,70,29.83C68.82,31.91,66.86,34,68.36,33.3Zm7.39.46c.93-.81.7-3.93-.46-3.12a2.27,2.27,0,0,0-1.27,2C74,34,74.83,34.57,75.75,33.76ZM36.81,47.28c.46,0,2.31.12.81-.58s-4.74-1-6.82-1.15-1,1.06,0,1.38C32.18,47.4,36.35,47.28,36.81,47.28Zm1.53,22.35c-.5.58-.84,1-.84,1S37.84,70.24,38.34,69.63Zm5.17-6.75c.58-1.62.23-3.81.23-5S42.12,55,42.12,55s2-2.19-.46-5.54c0,0,1.73,2.89-.11,5.39-2.2,3-7.55,5.51-7.55,5.51a36.82,36.82,0,0,0,5.35-2.58A11.47,11.47,0,0,0,41.78,56s.58.11,1.15,1.15-.11,4.4-1.27,7.29a23.26,23.26,0,0,1-3.32,5.24C39.76,68,42.5,65,42.59,66.35c.11,1.85-2.08,6.82-2.08,6.82s2.66-3.12,3.23-5.43S42.93,64.5,43.51,62.88Zm3.93,5a4.56,4.56,0,0,1,1.73,2.43c.47,1.62.35,3.47.81,2.31S49.64,68.43,47.44,67.85Zm8.78-3.23s-1.61-.47-.57,1.15,1.73,1.5,2.77,2.66S58.65,66.12,56.22,64.62Zm7.05-4.74s-2.42-.81-1.62.81,3,2.65,4.17,3.93,1.85.11,1.27-1.16A9.43,9.43,0,0,0,63.27,59.88Zm8-6.13s-3.93-1.27-3.82.7.35,1.27,2.43,1.38,4.51,2,5.32,1.16S73.79,54.33,71.25,53.75Zm4.39-7.62s-2.31-.58-3.58.69-1.74,1.73.57,2.08,3.59,1.15,4.86,1.39S78.18,46.59,75.64,46.13Z"/>
        </g>
        <g>
          <path class="cls-8" d="M48.53,32s.29-6.86-5-8.82S28.67,33.55,31.61,45.59s11.75,5.87,13.57,3.07,3.22-8.81,3.22-8.81-1.11,10.48,7.85,12.72S66.67,41.78,64.94,34C62.87,24.71,52.87,15.23,48.53,32Z"/>
          <g>
            <path class="cls-9" d="M43.22,26.34c-4-.93-8.48,3.53-10,10s.56,12.41,4.57,13.34,8.48-3.53,10-10S47.23,27.28,43.22,26.34Zm21.41,11c-.68-6.6-4.82-11.44-9.24-10.82S47.94,33,48.62,39.62s4.81,11.44,9.24,10.82S65.31,44,64.63,37.36Z"/>
            <path class="cls-10" d="M42.56,25.89c-5,0-7.69,5.94-7.69,5.94a15,15,0,0,1,6.88-4.14c4.1-1,6.33,4.58,6.33,4.58S47.5,25.89,42.56,25.89Zm13.14.25c-4.46.37-6,5.33-6,5.33A7.65,7.65,0,0,1,56,28.06a9.37,9.37,0,0,1,6.94,3.35S60.17,25.77,55.7,26.14Z"/>
            <path d="M54.25,34.31a4.68,4.68,0,0,0,.24-1.48c0-1.91-1.06-3.46-2.37-3.46s-2.36,1.55-2.36,3.46,1.06,3.46,2.36,3.46a1.86,1.86,0,0,0,1.23-.52c-.44-.49-.87-1.16-.54-1.65S53.7,33.94,54.25,34.31ZM52.18,31a.67.67,0,1,1,.67-.67A.67.67,0,0,1,52.18,31Zm-6.4-1.43c-1.22,0-2.2,1.53-2.2,3.44a5.21,5.21,0,0,0,.23,1.52c.37-.41.77-.69,1.08-.49.47.3.11,1.19-.26,1.89a1.66,1.66,0,0,0,1.15.52C47,36.46,48,34.92,48,33S47,29.58,45.78,29.58Zm0,1.6a.62.62,0,1,1,.62-.62A.62.62,0,0,1,45.79,31.18Z"/>
            <path d="M30.66,16.77c.77.06,3.61.39,4.32-.1s.49-3.07,1-4.49,3.66.17,3.66.17a4,4,0,0,0-3-1.75c-2.08-.17-2,3-2.19,4.42s-1.42.82-3.66.72-2,1.75-2,1.75C29.24,16.72,29.9,16.72,30.66,16.77Zm25.26-2.18c2.63,1.47,4.32-.66,5.85-1a2.68,2.68,0,0,1,3.17,1.31,6.21,6.21,0,0,1,.66,1.92s.49-3.28-1.8-3.94-3.83.6-5,.88-4.1.38-4.27-2.9A2.73,2.73,0,0,0,55.92,14.59ZM75,59.5c-1.12,2-.31,4.34-1.49,4.9a3.82,3.82,0,0,1-4.9-1.49c-1.24-2.17-2.67-4.55-6.27-3.24s-4.28,5.64-6.64,6-6.51-.68-8.3-2.41-5.52-4-9.24-2.55-8.68,2.11-10,.68-1.67-5.64-1.67-5.64a7.33,7.33,0,0,0,.24,5.64c1.43,2.79,5.4,3.1,7.87,1.93s7.19-2.42,10.61.24,8.55,4.34,12.21,2.61,3.54-6.43,7.08-4.94,4.28,5.95,8.61,5,1.62-4.84,2.86-6.2A2.49,2.49,0,0,1,78.47,59S76.11,57.52,75,59.5ZM28,53.66a5.25,5.25,0,0,0-5.33,1.24c-2.48,2.36-2,3.9-2,3.9l1,.81a4.55,4.55,0,0,1,2.11-4.46C26.38,53.53,28,53.66,28,53.66Zm15.25,18.9s2.42,3.29,5.77,2.79,4-1.42,4-1.42l-.25-.62S47,75.6,43.24,72.56Z"/>
            <path class="cls-11" d="M26.15,59.5s-13.15,2-12.06,10,10.05,9,13,5.48,5.67-11.32,5.67-11.32A6.66,6.66,0,0,1,26.15,59.5Z"/>
            <path class="cls-12" d="M15.44,70.8a5.49,5.49,0,0,0,1.66,3.48,4.85,4.85,0,0,0,3.54,1.36S16.21,73.46,15.44,70.8Z"/>
            <path class="cls-13" d="M27.78,61.69a26.07,26.07,0,0,0-2.22,2.46,16.77,16.77,0,0,0-2.23,3.66,51.91,51.91,0,0,1,3.74-4.13,11.09,11.09,0,0,1,2-1.43Z"/>
          </g>
        </g>
      </g>
    </g>
  </g>
</svg>
