<svg xmlns="http://www.w3.org/2000/svg" xmlns:xlink="http://www.w3.org/1999/xlink" viewBox="0 0 80.69 73.13">
  <defs>
    <style>
      .cls-1, .cls-11, .cls-12, .cls-14, .cls-15, .cls-16, .cls-17, .cls-18, .cls-2, .cls-21, .cls-3, .cls-4, .cls-5, .cls-6, .cls-7, .cls-8 {
        fill-rule: evenodd;
      }

      .cls-1 {
        fill: url(#linear-gradient);
      }

      .cls-2 {
        fill: url(#linear-gradient-2);
      }

      .cls-3 {
        fill: url(#linear-gradient-3);
      }

      .cls-4 {
        fill: url(#linear-gradient-4);
      }

      .cls-5 {
        fill: #98a717;
      }

      .cls-6 {
        fill: url(#radial-gradient);
      }

      .cls-7 {
        fill: url(#radial-gradient-2);
      }

      .cls-10, .cls-8 {
        fill: #0d161b;
      }

      .cls-9 {
        fill: #242b31;
      }

      .cls-11 {
        fill: url(#Novй_polниko_pшechodu_1);
      }

      .cls-12 {
        fill: url(#radial-gradient-3);
      }

      .cls-13 {
        fill: #001d26;
      }

      .cls-14 {
        fill: #273f4e;
      }

      .cls-15 {
        fill: #0f1a2d;
      }

      .cls-16, .cls-19 {
        fill: #fff;
      }

      .cls-17, .cls-20 {
        fill: #a7d5e7;
      }

      .cls-18 {
        fill: #1a171b;
      }

      .cls-21 {
        fill: #e31f5c;
      }
    </style>
    <linearGradient id="linear-gradient" x1="60.02" y1="-7.67" x2="60.02" y2="38.47" gradientTransform="translate(-19.68 34.66)" gradientUnits="userSpaceOnUse">
      <stop offset="0" stop-color="#fff"/>
      <stop offset="1" stop-color="#c8c1c1"/>
    </linearGradient>
    <linearGradient id="linear-gradient-2" x1="30.86" y1="-12.64" x2="67.37" y2="-12.64" gradientTransform="translate(-19.68 34.66)" gradientUnits="userSpaceOnUse">
      <stop offset="0" stop-color="#b9cb00"/>
      <stop offset="1" stop-color="#256622"/>
    </linearGradient>
    <linearGradient id="linear-gradient-3" x1="32.19" y1="-12.85" x2="66.17" y2="-12.85" gradientTransform="translate(-19.68 34.66)" gradientUnits="userSpaceOnUse">
      <stop offset="0" stop-color="#a4b50e"/>
      <stop offset="1" stop-color="#3c7929"/>
    </linearGradient>
    <linearGradient id="linear-gradient-4" x1="36.42" y1="-12.08" x2="63.35" y2="-12.08" gradientTransform="translate(-19.68 34.66)" gradientUnits="userSpaceOnUse">
      <stop offset="0" stop-color="#7e9d21"/>
      <stop offset="1" stop-color="#447727"/>
    </linearGradient>
    <radialGradient id="radial-gradient" cx="77.61" cy="-4.33" r="26.09" gradientTransform="translate(-19.68 34.66)" gradientUnits="userSpaceOnUse">
      <stop offset="0" stop-color="#9298aa"/>
      <stop offset="0.29" stop-color="#515077"/>
      <stop offset="0.36" stop-color="#3c445e"/>
      <stop offset="0.47" stop-color="#22353f"/>
      <stop offset="0.58" stop-color="#0f2b29"/>
      <stop offset="0.68" stop-color="#04241c"/>
      <stop offset="0.77" stop-color="#002217"/>
      <stop offset="0.98" stop-color="#434967"/>
      <stop offset="1" stop-color="#494c6e"/>
    </radialGradient>
    <radialGradient id="radial-gradient-2" cx="87.11" cy="-14.13" r="36.94" gradientTransform="translate(-19.68 34.66)" gradientUnits="userSpaceOnUse">
      <stop offset="0.17" stop-color="#515077"/>
      <stop offset="0.25" stop-color="#434969"/>
      <stop offset="0.45" stop-color="#26394a"/>
      <stop offset="0.64" stop-color="#112d34"/>
      <stop offset="0.83" stop-color="#042627"/>
      <stop offset="1" stop-color="#002422"/>
    </radialGradient>
    <radialGradient id="Novй_polниko_pшechodu_1" data-name="Novй polниko pшechodu 1" cx="61.82" cy="-11.67" r="38.51" gradientTransform="translate(-42.65 31.68) rotate(19.27)" gradientUnits="userSpaceOnUse">
      <stop offset="0" stop-color="#fff"/>
      <stop offset="0.17" stop-color="#515077"/>
      <stop offset="0.21" stop-color="#434969"/>
      <stop offset="0.32" stop-color="#26394a"/>
      <stop offset="0.43" stop-color="#112d34"/>
      <stop offset="0.53" stop-color="#042627"/>
      <stop offset="0.62" stop-color="#002422"/>
      <stop offset="0.81" stop-color="#000602"/>
      <stop offset="0.95" stop-color="#363a52"/>
      <stop offset="1" stop-color="#494c6e"/>
    </radialGradient>
    <radialGradient id="radial-gradient-3" cx="66.13" cy="-5.67" r="19.26" gradientTransform="translate(-42.65 31.68) rotate(19.27)" gradientUnits="userSpaceOnUse">
      <stop offset="0" stop-color="#001524"/>
      <stop offset="0.04" stop-color="#0c1d2e"/>
      <stop offset="0.16" stop-color="#242d42"/>
      <stop offset="0.29" stop-color="#373952"/>
      <stop offset="0.44" stop-color="#45425d"/>
      <stop offset="0.64" stop-color="#4d4764"/>
      <stop offset="1" stop-color="#4f4966"/>
    </radialGradient>
  </defs>
  <g id="Шар_2" data-name="Шар 2">
    <g id="Vrstva_2" data-name="Vrstva 2">
      <g>
        <path class="cls-1" d="M71.42,35.85c-9.22-3.4-19-1.51-19-1.51s-8.13.92-12.76,5.57l-.3-.16a27.29,27.29,0,0,0-3.11-1.29c-.06-.33-.49-.36-.49-.36a2.4,2.4,0,0,0,.08-.87c-.08-.25-.9-.29-.9-.29s-.16-.09-.16-.5a1,1,0,0,0-.41-.71s-.08-.37-.17-.7-.65-.25-.65-.25a1.53,1.53,0,0,1-.25-.5c-.08-.29-.9-.38-.9-.38a4.35,4.35,0,0,1-.24-.62c-.08-.29-.74-.21-.74-.21a1.84,1.84,0,0,1-.57-.62c-.25-.41-1.31-.37-1.39-.62s-1.31,0-1.48-.42-2.2-.54-2.61-1-2-.67-2.54-1.08-1.39-.13-2-.46-1.88-.21-2.54-.67-1.8-.12-2.29-.41-2.29-.25-2.78-.5-.74.29-1.15,0-1.72-.12-1.72-.12A2.35,2.35,0,0,1,9.36,27c-.33-.21-1.06.91-1.31.66s-.73,1-1.14.79-.74,1-1.07.75-.73.92-1.06.75-.41.91-.74.71-.16.95-.65.78S2.65,33,2.32,32.74s-.16.79-.65.75-.08.83-.57.95-.08,1-.58,1,.41.71-.16.79.49.79-.16.83.57.71.08.92.57,1.2-.08,1.24,1.22,1,.49,1,1.06,1.33.49,1.33,1.31.62.82.79,1.14,1,.65,1.16,1.39.54,1,.79.62.46,1.09.67a18,18,0,0,0-2.55,3.79c-4.7,9.34-.65,19.83,15.8,23.53s28.84-7,30.88-12.88a14.59,14.59,0,0,0,.68-2.88c.94.22,1.94.43,3,.62,14.69,2.54,25.67-4.41,27.46-8.3S80.63,39.24,71.42,35.85Z"/>
        <path class="cls-2" d="M47.62,24.76c.24-.66-.25-.82-.17-1.81S47,21.89,47,21.89a9,9,0,0,0,.09-1.72c-.09-.49-.9-.57-.9-.57s-.17-.16-.17-1a2.58,2.58,0,0,0-.41-1.39s-.08-.74-.16-1.39a.5.5,0,0,0-.65-.49,4.43,4.43,0,0,1-.25-1c-.08-.58-.9-.74-.9-.74s-.16-.66-.25-1.23-.73-.41-.73-.41a3.67,3.67,0,0,1-.57-1.22c-.25-.82-1.31-.74-1.4-1.23s-1.3,0-1.47-.82-2.21-1.06-2.62-2-2-1.31-2.53-2.13-1.39-.24-2-.9-1.88-.41-2.53-1.31-1.8-.24-2.29-.82S25,1.11,24.46.62s-.73.58-1.14,0S21.6.38,21.6.38s-.74.08-1.06-.33-1.07,1.8-1.31,1.31-.74,2-1.15,1.55-.73,2-1.06,1.48S16.28,6.19,16,5.86s-.41,1.8-.74,1.39-.16,1.88-.65,1.55-.74,2.95-1.07,2.54-.16,1.55-.65,1.47-.09,1.64-.58,1.88-.08,2-.57,2,.41,1.39-.16,1.55.49,1.56-.17,1.64.58,1.39.09,1.8.57,2.37-.09,2.45,1.23,1.88.49,2.05,1.07,2.62.5,2.62,1.3,1.22.81,1.55,1.15,2,.66,2.29,1.39,1.06,1,1.55,1.72,1.48,1.31,1.8,1.31.9,1.06,1.39,1.48.9,1.31,1.48,2,1.22,1.88,1.8,1.15.08,1.31.81,2,.17,2.21.82.74.17,1.15.82,1.63.08,2.12.66,1.23-.17,2.05.08,1.06-.41,1.64-.25.81-.65,1.47-.73a3.47,3.47,0,0,0,1.47-1c.9.58,1.88-.9,1.88-.9h1a.51.51,0,0,0,.58-.49,11.47,11.47,0,0,0,1.23-.08c.65-.08.65-1,.65-1a10,10,0,0,0,1.15-.33,1.72,1.72,0,0,0,1-1.06,9.87,9.87,0,0,0,1.39-.9c.73-.57.73-1,.73-1a3.87,3.87,0,0,0,1.07-.74,4.78,4.78,0,0,0,.82-1.63,12.42,12.42,0,0,0,.9-1.07c.49-.65.08-1.88.08-1.88s.49-.57.82-1S47,27.7,47,27.7a4.18,4.18,0,0,0,.49-1.06,2,2,0,0,0-.24-1.31S47.37,25.41,47.62,24.76Z"/>
        <path class="cls-3" d="M43.61,27.21c-1.31-1-.49,1-1,1.72s-1.88.41-2.29-.17.49-.41.57-1.8-1,0-2.13,1-1.14.74-2.29.25-1.88-2.78-1.31-3.6,1.31,1.23,2.13,1.15.66-1.15,1-2.13,1.47.74,2.05,1.06L42.55,26c.81.49,2.37-1,2.7-2.78s-1.07-.41-2-.9.41-1.39,1.15-2.21.08-1.14-.17-2.78-.73-.74-2-1.06-.65,1.14-.82,1.88,0,2.45-.41,3-2.29.57-1.71-.33,0-1.47-1.15-1.88S37,20.17,36,20s-1.06-.65-1.72-2a2,2,0,0,1,.17-2.46c.41-.57,1.22,0,1.71.33a12.19,12.19,0,0,0,3.6.65c.74,0,2.05-1.39,2.05-2.86s-1.39-.82-1.39-.82-.82,1.56-2,1.89-1-.82-.66-1.48,1.15-.65,1.64-1.47,0-1-.82-2.45-.9-.17-1.47,1.06-2.13.24-2.38-.9.58-.82.74-1.8S34.94,6.68,34,6.27s-.58.9-.82,1.72-.49.57-1.56.49-.65-1.23-.16-1.64a1.75,1.75,0,0,0,.49-2.53c-.9-1.07-2.86,1.06-4.09,1.55s-.17-2-1.06-3.52-.9.66-1.31.9-1.23-1-1.39-1.55-1.15-.41-1.15-.41l-.16,2a.83.83,0,0,1-.9-.82c-.09-.9-1.07-.57-2.29,0s-.09,1.15.08,1.8.9,1.07,1.47,2.21-1.31,4.09-2.21,3.68S19,7.9,18.9,7s-1.06-.65-1.64-.32a1.46,1.46,0,0,0-.65,1.71c.25.58,1,.09,1.64,1.56s-.58,1.06-1.15.73-1-.32-1.63.33-.25.74.4,1.88,1.07.08,2.05.33.57,1.56.49,2.21a.85.85,0,0,1-1.47.41c-.41-.58-.41-.49-.49-.82s-1.23-.9-2-1-.49.33,1.47,2.37-.32.74-.73,1.64.33.81,1.06,1.22.57-.73,1.23-1.55,1.14,0,2,.82.41,2,.25,3.27-1.56,1-2.13.66.25-1,.33-2-.57-.66-1.39-.66.41,1.4-.17,2.13-1.06.58-1.79.33-.17-1,0-1.56a3.18,3.18,0,0,0-1-2.45c-.65-.57-1,.25-1.06,1.47s.74.58,1,2,.16,1.88-.57,2.7.82,1.79,1.72,2.29a2.25,2.25,0,0,1,.9,2.29c-.08.65-.41.41-1.07,1.55s1,1.31,2.13.82,1.06-.08,1.8,1.23-.25,1.88-1.06,2.61S18,36.37,19.72,37s-.16.4-.33.9.49.81.9.81.66-.41,1.8-1.31.82.58,1,1.07-.32,1.06.17,2.21,1.47.57,2.37-.33,1.47.57,2.29.82.33,1.22,1.56.9.4-.58,1.06-.9.82,1,1.72,1.14S34,40.05,34,40.05c-.17-.9,3.52-1.06,6.22-3.6s1.88-.57,2.78-1.55.49-.82-.33-1.88.65-1.15,1.64-1.64a4.29,4.29,0,0,0,2.12-4.17C46.31,25,44.92,28.19,43.61,27.21Z"/>
        <path class="cls-4" d="M43.53,30.73c.24-1.07.33-3.19-1.15-2.13s-2.29,3.11-3,2.21-2.21,1.06-.58-2.37,4.34-5.16,2.95-6.06-1.56-1-2.29.49-1.64,2.7-1.8,1.39,1.8-2.78.41-2.53-2,1.55-2.29.9-1.31-1.56.32-2.54,2.78-.16,3.11-1.8.82-1.72.33-2.37-.08-2.86-1.15-1.8-.57,2.21-2,2.62-3.11.33-2.7-1.31,1.31-3,.41-2.7c-.38.14-.7,1.14-1.19.32s-1,.74-1,2.21c-.08,2.54.49,4.18-.74,3.11s-2.37-.65-1.06-2.2,2.46-4.91,1.8-5.73-.9-1.31-1.72.33-1.14,2.78-1.55,2.12-1.39-1-.57-2.29,1.55-1.47,1-2.53-.74-2.38-1.89-1S25.77,10,25.61,8.8s.82-2,.41-3-1.8-3.11-2.21-1.56-.08,3.6-1.06,2.62-.58-2.13-1.64-2.21-2.21.66-1.72,1.88S20.86,8.31,21,9.38s.08,2.7-1.15,1.8-1.88-.41-1.39.65,1.15,2.37,2,1.88,1.71-1.47,2-.65.49,1.8-.33,1.63-1.39,0-2-.32-1.31-1.23-1.56-.17-.32,2.13.58,2.13,2-.08,2,.65-.24,1.56-1,1.23-.9-.9-1.64-.41-1.14.82-.32,1.72a4.59,4.59,0,0,0,2.12,1.64c.74.16,1.31-.5,2.87-.25s2.94-.33,2.7.9a2,2,0,0,1-2.21,1.55c-.74-.16-.9-1.06-2.29-1.14s-2.46.25-2.13,1.06,1.47,1.64-.16,1.31-2.21-.49-2,.41,1.15,2.62,1.64,2.78,2.13.33,2.7-.33.82-2.12,2.05-2,2.29-.16,1.63,1.07-2.29,2-1.06,2.12a3,3,0,0,0,2.53-.57c1-.57,2.7-.17,2.62,1.14A1.84,1.84,0,0,1,27.41,31c-.74.09-1-1.14-2.13-.57s-2.12,1.23-2.62.82.25-1.88-.57-2-1.39.74-2.12.66-.66-.9-1.81-.58a1.76,1.76,0,0,0-1.39,2.13c.17,1-.24,2.29.9,2.62s1.72-.57,2.38-.57,2,0,2,.9-1.47,1.39-.57,2,2,1.47,2.86,1.06,1.88,0,1.56,1-1.15,1.3-.41,1.71,3.11,1.88,3.6.41.57-3.84,1.47-3.27.08,1.31.57,2.62,0,2,1,1.31,3.37-1.69,3.91-.14c-.1-.26-.34-1.28,1.66-1.5,2.29-.24,4.91-1,4.58-2s-2-.25-1.64-2.21S43.53,30.73,43.53,30.73Z"/>
        <path class="cls-5" d="M38.11,13.43l0-.13S38.12,13.35,38.11,13.43Zm.26,23c1.8-1.8,4.34-6.79,4.34-6.79s-1.23,1.72-3.44,4.58a31.64,31.64,0,0,1-4,4.42L34,35.31a15.22,15.22,0,0,0,2.37-2.46c1.47-1.79,2.21-4.58,3.27-7s2.46-5.32,2.46-5.32a15.73,15.73,0,0,0-1.89,2.95c-.9,1.8-2,5-3.43,7.52a7.7,7.7,0,0,1-3.27,3.27s-.74-2-1.23-3.35-1.48-4.33-1.48-4.33A47.38,47.38,0,0,0,35,21.24a18.26,18.26,0,0,0,3.09-7.81,15.18,15.18,0,0,1-1.86,4.78,44.42,44.42,0,0,1-5.81,7.53L27.82,19a19.88,19.88,0,0,1,1.23-2.13c1.14-1.88,4.42-6.13,4.42-6.13a38.06,38.06,0,0,0-2.71,3.11c-1.55,2-3.35,4.33-3.35,4.33s-.08-.16-.41-1L25.69,14A25,25,0,0,0,28,11a11.65,11.65,0,0,0,1.48-4.25A9.15,9.15,0,0,1,28.15,9.7a23.12,23.12,0,0,1-2.87,3.36S24.63,11.42,24,9.54s-2.29-5.23-2.29-5.23.82,3.51,1.31,5,2.29,6.39,2.29,6.39a17.58,17.58,0,0,1-2.78-.74,32.74,32.74,0,0,0-5.32-.82s2.38.66,4.75,1.39,2.7.41,3.52,1,2,4.34,2,4.34-1.72-.49-6.05-1.47-5.16-1.8-5.16-1.8a8.19,8.19,0,0,0,4.17,2.37c2.87.73,7.2,1.63,7.2,1.63l1.8,3.77a28.28,28.28,0,0,0-4.5-.9,16.5,16.5,0,0,0-5.64.9,26.91,26.91,0,0,1,3.19-.25c2.21-.08,7,1.23,7,1.23l2.61,7s-1.55-.58-2.78-.91S25.45,31,22.17,29.83s-6.87-5.65-6.87-5.65a10.85,10.85,0,0,0,3.52,4.5c2.86,2.38,8.43,4.58,10.55,4.75s2.54,1.14,3.28,2.37a47,47,0,0,1,2,4.66s-.49-.33-1.55-1-3.28-1.23-6.63-2.21a31.92,31.92,0,0,1-6-2.45,13.89,13.89,0,0,0,3.19,2.29,32.11,32.11,0,0,0,7.2,2.29,4.64,4.64,0,0,1,3.76,2.78,4.13,4.13,0,0,1-.41,2.94l2.54-1.8a5,5,0,0,1-.57-1.55c-.41-1.39-.33-.65-.41-1.88S36.57,38.25,38.37,36.45Z"/>
        <g>
          <path class="cls-6" d="M56.21,21.25s-14.32,3.3-16,13.9S46.71,57.44,59.1,57.44,80.15,47.12,80.43,40.93,74.65,18.77,56.21,21.25Z"/>
          <path class="cls-7" d="M67.9,27.72c-3.07-2.81-3.3-4.68-4.81-4.82s-1.79.27-3,1.1-2.75,1-4.82.55-5.36,0-4,1,1.24,1.24,0,1.93c0,0-2.89,2.48-1.93,2.75s5.92-1.37,6.75.14,3.44,3.72,4.68,2.48,1.79-3.86,3-3.86S69.87,29.51,67.9,27.72Z"/>
          <path class="cls-8" d="M61,25.4a1.37,1.37,0,0,1,.85,1.52c-.26,1.06-2.9,1.65-4.09,1.32S56,28,56.27,26.66c0,0-1.39,1.78,1,2.37s5.48-.85,5.48-2.11S61,25.4,61,25.4Z"/>
          <path class="cls-9" d="M61,25.54a1.85,1.85,0,0,1-1.32,1.65c-1.32.46-2.18,1.18-3.36.13,0,0,.26,2.37,4.15,1.12S61,25.54,61,25.54Z"/>
          <path class="cls-10" d="M62.64,22.92a23,23,0,0,1-4.39,0c-1.24-.28-6.17,1.25-7,1.66s4.11.39,5.35.39a4.78,4.78,0,0,0,3.32-1.08A5.93,5.93,0,0,1,62.64,22.92Zm0,0,.38,0ZM50.26,29.33c-.49-.66,1.62-2.31,1.62-2.31-7,5,.6,3.11,1.55,2.77S51.06,30.4,50.26,29.33Zm16.6-.3c-.79-.19-2.61-1.42-3.7.07s-2.47,3.37-3.36,3.37a11.76,11.76,0,0,1-2.68-.63s2.28,2.41,3.77,1,2.47-3.66,3.66-3.66S67.65,29.23,66.86,29ZM68,27.85s-2.61-2.61-2.77-3.63-.77-1.48-1.06-1.19C62.9,24.31,68,27.85,68,27.85Z"/>
        </g>
        <g>
          <path class="cls-11" d="M44.24,34.74C37.52,25.78,27,26.6,27,26.6s-10.35-.68-18.17,9.69S.13,60.74,12.65,69.62s27.44-1.1,31.61-7.93S51,43.7,44.24,34.74Z"/>
          <path class="cls-12" d="M28.92,41.27c-.87-.31-3.39-.7-3.57-1.18s.38-3.29.53-4.5S26,32.15,25.12,33s-2.23,2.78-2.86,3.4-1.29.88-2,.2-2.65-3-3.17-3.34-.87-.1-1.15,1.48-.67,5.92-.67,5.92a35.69,35.69,0,0,0-3.93,1.07c-1.45.54-2.49,1.3-1.84,1.46s4.12,1.79,4.89,2,1,.28.9,1.43a7.12,7.12,0,0,0,.35,3.2c.33.67.33.25,1.05-.41a42.2,42.2,0,0,1,7.56-4.83l5.05-2.43C29.6,41.93,29.8,41.58,28.92,41.27Z"/>
          <path class="cls-13" d="M15.77,46.11c.29-1.44-1.11-1.44-2.61-1.75s-3-1-2.23-1.62a25.54,25.54,0,0,1,4.21-2c.48-.18-3.8,1.26-5.06,1.66s-1.4.63-.47,1,3.44,1.76,4.75,2.21.47.45.43,1.76a7.74,7.74,0,0,0,.83,3A10.9,10.9,0,0,1,15.77,46.11Zm3.94-8.27c.86.93,1.26.79,2.3-.18s1.44-1.94,2.82-3.06.9,2.41.9,2.41A26.74,26.74,0,0,0,26,33.94c0-1.39-.27-1.63-1.28-.72a33.46,33.46,0,0,0-2.83,3.48c-.59.7-.75.16-1.29-.31s-2.55-2.5-3.17-2.93a.73.73,0,0,0-1,.2C17.67,33.28,18.85,36.91,19.71,37.84Zm9.07,3c-.91-.39-3.09-.94-3.31-1.51a3.48,3.48,0,0,1,0-1.54c-.54,2.33-.67,2.91,1.08,3.31l2.73.63c-.83.27-3.1,1.41-4.59,2.08s-3.41,1.95-4.56,2.46a10.22,10.22,0,0,0-4.36,4.06,20.65,20.65,0,0,0,2.34-1.9,21.84,21.84,0,0,1,4.3-2.9A36.57,36.57,0,0,1,27.77,43a3.73,3.73,0,0,0,1.82-1.13C30.08,41.88,29.64,41.24,28.78,40.87ZM19.4,42.13c-.37,1.06.53,1.87,1.68,1.57s2.32-2.62.29-2.62C21.37,41.08,19.77,41.07,19.4,42.13Z"/>
          <path class="cls-14" d="M22.37,41.63c0,1.34-1.36,1.07-2.1.81s-1,.69-.67,1.09,1.1.67,2.11,0A1.74,1.74,0,0,0,22.37,41.63Z"/>
          <path class="cls-15" d="M26.16,33.38c0-1.48-.82-1.26-1.54-.4s-2.48,2.7-2.93,3.38-.86.26-1.47-.37a18.36,18.36,0,0,0-2.94-3c-1-.56-1.38.15-1.53,1.57s-.69,5.77-.69,5.77a13.2,13.2,0,0,0-2,.41A22.37,22.37,0,0,0,8.74,43l3.63,1.62c-2.9-1.3-2.65-1.63-1.26-2.19a18.87,18.87,0,0,1,4.19-1.19c.5,0,.61-.76.72-2.47s-.11-5.08.64-5.44,2,2.37,2.75,3.13,1.51,1.08,2.52.39A12.84,12.84,0,0,0,24.48,34c1-1.25,1.1-.94,1.25,0a47.11,47.11,0,0,1-.35,5.61A56.69,56.69,0,0,0,26.16,33.38Z"/>
        </g>
        <g>
          <path d="M57.12,36.33c1.88.66,1.82,1.51,1.82,1.51s-.38-.11-1.53.4a15.5,15.5,0,0,0-3,2.27,9.76,9.76,0,0,1,2-1.31,16.29,16.29,0,0,1,3.09-1,9.19,9.19,0,0,0,.25-1.34c.07-.7,0-2.7,0-2.7l-.46,3.17s-.07-.62-1.11-.92-3.83-1.58-3.83-1.58A7.07,7.07,0,0,0,57.12,36.33Zm6.3,1c.4-.15,3.17-1.13,5-.47a5.44,5.44,0,0,1,2.31,1.24,5.44,5.44,0,0,0-3.87-1.94c-2.5-.11-3.22.45-3.22.45A5.81,5.81,0,0,1,67,34.26c2.29-.6,2.9-.84,2.9-.84s-3.66.3-5,1.2a3.42,3.42,0,0,0-1.56,1.83,3.17,3.17,0,0,1-.68-1.65s-.18.28,0,1.32S63,37.49,63.42,37.34Zm-1.78,2.27c1.25.27,1.39.57,1.39.57s-1.5-2.76-3.49,0A2.52,2.52,0,0,1,61.64,39.61ZM53.71,24.1a4.49,4.49,0,0,1,2.47-.51s-3.36-1.64-4.32,3A5.86,5.86,0,0,1,53.71,24.1Zm-4,1.13a1.9,1.9,0,0,1,.77-1.49c-2.15,1.18-.54,3.31-.54,3.31A3.34,3.34,0,0,1,49.69,25.23Zm20.2,2.67s-.63-5.09-4.65-4.75A7.56,7.56,0,0,1,68.31,25,6,6,0,0,1,69.89,27.9Zm2.39-.19s1.6-1.2-.67-3.35a5.48,5.48,0,0,1,.72,1.55A4.35,4.35,0,0,1,72.28,27.71ZM59.18,45.66c-10.09-1.49-11.51-9.95-11.51-9.95a9.26,9.26,0,0,0,3.21,6.34s2,9.51,7.67,10.91C69.42,55.63,73,43.06,73,43.06s.15-.12,1.58-1.78a19.5,19.5,0,0,0,2.2-3.06s-.49.69-1.23,1.57A17.67,17.67,0,0,1,59.18,45.66ZM48.34,34.73S46,33.33,46,37.29a3.3,3.3,0,0,1,1-2C47.79,34.53,48.34,34.73,48.34,34.73ZM75.18,36.2a2.26,2.26,0,0,1,2.1.79A3.35,3.35,0,0,1,78,39.33S78.51,34.58,75.18,36.2Z"/>
          <path class="cls-16" d="M61.29,46.24c-6.45-.3-9.42-3.15-9.42-3.15s2.55,9.09,10.31,8,9.05-7.28,9.05-7.28A16.55,16.55,0,0,1,61.29,46.24Z"/>
          <path class="cls-17" d="M71.27,43.75a19.32,19.32,0,0,1-6.61,2.34,3.13,3.13,0,0,1,2.21,1.28,2.68,2.68,0,0,1,.31,1.89,10,10,0,0,0,3.22-3.35C71.4,43.94,71.27,43.75,71.27,43.75Z"/>
        </g>
        <g>
          <path class="cls-18" d="M26.45,53.44s1.78-3.22-.57-7.61-6-5.38-8.15-3.09-1.18,5.24.36,8.68C19.32,54.18,24,57.05,26.45,53.44Z"/>
          <path class="cls-18" d="M17,49.22c-.19-1.31-1.54-5.37-4.13-5.19-3,.21-5,5.75-3.29,10.17S14.82,57,15.65,56,17.7,54.08,17,49.22Z"/>
          <g>
            <path class="cls-19" d="M12.48,45.2c-2,.4-3.34,3.32-2.91,6.51s2.45,5.45,4.49,5,3.35-3.31,2.91-6.5S14.53,44.8,12.48,45.2ZM25.78,47c-1.54-3.25-4.55-5.08-6.72-4.1s-2.69,4.42-1.16,7.67,4.55,5.08,6.73,4.09S27.32,50.26,25.78,47Z"/>
            <path class="cls-20" d="M19.15,42.88a3.58,3.58,0,0,0-2,2.8c0-.18.27-.86,1.94-1.78a5.35,5.35,0,0,1,4.34,0A4.41,4.41,0,0,0,19.15,42.88Zm-6.69,2.3a3.57,3.57,0,0,0-2.25,2,5.49,5.49,0,0,1,2.36-1.48,4,4,0,0,1,2.69.63A3.18,3.18,0,0,0,12.46,45.18Z"/>
            <path d="M14,46.39a1.56,1.56,0,0,0-.51,2.13,2,2,0,0,0,.23.38,1.19,1.19,0,0,1,.44-.58c.43-.25.17.33.27,1,0,.09,0,.15.05.22a1.2,1.2,0,0,0,1,0A1.56,1.56,0,0,0,16,47.43,1.61,1.61,0,0,0,14,46.39Zm.86.89a.38.38,0,0,1-.47-.28.45.45,0,0,1,.37-.45.38.38,0,0,1,.46.29A.43.43,0,0,1,14.88,47.28Zm9.48-2.12A1.79,1.79,0,0,0,22.17,44a1.74,1.74,0,0,0-.56,2.38,2.13,2.13,0,0,0,.44.65,2,2,0,0,1,.2-.72c.27-.53.44.12.54.6a2.45,2.45,0,0,0,.31.7,1.16,1.16,0,0,0,.69-.08A1.73,1.73,0,0,0,24.36,45.16ZM23.1,45a.43.43,0,0,1-.54-.33A.5.5,0,0,1,23,44.1a.44.44,0,0,1,.54.33A.51.51,0,0,1,23.1,45Z"/>
            <path d="M18.94,31.64c-2.49.42-3,3.21-3,3.21s1.55-2.16,3.29-2.32c2.11-.2,4.7,2.56,4.7,2.56S21.42,31.22,18.94,31.64ZM8.78,34.8c-1.53.81-1.66,3.45-1.66,3.45s.69-4.57,5.32-2.5C12.44,35.75,10.31,34,8.78,34.8Z"/>
            <path d="M36.45,51.42c-2.81-1-3.89.91-4.83,5s-4.7,7.72-10.17,9c-4.56,1.11-11.33.49-11.33.49s4.82.73,6.19,1,3.09,1.28,5.76,2.42,11.19.73,15.39-4.77S39.25,52.4,36.45,51.42Zm3.38-1.15s-1.34-2.88-3.22-2.85-4.45,2-4.45,2a7.86,7.86,0,0,1,3.59-1.34C38.07,47.76,39.83,50.27,39.83,50.27Z"/>
            <path class="cls-21" d="M38.73,56.7c-.71-1.5-2.36-1.93-2.5-.69a8,8,0,0,0,.46,2.88,2.43,2.43,0,0,1-1.52-2.26s-2.19,4,.67,4.42S39.44,58.2,38.73,56.7Z"/>
            <path class="cls-16" d="M35.3,60.39a1.61,1.61,0,0,0,1.78.27,3,3,0,0,0,1.5-1.89C37.62,60.12,35.3,60.39,35.3,60.39Z"/>
            <path class="cls-16" d="M32.24,55.18c-2.59,11-13.44,10.9-13.44,10.9a8.62,8.62,0,0,1,1.59.77c1.19.67,6.33,2,10.87-3.33S32.24,55.18,32.24,55.18Z"/>
            <path class="cls-17" d="M32.21,55.11a16.47,16.47,0,0,1-.7,2.38,19.42,19.42,0,0,1-1.8,3.2s.22-.07.58-.6,1.31-2.2,2.13-2.46,1.16.74,1.16.74A4.25,4.25,0,0,0,32.21,55.11Z"/>
          </g>
        </g>
      </g>
    </g>
  </g>
</svg>
