<svg xmlns="http://www.w3.org/2000/svg" xmlns:xlink="http://www.w3.org/1999/xlink" viewBox="0 0 132.06 116.56">
  <defs>
    <style>
      .cls-1 {
        fill: url(#linear-gradient);
      }

      .cls-10, .cls-11, .cls-12, .cls-17, .cls-2, .cls-20, .cls-23, .cls-24, .cls-3, .cls-4, .cls-5, .cls-7, .cls-8, .cls-9 {
        fill-rule: evenodd;
      }

      .cls-2 {
        fill: url(#radial-gradient);
      }

      .cls-3 {
        fill: url(#radial-gradient-2);
      }

      .cls-4 {
        fill: url(#radial-gradient-3);
      }

      .cls-5 {
        fill: url(#radial-gradient-4);
      }

      .cls-6 {
        fill: url(#radial-gradient-5);
      }

      .cls-7 {
        fill: url(#linear-gradient-2);
      }

      .cls-8 {
        fill: url(#linear-gradient-3);
      }

      .cls-9 {
        fill: url(#radial-gradient-6);
      }

      .cls-10 {
        fill: url(#radial-gradient-7);
      }

      .cls-11 {
        fill: url(#radial-gradient-8);
      }

      .cls-12 {
        fill: url(#radial-gradient-9);
      }

      .cls-13 {
        fill: #bccc53;
      }

      .cls-14 {
        fill: #92ae45;
      }

      .cls-15 {
        fill: url(#Novй_polниko_pшechodu_2);
      }

      .cls-16 {
        fill: url(#radial-gradient-10);
      }

      .cls-17 {
        fill: url(#radial-gradient-11);
      }

      .cls-18 {
        fill: url(#radial-gradient-12);
      }

      .cls-19 {
        fill: #1a171b;
      }

      .cls-20, .cls-21 {
        fill: #fff;
      }

      .cls-22, .cls-24 {
        fill: #a7d5e7;
      }

      .cls-23 {
        fill: #e32528;
      }
    </style>
    <linearGradient id="linear-gradient" x1="64.58" y1="-57.38" x2="64.58" y2="-30.28" gradientTransform="translate(2.87 146.66)" gradientUnits="userSpaceOnUse">
      <stop offset="0" stop-color="#fff"/>
      <stop offset="1" stop-color="#c8c1c1"/>
    </linearGradient>
    <radialGradient id="radial-gradient" cx="211.84" cy="23.08" r="23.15" gradientTransform="translate(-189.12 71.66)" gradientUnits="userSpaceOnUse">
      <stop offset="0" stop-color="#e2001a"/>
      <stop offset="1" stop-color="#791215"/>
    </radialGradient>
    <radialGradient id="radial-gradient-2" cx="208.23" cy="20.33" r="20.96" gradientTransform="translate(-189.12 71.66)" gradientUnits="userSpaceOnUse">
      <stop offset="0" stop-color="#e2001a"/>
      <stop offset="0.21" stop-color="#de011a"/>
      <stop offset="0.4" stop-color="#d30319"/>
      <stop offset="0.59" stop-color="#c10618"/>
      <stop offset="0.77" stop-color="#a70a17"/>
      <stop offset="0.94" stop-color="#861016"/>
      <stop offset="1" stop-color="#791215"/>
    </radialGradient>
    <radialGradient id="radial-gradient-3" cx="258.76" cy="20.26" r="25.76" xlink:href="#radial-gradient"/>
    <radialGradient id="radial-gradient-4" cx="254.17" cy="17.98" r="36.88" xlink:href="#radial-gradient-2"/>
    <radialGradient id="radial-gradient-5" cx="35.34" cy="-61.16" r="26.09" gradientTransform="translate(2.87 146.66)" gradientUnits="userSpaceOnUse">
      <stop offset="0" stop-color="#791215"/>
      <stop offset="0.26" stop-color="#b51621"/>
      <stop offset="0.66" stop-color="#f4b4c2"/>
      <stop offset="0.74" stop-color="#f7c6cf"/>
      <stop offset="0.91" stop-color="#fbe2e3"/>
      <stop offset="1" stop-color="#fdedeb"/>
    </radialGradient>
    <linearGradient id="linear-gradient-2" x1="203.33" y1="9.28" x2="200.19" y2="29.35" gradientTransform="translate(-189.12 71.66)" gradientUnits="userSpaceOnUse">
      <stop offset="0.02" stop-color="#f4b4c2"/>
      <stop offset="0.15" stop-color="#f195a5"/>
      <stop offset="0.45" stop-color="#eb566a"/>
      <stop offset="0.7" stop-color="#e6273f"/>
      <stop offset="0.89" stop-color="#e30b24"/>
      <stop offset="1" stop-color="#e2001a"/>
    </linearGradient>
    <linearGradient id="linear-gradient-3" x1="253.56" y1="12.26" x2="259.73" y2="37.15" gradientTransform="translate(-189.12 71.66)" gradientUnits="userSpaceOnUse">
      <stop offset="0.02" stop-color="#f4b4c2"/>
      <stop offset="0.06" stop-color="#f198a8"/>
      <stop offset="0.11" stop-color="#ed7082"/>
      <stop offset="0.18" stop-color="#ea4d62"/>
      <stop offset="0.24" stop-color="#e73148"/>
      <stop offset="0.31" stop-color="#e51b33"/>
      <stop offset="0.39" stop-color="#e30c25"/>
      <stop offset="0.47" stop-color="#e2031d"/>
      <stop offset="0.6" stop-color="#e2001a"/>
      <stop offset="0.73" stop-color="#d7021a"/>
      <stop offset="1" stop-color="#811518"/>
    </linearGradient>
    <radialGradient id="radial-gradient-6" cx="247.38" cy="7.95" r="36.81" gradientTransform="translate(-189.12 71.66)" gradientUnits="userSpaceOnUse">
      <stop offset="0" stop-color="#fdfeff"/>
      <stop offset="0.23" stop-color="#f1a9b0"/>
      <stop offset="0.7" stop-color="#e2001a"/>
      <stop offset="1" stop-color="#791215"/>
    </radialGradient>
    <radialGradient id="radial-gradient-7" cx="207.65" cy="24.98" r="18.26" gradientTransform="translate(-189.12 71.66)" gradientUnits="userSpaceOnUse">
      <stop offset="0" stop-color="#e2001a"/>
      <stop offset="1" stop-color="#b3616a"/>
    </radialGradient>
    <radialGradient id="radial-gradient-8" cx="239.98" cy="-68.35" r="11.73" gradientTransform="translate(-189.12 71.66)" gradientUnits="userSpaceOnUse">
      <stop offset="0" stop-color="#a36e47"/>
      <stop offset="0.22" stop-color="#a16a45"/>
      <stop offset="0.43" stop-color="#9c5f3f"/>
      <stop offset="0.62" stop-color="#944d35"/>
      <stop offset="0.81" stop-color="#883327"/>
      <stop offset="1" stop-color="#791215"/>
    </radialGradient>
    <radialGradient id="radial-gradient-9" cx="235" cy="-63.37" r="11.93" gradientTransform="translate(-189.12 71.66)" gradientUnits="userSpaceOnUse">
      <stop offset="0" stop-color="#bb7346"/>
      <stop offset="0.29" stop-color="#b87042"/>
      <stop offset="0.55" stop-color="#af6837"/>
      <stop offset="0.8" stop-color="#a15a25"/>
      <stop offset="1" stop-color="#914b11"/>
    </radialGradient>
    <radialGradient id="Novй_polниko_pшechodu_2" data-name="Novй polниko pшechodu 2" cx="265.83" cy="-61.88" r="42.47" gradientTransform="translate(-180.61 75.42) rotate(-2.85)" gradientUnits="userSpaceOnUse">
      <stop offset="0.01" stop-color="#94a981"/>
      <stop offset="0.28" stop-color="#92a673"/>
      <stop offset="0.79" stop-color="#8c9e4f"/>
      <stop offset="1" stop-color="#899a3e"/>
    </radialGradient>
    <radialGradient id="radial-gradient-10" cx="260.06" cy="-62.4" r="44.31" gradientTransform="translate(-180.61 75.42) rotate(-2.85)" gradientUnits="userSpaceOnUse">
      <stop offset="0.01" stop-color="#94a981"/>
      <stop offset="0.35" stop-color="#899a3e"/>
      <stop offset="1" stop-color="#436b2d"/>
    </radialGradient>
    <radialGradient id="radial-gradient-11" cx="80.98" cy="-114.59" r="20.92" gradientTransform="translate(11.38 150.42) rotate(-2.85)" gradientUnits="userSpaceOnUse">
      <stop offset="0" stop-color="#2b5521"/>
      <stop offset="0.98" stop-color="#4e7924"/>
    </radialGradient>
    <radialGradient id="radial-gradient-12" cx="279.25" cy="-35.8" r="29.05" xlink:href="#Novй_polниko_pшechodu_2"/>
  </defs>
  <g id="Шар_2" data-name="Шар 2">
    <g id="Vrstva_2" data-name="Vrstva 2">
      <g>
        <g>
          <path class="cls-1" d="M132,99.13a1.65,1.65,0,0,0-.81-.39s.54-.21.13-.54a6.54,6.54,0,0,0-1.21-.67s.3-.36-.18-.65a8.62,8.62,0,0,0-1.49-.59s.53-.31-.18-.61a5.72,5.72,0,0,0-1.38-.37,4,4,0,0,0-.76-.43,1.15,1.15,0,0,0-.53-.11s0-.27-.39-.4a6.71,6.71,0,0,0-1-.22s.07-.17-.38-.27a5.78,5.78,0,0,0-.89-.14,4.27,4.27,0,0,0-1.25-.39l-1.09-.19a3.13,3.13,0,0,0-1.3-.42l-1.15-.2s-.93-.22-1.71-.32l-.91-.12a4.8,4.8,0,0,0-1.26-.37,8.58,8.58,0,0,0-1.32-.1,5.28,5.28,0,0,0-1.16-.35,13.46,13.46,0,0,0-1.65,0L108.4,91a8.33,8.33,0,0,0-1.56-.07,3,3,0,0,0-1.24-.31,14.34,14.34,0,0,0-1.52-.11,13.21,13.21,0,0,0-1.82-.36c-.84-.09-1.62-.1-1.62-.1s-.89-.14-1.78-.24a9.32,9.32,0,0,0-1.67,0,19.53,19.53,0,0,0-3.8-.38s-1.23-.08-2.59-.11a10.69,10.69,0,0,0-1.86,0s-1.74-.11-3.09,0-1.77.1-1.77.1a13.3,13.3,0,0,0-1.73,0c-.79.07-1.35.18-1.35.18s-1.3,0-2.33.18a10.53,10.53,0,0,0-1.53.28,10.75,10.75,0,0,0-2.07.17,17.4,17.4,0,0,0-1.83.36s-.87.05-1.47.15l-2.1.32c-1.14,0-3.2-.11-6.72-.29a30.47,30.47,0,0,1-6.79-.84,7.63,7.63,0,0,0-2.8-.06,12.21,12.21,0,0,0-1.54.16c-1.1.19-.11.27-.19.68s-1.24,1.24-1.56,1.5c0,0,0,0,0,0h0a48.55,48.55,0,0,1-5.33,1.87c-3.62,1.1-13.42,5-16.36,7.15a19.33,19.33,0,0,0-3,2.69c-1.06,0-2.09.13-3.07.23,0,0-12.59,1.24-17.43,4.06s0,5.72,7.93,6.43c8.12.72,18.6.11,24-1.8s9.6-4.35,5.95-6.62c-2.55-1.59-8.39-2.35-14.06-2.38a30.74,30.74,0,0,1,7.54-5,102.75,102.75,0,0,1,12.74-4.63c2.71-.84,4.65-1.38,4.65-1.38l-.05,0,.21.06a3.82,3.82,0,0,0,1.48,0h0s1.55.41,4.83,3.48,6.55,6,7.6,7.12,1,1.42.5,1.71l-.34.2c-2.47,0-11.23.22-14.83,1-4.18.94-8.68,2.46-5.36,5.66s13.7,4.27,18.66,4.24,7.13,0,9.44.06a87.15,87.15,0,0,0,14.89-1.46c4.4-1,10.81-3.51,9.6-5.85s-8.22-4.25-14.42-4.38c-3.89-.09-7.45.15-11,.37l-.41-.13a7.88,7.88,0,0,1-3.12-1.81c-1.28-1.15-7.49-6.72-9-7.87s-3.86-2.71-4-2.91a.68.68,0,0,1-.11-.19c.09-.08.08-.19,0-.4a7.25,7.25,0,0,1-.36-.66c2.17.13,5,.15,7.11.34,2,.18,3.76.32,4.85.4a5.5,5.5,0,0,1,1.91.75c.56.46.48.93.92,1a2.41,2.41,0,0,0,.69,0A3.28,3.28,0,0,0,75,95.24a6.18,6.18,0,0,0,2.1.45A6.3,6.3,0,0,0,79.16,97a2.89,2.89,0,0,0,.92,0s0,.33,1,.57a8.4,8.4,0,0,0,1.44.28,1.83,1.83,0,0,0,1.22.82,3.94,3.94,0,0,0,1.43.19,13.28,13.28,0,0,0,1.85.73c.93.26,1,.31,1,.31a2.56,2.56,0,0,0,1.27.59,10.28,10.28,0,0,0,1.62.23s1,.4,2,.66a12.45,12.45,0,0,0,1.92.34,5.45,5.45,0,0,0,1.89.69,10.51,10.51,0,0,0,2.06.22,16.4,16.4,0,0,0,2.28,1,4.54,4.54,0,0,0,1.41.21,2.66,2.66,0,0,0,1.51.69l1.36.19a2.89,2.89,0,0,0,1.2.52,7.38,7.38,0,0,0,1,.12,3.86,3.86,0,0,0,1.37.57,7.76,7.76,0,0,0,1.48.19,3.89,3.89,0,0,0,1.63.66,3.8,3.8,0,0,0,1.06.06,8,8,0,0,0,1.37.24l1.07.08a11.25,11.25,0,0,0,1.7.17,4.1,4.1,0,0,0,.94,0,4.75,4.75,0,0,0,1.41.1,10.77,10.77,0,0,0,1.5-.15,10.52,10.52,0,0,0,1.67-.28l.63-.2a14,14,0,0,0,1.84-.41,1.92,1.92,0,0,0,.55-.29,6.9,6.9,0,0,0,1.68-.55,2.48,2.48,0,0,0,.39-.39,8.46,8.46,0,0,0,1.35-.43,1,1,0,0,0,.62-.68,1.65,1.65,0,0,0,.63-.39c.31-.29.14-.41.14-.41s.63-.32.61-.7,0-.49,0-.49.47-.28.37-.61-.26-.37-.26-.37a2.18,2.18,0,0,0,.51-.83c.06-.35-.1-.36-.1-.36S132.25,99.43,132,99.13ZM51.08,92.3h0Z"/>
          <path class="cls-2" d="M46.53,79.12c-4.47-8.17-18.34-10.9-28-9.29,0,0-13.25,2.14-17.41,15.24s4.56,25.81,15.14,28.33,22.16-.75,27.2-8.56S51.81,88.75,46.53,79.12Z"/>
          <path class="cls-3" d="M29.23,97.82c-1-5.79-2.78-8-2.78-10.48s0-2.6-3.26-2.6-9.06-7.3-11.07-5.29c0,0-8.42,1.16-8.65,9.2-.34,11.78,7.65,15.71,13.93,16.72S30.24,103.61,29.23,97.82Z"/>
          <path class="cls-4" d="M104.46,89.08c-1.25-8.44-7.68-16.25-13.6-17s-11,1.76-16.74,2.14c0,0-11.71,0-15.87,3.9s-8.43,10.2-3.4,23.17,15.74,15.61,20.28,15.23a62.27,62.27,0,0,1,8.81-.37c2.14.12,9.32-2.27,13-5.92S105.72,97.51,104.46,89.08Z"/>
          <path class="cls-5" d="M97.38,79.54C92.85,73,85.62,79,80.09,81S64.67,74.76,61.4,80.3c0,0-7.3,6-1.51,19.12S78.51,119.3,89.58,110,101.91,86.08,97.38,79.54Z"/>
          <path class="cls-6" d="M3.78,88.8s0-.25,0-.69A1.13,1.13,0,0,0,3.78,88.8ZM30.93,70.46c-10-1.87-17.2.59-22.61,6.25a16,16,0,0,0-4.59,11.4c.12-.7.64-2,2.57-4.22,3.28-3.78,7.55-1.26,13.35,1.13s8.06-.75,8.06-.75-2.38,1.39-8.57-.89c-4.78-1.76-3.9-4.9-2.64-5.16s2.27-.63.75-2-3.77-3,3.13-4.71c7.05-1.69,16.26.93,15.89,6.85S32.69,83.63,29.54,86c0,0,8-.62,11.62-5.33C43.13,78.11,41.75,72.48,30.93,70.46ZM29.47,81.29c4.28-2,3-5.41,2.14-6S31.23,76,31,77.9A7.53,7.53,0,0,1,29.47,81.29Z"/>
          <path class="cls-7" d="M8.32,85.45s-4.66,1.89-3,8.94,10.32,7.8,13.34,3.9S17.89,82.93,8.32,85.45Z"/>
          <path class="cls-8" d="M63.47,82.43s-7.31,3.9-4.28,12.84,12,8.69,14.6,3.9S72.78,77,63.47,82.43Z"/>
          <path class="cls-9" d="M91.11,76.91a13.1,13.1,0,0,1-13.29,4.15c-5.54-1.26-10-7.19-16.22-1.39a13.74,13.74,0,0,0-4.28,9.68s4.76-12.8,14.35-8.06C85.51,88.13,92.53,75.19,91.11,76.91Z"/>
          <path class="cls-10" d="M32.49,111.89c-3,.55-19.77,2.52-27.07-10.45s-1-22.79-1-22.79C-3.52,87-1,107.1,13.88,112.7c14,5.27,23.17-1.93,23.17-1.93A26.33,26.33,0,0,1,32.49,111.89Z"/>
          <path class="cls-11" d="M57.8,10.91C57.3,8.64,57,7.38,57,7.38c-.5-3.27-3.65-7.3-4.28-7.17s-2.14-.26-3.4.5,0,1.39.13,3.53-.88,6.17-1.13,7.42.37.26,1.38.63,2.77,2.65,3.4,3.4,1,.51,1.89.26a4.94,4.94,0,0,0,2.39-1.89C58.05,13.18,58.3,13.18,57.8,10.91Z"/>
          <path class="cls-12" d="M50.62.46c-1.38-.13-2,.25-1.89,3.15a19.13,19.13,0,0,1-.37,6.29c-.51,1.89-.51,1.89.37,2.39s2.14,1.89,2.77.13,1-9.07,1-9.07S52,.59,50.62.46Z"/>
          <path class="cls-13" d="M51.39,13.14a10.75,10.75,0,0,0-3.1-1.29,48.82,48.82,0,0,1-5.57,8.54c-3.88,4.91-13.84,23-16.17,33.13s-1.82,15.92-3.37,19.67S21.41,76,20.5,76.64s-.26,2.07,1,3.24,3.09,1.27,5.55.49,1.77-1.39,1.13-2.55-.89-.88-.37-5.54S30.3,53,35,42.65A100.1,100.1,0,0,1,48,21.68C50.88,17.93,53,15.6,53,15.6A5.64,5.64,0,0,0,51.39,13.14Zm31.44,62.8c-.39-1.1-1.62-2.07-2.78-3.5s-2.2-3.36-3.63-7.63S66.33,34.52,64.13,28.7,58.56,14.85,58.3,13.81A7.15,7.15,0,0,1,58,12.52s-.9,2.72-3.1,3.37c0,0,2.07,2.46,7.12,17.72S71.37,61.44,72.8,66.1s1.43,6.39,1.47,7.62c.08,2.52-1.26,3.22-1.26,3.22.17.37.32,1,3.32,1.36S83.31,77.27,82.83,75.94ZM72.36,14.18c-1.42-3.89,3.36,0,3.36,0S74.17,12.49,73,11.46s-.91-.65-.52-1.43,0-.26-1-.13S68,9,63,7.06a18.86,18.86,0,0,1-8.41-5.83,2.93,2.93,0,0,0-3.75-.9c-.78.26.51,2.59,3,5.17s7.9,3.11,11.65,5.18S72.36,14.18,72.36,14.18Z"/>
          <path class="cls-14" d="M35,37.85C30.1,48.56,27.2,61.78,26.2,67.07S24.45,78.9,23.69,79.78s2.28,1,3.29.44,2-.59,1.72-1.47-1.62.53-.87-8,3.4-17.25,7.43-28.21S52.89,15.44,52.89,15.44C48.36,17.58,39.92,27.15,35,37.85ZM78.2,69.46c-1.26-2.9-3.28-8.94-7-20.15S57.93,12.8,57.93,12.8l-.38.88s3.65,10.45,6.17,16.87,10.7,32,11.46,35.76S78.1,75,79.45,76.14c1.77,1.56,3.49.87,3.48,0S79.46,72.35,78.2,69.46ZM72.66,15.19s-1.64-2.77-1-2.64a9.89,9.89,0,0,0,1.51.12S66,9.78,63.21,8.77s-8.56-3.15-10.07-6S50.5-.3,50.75,1a16.89,16.89,0,0,0,5.67,6.8c3.77,2.39,10.57,3.65,13.09,5.16A14.3,14.3,0,0,1,72.66,15.19Z"/>
          <path class="cls-15" d="M120,58.77l2.09,1.95-1-3,.74,1-.31-3.94.4.83-.48-3.19.3.09-1-3.41.48.48-.83-2.93.48.52-.83-3,.61.2-1.22-3,.5.1-.86-2.47.49.44-1.62-2.89.57.23-1.36-2.33.57.36-1.62-3.06.79.74L115,29.89l.74.35-1.36-1.92.4,0-1.1-1.27.44-.08-1.22-.88.39-.17-1.35-1.49.34-.09-1.13-1.31h.52L110,21.57l.54,0-2.63-1.88.74.05-2.22-1.1.54-.54-1.86-.59.49-.53-1.8-.7.48-.54L102.71,15l.75,0-2.36-.85.78-.33-2-.5.91-.42-2.58-.81L99,12l-2-.79L98,11l-2.14-.67.5-.44-2.25-.79L95,9,92.83,8.3,93.55,8l-2.46-.35.63-.57-2.21,0L90,6.52l-2.45.11.68-.76-2.6.33,1-.72-2.89.19L84,5.15l-1.75.35.35-.61-1.75.78V5a3.19,3.19,0,0,0-1.07.56A5.26,5.26,0,0,0,77.85,6a3.23,3.23,0,0,0-1.2.91,2.05,2.05,0,0,0-1.73.38,6.36,6.36,0,0,0-1.44,1.17,3.4,3.4,0,0,0-1.23.41c-.48.33-2.08,1.21-2.08,1.21s-1,.54.74,2.7A18.07,18.07,0,0,1,72.55,16l.35,2,.61-.17.74,2.66.13-.83,1,2.58.13-.83,1.18,3.06.13-.79,1.14,3,.09-.48,1.4,3.06.08-.7L81,32l.13-.78,1.4,3.41.13-.66,1.23,2.49V35.4l1,3,.48-.43,1.18,2.93.18-1,.7,2.19.17-.61.83,1.92.14-.61,1,1.74v-.78l1.44,2.36.13-.7.92,1.7-.13-.83,1.74,2.28-.26-1.32,2.1,2.72.09-.62,1.66,1.93v-.7l1.53,2.14,0-.57,1.57,1.66-.17-.78,2.18,1.66-.39-.79,2.88,2.06-.39-.92,2.62,1.79-.26-.66L109,57.7l-.26-.61,2.36.87-.26-.79,2.88,1.49-.26-.53,2.62,1.1-.26-.66,2.45.62-.79-.71,3,1.27Z"/>
          <path class="cls-16" d="M120,58.25l2.09,2-1-3,.74,1-.31-3.93.4.83-.48-3.19.3.09-1-3.42.48.49-.83-2.93.48.52-.83-3,.61.19-1.22-3,.5.11-.86-2.47.49.44-1.62-2.89.57.22L117.14,34l.57.36-1.62-3.06.79.74L115,29.37l.74.35-1.36-1.93.4.05-1.1-1.27.44-.09-1.22-.87.39-.18L111.9,24l.34-.09-1.13-1.31h.52L110,21.05l.54,0-2.63-1.88.74,0-2.22-1.09.54-.55L105.07,17l.49-.52-1.8-.7.48-.55-1.53-.68.75,0-2.36-.85.78-.32-2-.51.91-.41-2.58-.81.75-.18-2-.78.92-.2-2.14-.68.5-.43-2.25-.79L95,8.43l-2.17-.66.72-.26-2.46-.35.63-.57-2.21,0L90,6l-2.45.11.68-.77-2.6.33,1-.72-2.89.2L84,4.62,82.25,5l.35-.61-1.75.79V4.51a3.08,3.08,0,0,0-1.07.55,5.38,5.38,0,0,0-1.92.4,3.27,3.27,0,0,0-1.2.9,2.09,2.09,0,0,0-1.73.39,6.36,6.36,0,0,0-1.44,1.17,3.4,3.4,0,0,0-1.23.41c-.48.32-2.08,1.2-2.08,1.2s-.37.21-.25.89c-.21-.08-.43-.17-.7-.25-1.24-.4-7.15-1.91-7.15-1.91s2.85.9,4.88,1.61a18.31,18.31,0,0,1,3.57,1.84c.11.16.24.34.39.53a17.75,17.75,0,0,1,1.64,3.22l.35,2,.61-.18L74.25,20l.13-.83,1,2.58.13-.83L76.7,24l.13-.79,1.14,3,.09-.49,1.4,3.07.08-.7L81,31.51l.13-.79,1.4,3.41.13-.65L83.92,36V34.88l1,3,.48-.44,1.18,2.93.18-1,.7,2.18.17-.61.83,1.92.14-.61,1,1.75v-.79l1.44,2.36.13-.69.92,1.7-.13-.83L93.79,48l-.26-1.31,2.1,2.71.09-.61,1.66,1.92V50l1.53,2.15,0-.57,1.57,1.66-.17-.79,2.18,1.66-.39-.78,2.88,2.05-.39-.92,2.62,1.8-.26-.66,2.1,1.57-.26-.61,2.36.88-.26-.79,2.88,1.48-.26-.52,2.62,1.09-.26-.65,2.45.61-.79-.7,3,1.27Z"/>
          <path class="cls-17" d="M97.3,27.06c.46.1.74.13.74.13A3.86,3.86,0,0,0,97.3,27.06Zm13.14,14.69C105.72,35.63,100,30.83,97.66,28.62c-1.47-1.37-1-1.59-.36-1.56a10.15,10.15,0,0,1-2.07-.71c-1.61-.74-6.83-4.89-7.56-6.13S92,19.41,92,19.41s-1.21-.32-3-.75-5.76-1.44-7.3-2.33-1.34-1.43-.39-1.78a23.59,23.59,0,0,1,4.4-.37,28.47,28.47,0,0,0-5.21-1c-3.24-.36-5.54-1.59-5.82-2.7s5.09-1.3,5.09-1.3S75.58,8.78,75,8s1.21-1.26,2.45-1.69a17.75,17.75,0,0,0,3-1.57,4.81,4.81,0,0,0-.66.1,54.65,54.65,0,0,0-5.49,2.52,22,22,0,0,1-3.86,2c-.72.71.27,1,1.8,1.7s19.81,13.3,29.37,22A76.63,76.63,0,0,1,116.39,51.7S115.15,47.87,110.44,41.75Z"/>
          <path class="cls-18" d="M88.41,8.12s-9.17.16-13.62,2c0,0,4.35-.82,8-1.35S88.41,8.12,88.41,8.12Zm3.3,5.32c3.89-.09,4.94,0,4.94,0s-10.36-.68-15.34,1.51A76.64,76.64,0,0,1,91.71,13.44ZM108.07,22l.08,0Zm0,0c-.79-.34-9.46-3.85-18-2.71a83.08,83.08,0,0,1,11.38,1.08A37.1,37.1,0,0,1,108.07,22Zm2.1,7.37c1.19.51,1.88.89,1.88.89A9.87,9.87,0,0,0,110.17,29.39ZM95.62,26.77A76.8,76.8,0,0,1,106,28.14a30.76,30.76,0,0,1,4.21,1.25A31.42,31.42,0,0,0,95.62,26.77Zm10.73,6.09c-1.07-.11-3-.33-4-.46,2.12.32,6.48,1.29,6.48,1.29A5.28,5.28,0,0,0,106.35,32.86Zm-4-.46c-.34,0-.62-.08-.82-.09Zm6.87,3.12a37.21,37.21,0,0,0-4.44-.54c2,.19,6.32,1.24,6.32,1.24A5.83,5.83,0,0,0,109.17,35.52ZM104.36,35h0Zm10.24,6.42a8.06,8.06,0,0,0-1.54-1,26.41,26.41,0,0,0-5.22-1.64A44.38,44.38,0,0,1,114.6,41.38Zm-9.66-4.8a118.85,118.85,0,0,1,4.47,12.69A46.63,46.63,0,0,0,107.7,43C106.6,40,104.94,36.58,104.94,36.58Zm-3.23-.43a36.2,36.2,0,0,0-2.63-5S100.3,33.26,101.71,36.15Zm0,0c2.61,5.83,5,13.25,5,13.25a45.14,45.14,0,0,0-2.35-7.21C103.57,40.09,102.6,38,101.71,36.15Zm-9.6-9.21c3,6.07,7.44,17.71,7.44,17.58a71.77,71.77,0,0,0-3.23-8.76C94.93,32.5,93.23,29.09,92.11,26.94Zm0,0c-.43-.88-.83-1.64-1.18-2.23C90.93,24.71,91.4,25.57,92.11,26.94Zm-10-8.58c-.33-.49-.57-.81-.67-.94C81.7,17.7,81.93,18,82.15,18.36Zm0,0c2.84,4.34,6,13.07,6,13.07a46.59,46.59,0,0,0-2.59-6.86A41.35,41.35,0,0,0,82.15,18.36Zm0,7.88s0-1.45-2-5.69Z"/>
          <g>
            <path class="cls-14" d="M30.64,44.84a42.55,42.55,0,0,0-1.75,5.37,24.61,24.61,0,0,0-1.07,5A34,34,0,0,0,30.64,44.84Z"/>
            <path class="cls-14" d="M34.93,36.11s-1.07,3-1.74,4.3a11.51,11.51,0,0,0-.81,1.88A29.36,29.36,0,0,1,34.93,36.11Z"/>
            <path class="cls-14" d="M24.46,72.36A27.72,27.72,0,0,1,23,77.06a15.49,15.49,0,0,1-1.35,2.68A10.55,10.55,0,0,0,24.46,72.36Z"/>
            <path class="cls-14" d="M43,22.15a16.72,16.72,0,0,1,1.88-3.22,13.23,13.23,0,0,1,1.88-2.15S44.2,20.27,43,22.15Z"/>
            <path class="cls-14" d="M61.65,28.33s.94,2.68,1.74,4.83S63.26,31.15,61.65,28.33Z"/>
            <path class="cls-14" d="M68.9,49.67s.13-.54,1.74,4,1.35,4,1.35,4S69.84,52.22,68.9,49.67Z"/>
            <path class="cls-14" d="M75.21,67.93a20.69,20.69,0,0,1,1.07,3.76,19.87,19.87,0,0,1,.4,2.68l.68-.4S76,69.94,75.21,67.93Z"/>
          </g>
        </g>
        <g>
          <path class="cls-19" d="M79.58,86.23a7.08,7.08,0,0,1,1.49-5.73c2.22-2.69,5.86-1.44,6.42,1.77a8.5,8.5,0,0,1-.65,5.33,15.16,15.16,0,0,0-3.65-1.28A12.68,12.68,0,0,0,79.58,86.23Z"/>
          <g>
            <path d="M75.51,95.87c-8.65-3.68-13.07-12.42-13.07-12.42C63,85.2,67.22,92,68.33,94.12s1.75,6.91,2,11.51-2.11,5-2.11,5a10.68,10.68,0,0,0,3.31,2.48c1.56.55,5.24,1.38,9.66-1.66s4.33-9.66,6.26-13.43a65.71,65.71,0,0,1,4.6-7.45s-1.2,1.28-2.58,3S84.15,99.55,75.51,95.87Zm-4.7-14.1s1.93,1,3.38,1.66.41.41.41.41A3.21,3.21,0,0,0,71.91,85a6.21,6.21,0,0,1,3-.58l.08,0a2.33,2.33,0,0,1,.67.33,4,4,0,0,1,1.12,1.18L77.5,84l-.9,1a4.6,4.6,0,0,0-1-1.12,8.57,8.57,0,0,0-2.05-1.3C71.29,81.5,70.81,81.77,70.81,81.77Zm3.52,6.08a3.05,3.05,0,0,1,3-.21A5.14,5.14,0,0,1,79.36,89S77.64,84.81,74.33,87.85ZM79,86.74a5.41,5.41,0,0,1,3.73,1.66,19.51,19.51,0,0,1,1.93,2.48S83.3,87.78,82,87.15A6.17,6.17,0,0,0,79,86.74Zm6.35.35a8.49,8.49,0,0,1,3.3,2.68,8.13,8.13,0,0,0-1.85-2.48c-1-.62-4.83-2.48-8.15-.76A10.23,10.23,0,0,1,85.37,87.09Zm3.3,2.68c.13.25.21.42.21.42A2.47,2.47,0,0,0,88.67,89.77Zm.83-3c1.59.69,2,.9,2,.9s-2.42-3.18-5.59-1A5.92,5.92,0,0,1,89.5,86.74ZM74.31,75.34a5.39,5.39,0,0,0-3-2.25,4.18,4.18,0,0,0-3.53.9S71.81,72.78,74.31,75.34Zm17.2-2.74c-2.21-2.76-6.76-.83-6.76-.83,8.14-1.66,7.58,6.9,7.58,6.9A6.4,6.4,0,0,0,91.51,72.6Z"/>
            <path class="cls-20" d="M67.8,90.89s-.58,9.31,1.63,10.78,4.7,3.5,9.3,2,6.35-6.62,6.35-6.62S77.38,100.38,67.8,90.89Z"/>
            <path class="cls-21" d="M84.43,79.86c-2.14-.42-4.3,1.37-4.8,4a5.66,5.66,0,0,0,.05,2.36,9.89,9.89,0,0,1,4.12,0,8.48,8.48,0,0,1,2.83,1.09,5.66,5.66,0,0,0,.76-1.94C87.9,82.74,86.57,80.27,84.43,79.86Z"/>
            <path class="cls-22" d="M85.09,80C82.81,79.07,81,81.08,81,81.08c4.54-2.2,6.47,2.56,6.47,2.56A4.31,4.31,0,0,0,85.09,80Zm-7.2,17.15a5.64,5.64,0,0,1,3,2.33c1,1.76.38,2.81.38,2.81a12.18,12.18,0,0,0,2.7-3c1.12-1.87,1.09-2.2,1.09-2.2S82.56,98.17,77.89,97.16Z"/>
            <path d="M83.54,85.18c.16-.14.53-.07.89.06a1.65,1.65,0,0,0-1.07-2,1.68,1.68,0,0,0-1.74,1.56,2.24,2.24,0,0,0,.12,1.27,8.6,8.6,0,0,1,2.24.2h0a2.13,2.13,0,0,0,.27-.52C83.83,85.54,83.26,85.43,83.54,85.18Zm-.23-.94a.46.46,0,0,1,.39-.5.46.46,0,0,1,.4.5.46.46,0,0,1-.4.5A.45.45,0,0,1,83.31,84.24Z"/>
            <path class="cls-23" d="M81.92,104.26a12.36,12.36,0,0,0-5,3.91,4.36,4.36,0,0,1,1-2.06,4.67,4.67,0,0,1,1.59-1.46s-3,.8-3.39.93c0,0-6,2.06-4.38,4.25s6.31,2.06,9.83-.53S85.11,102.93,81.92,104.26Z"/>
            <path class="cls-20" d="M72.18,109.06s-.37,1.07,1.4,1.65a5.12,5.12,0,0,0,3.2,0S72.67,110.5,72.18,109.06Z"/>
          </g>
        </g>
        <g>
          <path d="M19.68,90.28c2.26.8,2.19,1.82,2.19,1.82s-.46-.13-1.84.49a18.47,18.47,0,0,0-3.6,2.73,12.44,12.44,0,0,1,2.47-1.58,19.35,19.35,0,0,1,3.72-1.22,11.47,11.47,0,0,0,.31-1.63c.09-.83,0-3.24,0-3.24l-.54,3.81s-.09-.75-1.34-1.1-4.62-1.9-4.62-1.9A8.47,8.47,0,0,0,19.68,90.28Zm7.58,1.22c.48-.19,3.83-1.36,6.08-.56a6.48,6.48,0,0,1,2.79,1.49,6.61,6.61,0,0,0-4.67-2.34c-3-.13-3.87.54-3.87.54a7,7,0,0,1,4-2.84c2.77-.73,3.49-1,3.49-1s-4.39.36-6,1.45a4.1,4.1,0,0,0-1.88,2.2,3.86,3.86,0,0,1-.82-2s-.21.34-.06,1.59S26.77,91.69,27.26,91.5Zm-2.14,2.74c1.5.32,1.67.68,1.67.68s-1.81-3.33-4.19,0A3,3,0,0,1,25.12,94.24ZM15.57,75.56a5.37,5.37,0,0,1,3-.62s-4-2-5.2,3.56A7,7,0,0,1,15.57,75.56Zm-4.84,1.36a2.3,2.3,0,0,1,.92-1.8c-2.59,1.42-.65,4-.65,4A4.15,4.15,0,0,1,10.73,76.92Zm24.32,3.21s-.76-6.13-5.59-5.72a9.12,9.12,0,0,1,3.7,2.21A7.12,7.12,0,0,1,35.05,80.13Zm2.89-.23s1.92-1.45-.81-4A6.63,6.63,0,0,1,38,77.73,5.16,5.16,0,0,1,37.94,79.9ZM22.15,101.52c-12.15-1.79-13.86-12-13.86-12a11.18,11.18,0,0,0,3.87,7.65s2.37,11.44,9.24,13.13c13.09,3.22,17.37-11.92,17.37-11.92s.17-.15,1.9-2.14a23.74,23.74,0,0,0,2.65-3.69s-.6.83-1.48,1.89A21.27,21.27,0,0,1,22.15,101.52ZM9.1,88.35s-2.81-1.68-2.86,3.09A4,4,0,0,1,7.4,89C8.43,88.12,9.1,88.35,9.1,88.35Zm32.33,1.78a2.73,2.73,0,0,1,2.53,1,4.11,4.11,0,0,1,.86,2.82S45.44,88.17,41.43,90.13Z"/>
          <path class="cls-20" d="M24.7,102.23c-7.77-.38-11.35-3.8-11.35-3.8s3.07,10.94,12.42,9.6,10.91-8.78,10.91-8.78A20,20,0,0,1,24.7,102.23Z"/>
          <path class="cls-24" d="M36.72,99.21a23.21,23.21,0,0,1-8,2.83s2,.23,2.67,1.54a3.27,3.27,0,0,1,.38,2.27,11.93,11.93,0,0,0,3.87-4C36.87,99.45,36.72,99.21,36.72,99.21Z"/>
        </g>
      </g>
    </g>
  </g>
</svg>
