<svg xmlns="http://www.w3.org/2000/svg" viewBox="0 0 204.09 281.61">
  <defs>
    <style>
      .cls-1, .cls-4 {
        fill: #a0b110;
      }

      .cls-2, .cls-3 {
        fill: #bdcc04;
      }

      .cls-16, .cls-18, .cls-19, .cls-2, .cls-20, .cls-4 {
        fill-rule: evenodd;
      }

      .cls-5 {
        fill: #471e4c;
      }

      .cls-6 {
        fill: #653172;
      }

      .cls-7 {
        fill: #39193c;
      }

      .cls-8 {
        fill: #895b91;
      }

      .cls-9 {
        fill: #341b3d;
      }

      .cls-10 {
        fill: #432156;
      }

      .cls-11 {
        fill: #552465;
      }

      .cls-12 {
        fill: #562866;
      }

      .cls-13 {
        fill: #401a45;
      }

      .cls-14 {
        fill: #845f8b;
      }

      .cls-15, .cls-19 {
        fill: #fff;
      }

      .cls-16 {
        fill: #c8d106;
      }

      .cls-17 {
        fill: #899b1e;
      }

      .cls-18, .cls-22 {
        fill: #121311;
      }

      .cls-20 {
        fill: #df041c;
      }

      .cls-21 {
        fill: #b6d6e2;
      }
    </style>
  </defs>
  <g id="Шар_2" data-name="Шар 2">
    <g id="Vrstva_2" data-name="Vrstva 2">
      <g>
        <path class="cls-1" d="M83.69,55.52c5.88,5,22.48,10,30.19,13.31a100.25,100.25,0,0,0,14.25,4.85l-.43-4s-20.22-6.3-30.57-11.29-22.33-13.87-21-20.76.45-13-.18-22.08A65.62,65.62,0,0,1,76.55.22,9.65,9.65,0,0,0,70.18,1a40.23,40.23,0,0,0-6.26,4S69.8,16.2,71.37,26.91c1.47,10,.68,16.64-1.36,21.85a18.05,18.05,0,0,1-6.75,3.41c-3.24,1-13.89.14-18.55-6.57-3.28-4.71-.28-8.88,4.15-12.14A5.64,5.64,0,0,1,58,36.79c.35,3-2.21,5-4.06,4.44a4,4,0,0,1-2.51-2.08,3.32,3.32,0,0,1,1-2.72c1.18-.86,2-.17,2.43.91s.46,2.35-.71,1.84a1.55,1.55,0,0,1-.76-1.86A2.67,2.67,0,0,0,53,39c.18.68.57,1.08,1.83,1.09s1.48-1.35.92-3.3-3.78-1.71-5,.13A3.37,3.37,0,0,0,52,42c2,1.09,5.94,1.34,7.16-2.84s-1.37-7.82-6.93-7.89-13.37,8.32-8.77,15.4c5.87,9.05,18.85,8.62,22.65,6.52a19.55,19.55,0,0,0,2.79-1.86c-.34.68-.7,1.33-1.08,2-6.07,3.14-27.91,13.94-37.21,11.88C19.73,62.77,22.7,50.53,28.35,46S34,48.3,33.92,50.84s-2,4.65-4.16,4.43-3.75-2-1.79-4.6c1.53-2,1.82,2.36,1.82,2.36s0-7.12-2.8-1.89c-1.71,3.2.8,6.45,3.93,5.51s7.19-7.9,3.84-13c-4.88-7.45-22,15.38-8.53,22.47,11.64,6.11,33.28-5.26,39.08-8.55C58.92,69.19,43,101,43,101l3.46,1.09S64.9,58.72,68.91,58s7.42,3.23,8.37,10.57a83.59,83.59,0,0,1,.38,15L83.72,80s-5.37-15.34-6.83-20.09S77.81,50.51,83.69,55.52Z"/>
        <path class="cls-2" d="M72.48,11.15A22.74,22.74,0,0,1,73.57.47a21.64,21.64,0,0,0-4.18,2.14C67.5,3.91,64.93,5.3,64.93,5.3c4.73,4.17,7.42,16.09,7.66,24,.54,17.45.57,13.1-2.6,22.1-1.86,5.26-15.36,28.37-15.36,28.37S64,63.92,66.43,59.27s7-8.92,8-17.86S73.21,17.6,72.48,11.15Z"/>
        <path class="cls-3" d="M22.48,59.54S22,67.37,34.39,67,49,64.46,49,64.46,26.56,70.18,22.48,59.54Zm20-19s-1.64,4.37,4.36,9.05,8.64,3.79,8.64,3.79S44.59,51.1,42.43,40.54Z"/>
        <path class="cls-4" d="M46.74,86.79c-6.43,3.69-18.45,13.41-18.45,13.41a109.19,109.19,0,0,0,13.16-8,109.49,109.49,0,0,1,11.7-7.41l3.28-7.21A29.07,29.07,0,0,1,46.74,86.79Z"/>
        <path class="cls-5" d="M32.35,171.37a16.58,16.58,0,1,0,31.78-2.69,9,9,0,0,0-1.71-17.1,8.48,8.48,0,0,0-1.49-.16,15,15,0,0,0,.9-2.94,14.63,14.63,0,0,0-11.57-17.15,14.36,14.36,0,0,0-4.66-.14,17,17,0,1,0-19.87,20,16.76,16.76,0,0,0,8.05-.4,14.6,14.6,0,0,0,8.32,8.48A16.57,16.57,0,0,0,32.35,171.37Zm8.27-64a14,14,0,1,0,26,10.16,14.22,14.22,0,0,0,24.59-3A14,14,0,0,0,104,103.21a13.81,13.81,0,0,0,.24-3.19,12.68,12.68,0,1,0-6.88-13.79,12.46,12.46,0,0,0-.21,2.1,14.23,14.23,0,0,0-4.26-1.58,14,14,0,0,0-15.52,8.14,14.21,14.21,0,0,0-13.12,10.67c-.15-.19-.28-.39-.44-.57a15.81,15.81,0,0,0,3-6.62,16,16,0,1,0-26.17,9Zm109.38,25a10.92,10.92,0,1,0,8.64,12.8A10.93,10.93,0,0,0,150,132.41ZM117.21,200a12.43,12.43,0,0,0-4.71,0,17.89,17.89,0,0,0,4.5-26.14A15.78,15.78,0,1,0,131.84,146c0-.09,0-.17.06-.25a11.45,11.45,0,0,0-.2-5.22,14.25,14.25,0,1,0-19.14-5.2,11.5,11.5,0,0,0-.32,16.12,15.77,15.77,0,0,0,.38,18.32,17.67,17.67,0,0,0-4.94-2.22A15,15,0,0,0,108.9,164a14.62,14.62,0,0,0-10.65-16.92c0-.14.08-.28.11-.42a16.39,16.39,0,1,0-19.21,13l.84.12a14.61,14.61,0,0,0,8.3,14.69,17.8,17.8,0,0,0-3.05,7c-.07.38-.11.76-.16,1.14a12.48,12.48,0,1,0-13.61,18.8A22,22,0,0,0,58.54,215.3a13.85,13.85,0,1,0,2.59,18.62,22,22,0,1,0,22.65-33.69,21.44,21.44,0,0,0-2.61-.34,12.43,12.43,0,0,0,5.46-7.41,17.87,17.87,0,0,0,21,9.68,12.27,12.27,0,1,0,9.63-2.2ZM140,179.75A11.31,11.31,0,1,0,149,193,11.32,11.32,0,0,0,140,179.75Zm-29,63.52a9.36,9.36,0,1,0,7.41,11A9.35,9.35,0,0,0,111,243.27Z"/>
        <path class="cls-6" d="M59.75,140.11A15,15,0,1,0,44.54,155,15,15,0,0,0,59.75,140.11Zm-7.17,43.81a14.83,14.83,0,1,0-14.65-15A14.83,14.83,0,0,0,52.58,183.92Zm30.5-37.87a15.22,15.22,0,1,0,15,15.4A15.22,15.22,0,0,0,83.08,146.05Zm-53-1.62a15,15,0,1,0-15.2,14.83A15,15,0,0,0,30,144.43Zm36.65,50.19A15,15,0,0,0,52,205.84a16.77,16.77,0,0,0,.36-3.2,16,16,0,1,0-11.74,15.22A12.4,12.4,0,1,0,43,217a16,16,0,0,0,8.87-10.55,15.68,15.68,0,0,0-.34,3,15,15,0,1,0,15.21-14.84ZM27.51,128.21A16.39,16.39,0,0,0,43.86,114.5a15.77,15.77,0,1,0,.08-4.76,16.38,16.38,0,1,0-16.43,18.47Zm42.11,1.68a12.49,12.49,0,1,0,12.64-12.33A12.49,12.49,0,0,0,69.62,129.89Z"/>
        <path class="cls-7" d="M27.32,127.23c10.73.13,18.26-9.34,15.45-19.13S32.19,96.66,32.19,96.66A14.07,14.07,0,0,1,30,115.75c-6.32,5.35-15.06,3.13-15.06,3.13S16.6,127.1,27.32,127.23ZM55,126.59c9.73,2.07,19.55-3.46,19.47-12.83S69,101,69,101s3,7.84-4.86,14.77c-6.84,6-18.74.75-18.74.75S49.07,125.32,55,126.59Zm-8.3,16.83c-5.71,4.82-13.59,2.82-13.59,2.82s1.49,7.42,11.17,7.53,16.47-8.42,13.94-17.25-9.55-10.33-9.55-10.33A12.7,12.7,0,0,1,46.73,143.42Zm35.07-1.78c8,.09,13.55-6.93,11.46-14.2S85.4,119,85.4,119a10.43,10.43,0,0,1-1.62,14.17c-4.69,4-11.17,2.32-11.17,2.32S73.83,141.54,81.8,141.64Zm14.77,16.73C94,149.46,86.93,148,86.93,148a12.79,12.79,0,0,1-2,17.38c-5.75,4.87-13.71,2.86-13.71,2.86s1.51,7.47,11.27,7.59S99.13,167.28,96.57,158.37Zm-43.7,24.46c9.19.12,15.64-8,13.24-16.38s-9.07-9.8-9.07-9.8A12,12,0,0,1,55.17,173c-5.42,4.58-12.9,2.69-12.9,2.69S43.68,182.72,52.87,182.83Zm-2.4,16.42c-2.6-9.07-9.81-10.6-9.81-10.6a13,13,0,0,1-2,17.68c-5.86,4.95-13.95,2.9-13.95,2.9s1.53,7.61,11.47,7.73S53.07,208.32,50.47,199.25Zm19.38-3.06A12.23,12.23,0,0,1,68,212.8c-5.5,4.65-13.1,2.73-13.1,2.73s1.44,7.14,10.77,7.26,15.89-8.13,13.45-16.65S69.85,196.19,69.85,196.19ZM48.69,218.66a9.64,9.64,0,0,1-1.5,13.08c-4.33,3.67-10.32,2.15-10.32,2.15s1.14,5.63,8.49,5.72,12.51-6.4,10.58-13.11S48.69,218.66,48.69,218.66ZM28.17,141.34c-2.45-8.52-9.22-10-9.22-10A12.24,12.24,0,0,1,17.05,148c-5.5,4.65-13.11,2.72-13.11,2.72s1.44,7.15,10.78,7.26S30.61,149.86,28.17,141.34Z"/>
        <path class="cls-8" d="M8.12,138c.57.61,1.2,1.24,1.78,1.79a5,5,0,0,1,.64-.47,12.16,12.16,0,0,1,3.67-1.8L14,134.7A16.43,16.43,0,0,0,8.12,138Zm27,53.48-.16-2a11,11,0,0,0-7.15,3.08,9.62,9.62,0,0,0,1.39,2.08A9.65,9.65,0,0,1,35.13,191.48Zm4.93-57.13a4.64,4.64,0,0,1,.6-.44,11.45,11.45,0,0,1,3.41-1.67l-.2-2.62a15.36,15.36,0,0,0-5.46,3.06C38.94,133.25,39.53,133.84,40.06,134.35Zm3.77-5.21-.15-1.93a10.74,10.74,0,0,0-7,3A9,9,0,0,0,38,132.28,9.48,9.48,0,0,1,43.83,129.14Zm0,31.45c-3.49,3.91-3.24,7.62-3.24,7.62l2,.12a11.12,11.12,0,0,1,2.94-5.8C44.93,161.82,44.29,161.1,43.85,160.59Zm-18-61-.16-2.07a11.47,11.47,0,0,0-7.54,3.24,9.31,9.31,0,0,0,1.46,2.2A10.13,10.13,0,0,1,25.89,99.61ZM40.72,223.29a8.08,8.08,0,0,1,5-2.68L45.54,219a9.16,9.16,0,0,0-6,2.58A8.2,8.2,0,0,0,40.72,223.29ZM5.52,136.12C2,140,2.28,143.75,2.28,143.75l2,.11a11.27,11.27,0,0,1,2.94-5.79C6.6,137.36,6,136.64,5.52,136.12Zm2.11,2.35a11,11,0,0,0-2.74,5.43l2.77.15a6.92,6.92,0,0,1,1.8-3.85L9.15,140A18.54,18.54,0,0,1,7.63,138.47ZM14,134.19l-.16-2.07a11.48,11.48,0,0,0-7.54,3.24,9.74,9.74,0,0,0,1.47,2.2A10.06,10.06,0,0,1,14,134.19Zm20.92,3.95a10.39,10.39,0,0,1,2.73-5.39c-.61-.66-1.2-1.33-1.61-1.81-3.24,3.64-3,7.09-3,7.09Zm46.28-16.75L81,119.67a9.51,9.51,0,0,0-6.22,2.68A7.91,7.91,0,0,0,76,124.17,8.3,8.3,0,0,1,81.15,121.39ZM77.8,126a4.32,4.32,0,0,1,.53-.4,10.35,10.35,0,0,1,3-1.48l-.18-2.32a13.53,13.53,0,0,0-4.85,2.72C76.81,125,77.33,125.55,77.8,126Zm-.61.14c-.34-.29-.79-.74-1.26-1.23a9.09,9.09,0,0,0-2.26,4.47l2.28.13a5.8,5.8,0,0,1,1.49-3.18Zm4.28,24.54-.15-2a11,11,0,0,0-7.15,3.08,8.92,8.92,0,0,0,1.39,2.08A9.63,9.63,0,0,1,81.47,150.69Zm-33-39.84a11.2,11.2,0,0,1,2.93-5.8c-.65-.71-1.28-1.43-1.73-1.94-3.48,3.91-3.23,7.62-3.23,7.62Zm3.86,47.81-.16-2.08a11.53,11.53,0,0,0-7.54,3.24,9.53,9.53,0,0,0,1.47,2.2A10.08,10.08,0,0,1,52.28,158.66Zm5.78-57.48L57.9,99.1a11.51,11.51,0,0,0-7.54,3.25,9.29,9.29,0,0,0,1.46,2.19A10.1,10.1,0,0,1,58.06,101.18ZM73.2,129.37a9.18,9.18,0,0,1,2.42-4.79c-.54-.58-1.06-1.18-1.43-1.6a9.39,9.39,0,0,0-2.67,6.29Zm-14,73.28a9.52,9.52,0,0,1,5.91-3.19l-.15-2a10.89,10.89,0,0,0-7.15,3.08A9.14,9.14,0,0,0,59.16,202.65Zm-.09.86a10.58,10.58,0,0,0-2.59,5.15l2.62.15a6.63,6.63,0,0,1,1.71-3.66l-.29-.22A18.45,18.45,0,0,1,59.07,203.51Zm-2-2.22C53.77,205,54,208.52,54,208.52l1.92.11a10.62,10.62,0,0,1,2.79-5.5C58.1,202.46,57.5,201.77,57.08,201.29ZM46,162.93a11,11,0,0,0-2.74,5.43l2.76.15a7,7,0,0,1,1.8-3.85l-.3-.23A20.75,20.75,0,0,1,46,162.93ZM58.31,104.5l-.21-2.81A16.39,16.39,0,0,0,52.22,105c.57.61,1.21,1.24,1.78,1.8a5.47,5.47,0,0,1,.65-.48A12.58,12.58,0,0,1,58.31,104.5Zm-11.86,58c.57.61,1.2,1.24,1.77,1.8a5.47,5.47,0,0,1,.65-.48,12.53,12.53,0,0,1,3.67-1.8l-.22-2.81A16.37,16.37,0,0,0,46.45,162.46Zm5.28-57A11.1,11.1,0,0,0,49,110.88l2.77.16a7,7,0,0,1,1.8-3.86l-.31-.23A20.29,20.29,0,0,1,51.73,105.46Zm7.81,97.61c.54.57,1.14,1.17,1.68,1.7a4.1,4.1,0,0,1,.62-.45,11.81,11.81,0,0,1,3.47-1.71l-.2-2.67A15.49,15.49,0,0,0,59.54,203.07Zm15.93-48.32a10.58,10.58,0,0,0-2.6,5.14l2.63.15a6.62,6.62,0,0,1,1.71-3.65c-.1-.08-.19-.14-.29-.23A18.08,18.08,0,0,1,75.47,154.75Zm-58-53.21c-3.49,3.92-3.24,7.63-3.24,7.63l2,.11a11.1,11.1,0,0,1,2.94-5.79C18.53,102.78,17.9,102.06,17.46,101.54Zm56,51c-3.31,3.72-3.08,7.23-3.08,7.23l1.93.11a10.6,10.6,0,0,1,2.79-5.49C74.5,153.69,73.9,153,73.48,152.52Zm8-1.34a15.42,15.42,0,0,0-5.57,3.12c.54.58,1.14,1.18,1.68,1.7a4.94,4.94,0,0,1,.62-.45,11.51,11.51,0,0,1,3.47-1.7ZM29.13,195.54a10.62,10.62,0,0,0-2.6,5.14l2.63.15a6.56,6.56,0,0,1,1.7-3.65l-.28-.23A18.08,18.08,0,0,1,29.13,195.54Zm-3.2-95.42a16.54,16.54,0,0,0-5.88,3.3c.57.61,1.21,1.24,1.78,1.79a5.42,5.42,0,0,1,.65-.47,12.58,12.58,0,0,1,3.66-1.8Zm1.2,93.19c-3.3,3.72-3.07,7.23-3.07,7.23l1.93.11a10.56,10.56,0,0,1,2.78-5.49C28.15,194.49,27.55,193.8,27.13,193.31Zm-7.57-89.42a11.22,11.22,0,0,0-2.74,5.43l2.77.15a7,7,0,0,1,1.8-3.85c-.1-.08-.2-.15-.3-.24A20.16,20.16,0,0,1,19.56,103.89ZM39,222.14a9,9,0,0,0-2.57,6.06l1.61.09a9,9,0,0,1,2.34-4.61C39.83,223.12,39.33,222.55,39,222.14ZM40.65,224a8.77,8.77,0,0,0-2.18,4.3l2.2.13a5.54,5.54,0,0,1,1.43-3.06l-.24-.19A14.22,14.22,0,0,1,40.65,224Zm.38-.38c.46.48,1,1,1.42,1.43a3.22,3.22,0,0,1,.51-.38,9.8,9.8,0,0,1,2.91-1.43L45.7,221A13.3,13.3,0,0,0,41,223.63ZM29.59,195.09c.54.58,1.15,1.18,1.69,1.7a5.65,5.65,0,0,1,.61-.45,11.6,11.6,0,0,1,3.48-1.7L35.16,192A15.66,15.66,0,0,0,29.59,195.09Zm10.06-60.36-.28-.22A19.57,19.57,0,0,1,38,133.12a10.42,10.42,0,0,0-2.55,5l2.58.14A6.46,6.46,0,0,1,39.65,134.73Z"/>
        <path class="cls-9" d="M61.61,113.21A13.53,13.53,0,0,0,77.38,96.9a16.25,16.25,0,1,0-3.88-6.8,13.54,13.54,0,1,0-11.89,23.11Zm54,12a15.07,15.07,0,1,0-11.93-17.66A15.07,15.07,0,0,0,115.62,125.24Zm-8.17,11a18.5,18.5,0,1,0-21.69,14.64A18.51,18.51,0,0,0,107.45,136.29Zm4.82,5.21A14.3,14.3,0,1,0,129,130.18,14.31,14.31,0,0,0,112.27,141.5Zm-10.09,48A16,16,0,1,0,89.5,170.69,16,16,0,0,0,102.18,189.47Zm-37.4,2.46A17.55,17.55,0,1,0,50.9,171.36,17.54,17.54,0,0,0,64.78,191.93Zm3.74-47.27A14.31,14.31,0,1,0,51.75,156,14.3,14.3,0,0,0,68.52,144.66ZM49.16,168.3a15.64,15.64,0,1,0-18.33,12.38A15.63,15.63,0,0,0,49.16,168.3Zm17.67,41.12A17.16,17.16,0,1,0,46.7,223,17.18,17.18,0,0,0,66.83,209.42Zm23.36-10.23a16.41,16.41,0,1,0,13,19.23A16.41,16.41,0,0,0,90.19,199.19Zm32-5.83a13.16,13.16,0,1,0,10.41,15.43A13.17,13.17,0,0,0,122.21,193.36Zm15.58-29.23a10.3,10.3,0,1,0,8.15,12.08A10.3,10.3,0,0,0,137.79,164.13Zm-69.26,80.6a13.35,13.35,0,1,0-15.66,10.56A13.36,13.36,0,0,0,68.53,244.73ZM87.91,233a13,13,0,1,0,10.26,15.2A13,13,0,0,0,87.91,233ZM113,223a8.2,8.2,0,1,0,6.49,9.62A8.2,8.2,0,0,0,113,223ZM72.6,256.79a8.58,8.58,0,1,0,6.78,10.06A8.58,8.58,0,0,0,72.6,256.79ZM39.33,129.87a11.26,11.26,0,1,0-8.9-13.19A11.26,11.26,0,0,0,39.33,129.87ZM25.49,150.11a9.92,9.92,0,1,0-7.84-11.63A9.92,9.92,0,0,0,25.49,150.11Z"/>
        <path class="cls-7" d="M55.61,117.07a15.8,15.8,0,1,0,18.52-12.5A15.8,15.8,0,0,0,55.61,117.07ZM98.4,161.74a16.19,16.19,0,1,0-12.8-19A16.19,16.19,0,0,0,98.4,161.74Zm26.95-45.64a16,16,0,1,0-18.76,12.65A16,16,0,0,0,125.35,116.1ZM85.27,158.79a14.44,14.44,0,1,0-16.93,11.42A14.44,14.44,0,0,0,85.27,158.79ZM110,193a16.78,16.78,0,1,0-19.67,13.27A16.79,16.79,0,0,0,110,193Zm-36.53-6.3a14.43,14.43,0,1,0-16.92,11.42A14.44,14.44,0,0,0,73.49,186.71Zm-.16,39.71a11.7,11.7,0,1,0-9.26-13.72A11.7,11.7,0,0,0,73.33,226.42ZM131,162.89a14.43,14.43,0,1,0,11.42,16.92A14.44,14.44,0,0,0,131,162.89Zm5.72-29.49A12.48,12.48,0,1,0,146.57,148,12.48,12.48,0,0,0,136.69,133.4Zm-58.4,97.16a14.24,14.24,0,1,0,11.26,16.69A14.24,14.24,0,0,0,78.29,230.56Zm30.22-14.4a14.24,14.24,0,1,0,11.26,16.69A14.24,14.24,0,0,0,108.51,216.16ZM54.38,203.27A10.92,10.92,0,1,0,63,216.07,10.93,10.93,0,0,0,54.38,203.27ZM53.83,161a12.48,12.48,0,1,0-14.63,9.88A12.48,12.48,0,0,0,53.83,161Zm-9.06-26a8.78,8.78,0,1,0-6.94-10.29A8.77,8.77,0,0,0,44.77,135Zm40.89-34.58A13.07,13.07,0,1,0,75.32,85.13,13.07,13.07,0,0,0,85.66,100.45ZM62.22,96.29A9.17,9.17,0,1,0,55,85.55,9.16,9.16,0,0,0,62.22,96.29ZM114.14,96A14,14,0,1,0,103,79.57,14,14,0,0,0,114.14,96Zm33.17.08A17,17,0,1,0,160.73,116,17,17,0,0,0,147.31,96.12Zm-23.94,96.69a12.29,12.29,0,1,0,9.72,14.41A12.3,12.3,0,0,0,123.37,192.81Z"/>
        <path class="cls-6" d="M88.3,165.63a15,15,0,1,0-15.2,14.83A15,15,0,0,0,88.3,165.63Zm-7.16,43.8a14.83,14.83,0,1,0-14.65-15A14.82,14.82,0,0,0,81.14,209.43Zm30.5-37.86a15.22,15.22,0,1,0,15,15.4A15.22,15.22,0,0,0,111.64,171.57Zm-53-1.63a15,15,0,1,0-15.2,14.84A15,15,0,0,0,58.6,169.94Zm36.65,50.2a15,15,0,0,0-14.7,11.21,16.76,16.76,0,0,0,.36-3.19A16,16,0,1,0,64.72,244a16.37,16.37,0,0,0,4.45-.59,12.28,12.28,0,1,0,5.52-1.24,12,12,0,0,0-3.18.39A16,16,0,0,0,80.38,232a14.74,14.74,0,0,0-.34,3,15,15,0,1,0,15.21-14.84ZM56.07,153.72A16.38,16.38,0,0,0,72.42,140a15.77,15.77,0,1,0,.08-4.76,16.38,16.38,0,1,0-16.43,18.47Zm42.11,1.69a12.49,12.49,0,1,0,12.64-12.33A12.49,12.49,0,0,0,98.18,155.41ZM61.34,201.19a14.24,14.24,0,1,0-14.41,14.07A14.23,14.23,0,0,0,61.34,201.19Z"/>
        <path class="cls-7" d="M55.88,152.74c10.73.13,18.26-9.33,15.45-19.12s-10.59-11.44-10.59-11.44a14.06,14.06,0,0,1-2.18,19.09c-6.32,5.34-15.06,3.13-15.06,3.13S45.15,152.61,55.88,152.74Zm27.71-.63c9.73,2.07,19.55-3.47,19.47-12.83s-5.5-12.75-5.5-12.75,3,7.84-4.86,14.77c-6.84,6-18.74.74-18.74.74S77.63,150.84,83.59,152.11Zm-8.3,16.82c-5.71,4.82-13.59,2.83-13.59,2.83s1.49,7.41,11.17,7.53S89.34,170.87,86.81,162s-9.55-10.32-9.55-10.32A12.69,12.69,0,0,1,75.29,168.93Zm35.07-1.78c8,.1,13.55-6.93,11.46-14.19s-7.86-8.5-7.86-8.5a10.43,10.43,0,0,1-1.62,14.17c-4.69,4-11.17,2.33-11.17,2.33S102.39,167.05,110.36,167.15Zm14.77,16.74c-2.55-8.92-9.64-10.43-9.64-10.43a12.8,12.8,0,0,1-2,17.39c-5.75,4.86-13.71,2.85-13.71,2.85s1.51,7.48,11.28,7.6S127.69,192.8,125.13,183.89Zm-43.7,24.46c9.19.11,15.64-8,13.24-16.38s-9.07-9.81-9.07-9.81a12.06,12.06,0,0,1-1.87,16.36c-5.42,4.58-12.9,2.68-12.9,2.68S72.24,208.24,81.43,208.35ZM79,224.76c-2.6-9.07-9.81-10.6-9.81-10.6a13,13,0,0,1-2,17.69c-5.86,5-14,2.9-14,2.9s1.53,7.61,11.47,7.73S81.63,233.83,79,224.76Zm19.38-3.06a12.22,12.22,0,0,1-1.9,16.61C91,243,83.41,241,83.41,241s1.44,7.15,10.77,7.26,15.89-8.12,13.45-16.64S98.41,221.7,98.41,221.7ZM77.25,244.18a9.64,9.64,0,0,1-1.5,13.08c-4.33,3.66-10.32,2.15-10.32,2.15s1.13,5.62,8.49,5.71S86.43,258.73,84.5,252,77.25,244.18,77.25,244.18ZM59.4,197.91c-2.35-8.22-8.89-9.61-8.89-9.61a11.81,11.81,0,0,1-1.83,16C43.37,208.82,36,207,36,207s1.39,6.9,10.4,7S61.76,206.13,59.4,197.91Zm-2.67-31c-2.45-8.52-9.22-10-9.22-10a12.24,12.24,0,0,1-1.9,16.61c-5.5,4.65-13.11,2.73-13.11,2.73s1.44,7.14,10.78,7.26S59.17,175.37,56.73,166.86Z"/>
        <path class="cls-8" d="M63.69,217l-.15-2a10.92,10.92,0,0,0-7.16,3.08,9.87,9.87,0,0,0,1.39,2.08A9.53,9.53,0,0,1,63.69,217Zm-9.24-91.87-.16-2.08a11.51,11.51,0,0,0-7.54,3.25,9.29,9.29,0,0,0,1.46,2.19A10.1,10.1,0,0,1,54.45,125.13Zm-9.64,9.67a11.16,11.16,0,0,1,2.94-5.8c-.66-.7-1.29-1.43-1.73-1.94-3.49,3.92-3.24,7.62-3.24,7.62Zm18.62,28.85a10.46,10.46,0,0,1,2.73-5.39c-.61-.66-1.19-1.33-1.61-1.81-3.24,3.65-3,7.1-3,7.1ZM38,165.71l-.31-.23A18.54,18.54,0,0,1,36.19,164a11,11,0,0,0-2.74,5.42l2.77.16A6.93,6.93,0,0,1,38,165.71Zm.44-.4a6.28,6.28,0,0,1,.64-.48,12.53,12.53,0,0,1,3.67-1.8l-.22-2.81a16.45,16.45,0,0,0-5.87,3.29C37.25,164.12,37.88,164.75,38.46,165.31Zm4-5.6-.16-2.08a11.53,11.53,0,0,0-7.54,3.25,9.73,9.73,0,0,0,1.47,2.19A10.08,10.08,0,0,1,42.51,159.71Zm-8.43,1.93c-3.48,3.91-3.24,7.62-3.24,7.62l2,.12a11.2,11.2,0,0,1,2.93-5.8C35.16,162.87,34.53,162.15,34.08,161.64Zm6.26,32.58A9.63,9.63,0,0,1,46.25,191l-.15-2A11,11,0,0,0,39,192.14,8.92,8.92,0,0,0,40.34,194.22Zm28.28-34.35a4.69,4.69,0,0,1,.6-.45,11.83,11.83,0,0,1,3.41-1.67l-.2-2.61A15,15,0,0,0,67,158.2C67.5,158.76,68.09,159.35,68.62,159.87Zm3.77-5.21-.15-1.93a10.67,10.67,0,0,0-7,3,9.21,9.21,0,0,0,1.37,2.05A9.48,9.48,0,0,1,72.39,154.66Zm34-3.14a4.38,4.38,0,0,1,.54-.39,10,10,0,0,1,3-1.48l-.18-2.33a13.69,13.69,0,0,0-4.85,2.72C105.37,150.54,105.89,151.06,106.36,151.52Zm3.35-4.62-.13-1.71a9.45,9.45,0,0,0-6.22,2.68,7.69,7.69,0,0,0,1.21,1.81A8.44,8.44,0,0,1,109.71,146.9Zm-7.95,8a9.16,9.16,0,0,1,2.42-4.78c-.54-.59-1.06-1.18-1.43-1.61a9.36,9.36,0,0,0-2.67,6.3ZM72.41,186.1c-3.49,3.92-3.24,7.63-3.24,7.63l2,.11a11.16,11.16,0,0,1,2.94-5.8C73.49,187.34,72.85,186.62,72.41,186.1ZM110,176.21l-.15-2a10.91,10.91,0,0,0-7.15,3.07,8.94,8.94,0,0,0,1.39,2.09A9.52,9.52,0,0,1,110,176.21Zm-4.28-24.55a15.36,15.36,0,0,1-1.26-1.23,9.07,9.07,0,0,0-2.26,4.48l2.28.13a5.77,5.77,0,0,1,1.49-3.18ZM69.28,248.8a8.13,8.13,0,0,1,5-2.68l-.13-1.65a9.16,9.16,0,0,0-6,2.58A8,8,0,0,0,69.28,248.8Zm18.44-20.64A9.63,9.63,0,0,1,93.63,225l-.15-2a11,11,0,0,0-7.15,3.08A8.92,8.92,0,0,0,87.72,228.16Zm-6.88-44-.16-2.07a11.47,11.47,0,0,0-7.54,3.24,9.73,9.73,0,0,0,1.47,2.19A10.08,10.08,0,0,1,80.84,184.17Zm5.78-57.48-.16-2.07a11.5,11.5,0,0,0-7.55,3.24,9.74,9.74,0,0,0,1.47,2.2A10.13,10.13,0,0,1,86.62,126.69ZM77,136.36a11.14,11.14,0,0,1,2.93-5.79c-.65-.71-1.28-1.43-1.73-1.95-3.48,3.92-3.23,7.63-3.23,7.63ZM40.72,194.64c.54.58,1.14,1.18,1.68,1.7a4.94,4.94,0,0,1,.62-.45,11.46,11.46,0,0,1,3.48-1.7l-.21-2.67A15.42,15.42,0,0,0,40.72,194.64ZM86.87,130l-.21-2.82a16.45,16.45,0,0,0-5.88,3.3c.57.61,1.21,1.24,1.78,1.79a4.5,4.5,0,0,1,.65-.47A12.21,12.21,0,0,1,86.87,130ZM85.64,226.8c-3.31,3.72-3.07,7.23-3.07,7.23l1.92.11a10.6,10.6,0,0,1,2.79-5.49C86.66,228,86.06,227.29,85.64,226.8ZM74.52,188.45a11.06,11.06,0,0,0-2.74,5.42l2.76.16a7,7,0,0,1,1.8-3.85l-.3-.24A18.54,18.54,0,0,1,74.52,188.45ZM87.63,229A10.47,10.47,0,0,0,85,234.17l2.62.15a6.62,6.62,0,0,1,1.71-3.65c-.1-.08-.19-.14-.29-.23A18.08,18.08,0,0,1,87.63,229ZM75,188c.57.6,1.2,1.24,1.77,1.79a5.47,5.47,0,0,1,.65-.48,12.23,12.23,0,0,1,3.67-1.79l-.22-2.82A16.43,16.43,0,0,0,75,188Zm5.28-57a11.13,11.13,0,0,0-2.74,5.43l2.77.15a7,7,0,0,1,1.8-3.85l-.31-.24A20.29,20.29,0,0,1,80.29,131ZM104,180.26a10.61,10.61,0,0,0-2.6,5.15l2.63.15a6.63,6.63,0,0,1,1.71-3.66l-.29-.22C105.09,181.35,104.57,180.83,104,180.26Zm6-3.57a15.49,15.49,0,0,0-5.57,3.13c.54.57,1.14,1.17,1.68,1.7a5,5,0,0,1,.62-.46,11.88,11.88,0,0,1,3.47-1.7ZM102,178c-3.3,3.71-3.07,7.23-3.07,7.23l1.93.11a10.54,10.54,0,0,1,2.79-5.5C103.06,179.21,102.46,178.52,102,178ZM88.1,228.58c.54.58,1.14,1.18,1.68,1.7a4.94,4.94,0,0,1,.62-.45,11.51,11.51,0,0,1,3.47-1.7l-.2-2.67A15.42,15.42,0,0,0,88.1,228.58ZM38.26,192.86c-3.31,3.72-3.07,7.23-3.07,7.23l1.92.11a10.6,10.6,0,0,1,2.79-5.49C39.28,194,38.68,193.35,38.26,192.86Zm17.43,26c-3.31,3.71-3.07,7.23-3.07,7.23l1.93.11a10.58,10.58,0,0,1,2.78-5.5C56.71,220,56.11,219.31,55.69,218.83Zm-1.2-93.19a16.39,16.39,0,0,0-5.88,3.29c.57.61,1.21,1.24,1.78,1.8a5.47,5.47,0,0,1,.65-.48,12.28,12.28,0,0,1,3.66-1.79ZM40.26,195.09a10.54,10.54,0,0,0-2.6,5.14l2.62.15A6.62,6.62,0,0,1,42,196.73a2.92,2.92,0,0,1-.29-.23A16.62,16.62,0,0,1,40.26,195.09Zm17.43,26a10.54,10.54,0,0,0-2.6,5.14l2.63.15a6.58,6.58,0,0,1,1.7-3.66l-.29-.22A20.15,20.15,0,0,1,57.69,221.06Zm-9.57-91.65a11.19,11.19,0,0,0-2.74,5.42l2.77.16a7,7,0,0,1,1.8-3.85c-.1-.08-.2-.15-.3-.24A20.16,20.16,0,0,1,48.12,129.41ZM69.59,249.15c.46.48,1,1,1.42,1.42a4.23,4.23,0,0,1,.51-.38,9.87,9.87,0,0,1,2.91-1.42l-.17-2.24A13,13,0,0,0,69.59,249.15Zm-.38.37A8.83,8.83,0,0,0,67,253.83l2.2.12a5.57,5.57,0,0,1,1.43-3.06l-.24-.18A16.27,16.27,0,0,1,69.21,249.52Zm-1.68-1.86A9,9,0,0,0,65,253.71l1.61.09a8.92,8.92,0,0,1,2.34-4.6C68.39,248.64,67.88,248.06,67.53,247.66Zm-9.38-27c.54.57,1.15,1.17,1.69,1.7a4.57,4.57,0,0,1,.61-.45,11.9,11.9,0,0,1,3.48-1.71l-.21-2.67A15.57,15.57,0,0,0,58.15,220.61Zm10.06-60.36-.28-.23a17.3,17.3,0,0,1-1.42-1.38,10.4,10.4,0,0,0-2.55,5l2.58.15A6.46,6.46,0,0,1,68.21,160.25Z"/>
        <path class="cls-6" d="M74.13,215.38a9.84,9.84,0,1,0-10,9.72A9.83,9.83,0,0,0,74.13,215.38Zm-4.7,28.7a9.72,9.72,0,1,0-9.59-9.83A9.72,9.72,0,0,0,69.43,244.08Zm20-24.81a10,10,0,1,0,9.85,10.09A10,10,0,0,0,89.42,219.27Zm-34.75-1.06a9.85,9.85,0,1,0-10,9.72A9.86,9.86,0,0,0,54.67,218.21Zm24,32.89a9.83,9.83,0,0,0-9.63,7.35,10.49,10.49,0,1,0-10.37,8.25,10.09,10.09,0,0,0,2.92-.38,8,8,0,1,0,3.61-.81,7.9,7.9,0,0,0-2.08.25,10.47,10.47,0,0,0,5.81-6.91,9.84,9.84,0,1,0,9.74-7.75ZM53,207.58a10.74,10.74,0,0,0,10.71-9,10.36,10.36,0,1,0,.06-3.11A10.73,10.73,0,1,0,53,207.58Zm27.6,1.1a8.18,8.18,0,1,0,8.28-8.08A8.17,8.17,0,0,0,80.61,208.68Zm-24.15,30A9.33,9.33,0,1,0,47,247.9,9.32,9.32,0,0,0,56.46,238.68Z"/>
        <path class="cls-7" d="M52.89,206.94c7,.08,12-6.12,10.12-12.54s-6.94-7.5-6.94-7.5a9.21,9.21,0,0,1-1.43,12.51c-4.14,3.51-9.87,2.06-9.87,2.06S45.86,206.85,52.89,206.94Zm18.16-.42c6.37,1.36,12.81-2.27,12.75-8.41s-3.6-8.35-3.6-8.35,2,5.13-3.19,9.67c-4.48,3.94-12.28.49-12.28.49S67.14,205.69,71.05,206.52Zm-5.45,11c-3.74,3.16-8.9,1.86-8.9,1.86s1,4.85,7.32,4.93,10.79-5.52,9.14-11.31-6.27-6.77-6.27-6.77A8.31,8.31,0,0,1,65.6,217.54Zm23-1.16c5.22.06,8.88-4.55,7.52-9.3S91,201.51,91,201.51a6.83,6.83,0,0,1-1.07,9.28c-3.07,2.6-7.32,1.53-7.32,1.53S83.36,216.31,88.58,216.38Zm9.69,11c-1.68-5.84-6.32-6.83-6.32-6.83a8.39,8.39,0,0,1-1.31,11.39c-3.77,3.19-9,1.87-9,1.87s1,4.9,7.39,5S99.94,233.18,98.27,227.34Zm-28.64,16c6,.08,10.25-5.24,8.67-10.73s-5.94-6.43-5.94-6.43a7.9,7.9,0,0,1-1.23,10.72c-3.55,3-8.45,1.76-8.45,1.76S63.61,243.3,69.63,243.37Zm-1.57,10.76c-1.71-5.95-6.43-6.95-6.43-6.95a8.54,8.54,0,0,1-1.33,11.59c-3.84,3.24-9.14,1.9-9.14,1.9s1,5,7.52,5.07S69.76,260.07,68.06,254.13Zm12.7-2A8,8,0,0,1,79.51,263c-3.6,3.05-8.59,1.78-8.59,1.78s1,4.69,7.07,4.76,10.4-5.32,8.81-10.9S80.76,252.12,80.76,252.12ZM66.89,266.85a6.31,6.31,0,0,1-1,8.57c-2.83,2.4-6.76,1.41-6.76,1.41s.75,3.68,5.56,3.75A6.81,6.81,0,0,0,71.64,272,7,7,0,0,0,66.89,266.85Zm-11.7-30.32c-1.54-5.39-5.82-6.3-5.82-6.3a7.74,7.74,0,0,1-1.21,10.51c-3.47,2.94-8.28,1.72-8.28,1.72s.91,4.52,6.81,4.6S56.74,241.92,55.19,236.53Zm-1.75-20.35c-1.6-5.58-6-6.52-6-6.52a8,8,0,0,1-1.25,10.88c-3.6,3.05-8.58,1.79-8.58,1.79s.94,4.68,7.06,4.76S55,221.76,53.44,216.18Z"/>
        <path class="cls-8" d="M57.83,214.08a6.82,6.82,0,0,1,1.79-3.53c-.4-.43-.78-.87-1-1.18a7,7,0,0,0-2,4.64Zm5.88-5.89-.1-1.27a7.07,7.07,0,0,0-4.6,2,5.74,5.74,0,0,0,.9,1.34A6.21,6.21,0,0,1,63.71,208.19Zm0,20.6a7.4,7.4,0,0,0-2.12,5l1.32.08a7.37,7.37,0,0,1,1.93-3.8C64.42,229.6,64,229.13,63.72,228.79Zm-2.48-17.18a3.08,3.08,0,0,1,.39-.3,7.54,7.54,0,0,1,2.23-1.09l-.13-1.72a10,10,0,0,0-3.58,2C60.5,210.88,60.89,211.27,61.24,211.61ZM58,249l-.1-1.29a7.13,7.13,0,0,0-4.68,2,5.79,5.79,0,0,0,.91,1.37A6.3,6.3,0,0,1,58,249ZM44.13,211.5,44,210.14a7.56,7.56,0,0,0-4.94,2.12,6.11,6.11,0,0,0,1,1.45A6.6,6.6,0,0,1,44.13,211.5Zm-2.66,3.67c.14-.11.27-.22.42-.32a8.35,8.35,0,0,1,2.4-1.17l-.14-1.84A10.65,10.65,0,0,0,40.3,214C40.68,214.39,41.1,214.81,41.47,215.17ZM52,188.84l-.11-1.36a7.54,7.54,0,0,0-4.94,2.13,6.54,6.54,0,0,0,1,1.44A6.67,6.67,0,0,1,52,188.84ZM38.6,212.76a7.46,7.46,0,0,0-2.12,5l1.33.08a7.29,7.29,0,0,1,1.93-3.8C39.31,213.57,38.89,213.1,38.6,212.76Zm7-17.58a7.33,7.33,0,0,1,1.92-3.8c-.43-.47-.84-.94-1.13-1.28a7.46,7.46,0,0,0-2.12,5Zm-2.92,38.94A6.28,6.28,0,0,1,46.58,232l-.1-1.3a7.2,7.2,0,0,0-4.69,2A5.89,5.89,0,0,0,42.71,234.12Zm45.45-31L88.07,202A6.23,6.23,0,0,0,84,203.74a5.21,5.21,0,0,0,.8,1.19A5.44,5.44,0,0,1,88.16,203.11Zm-2.19,3c.11-.09.22-.18.34-.26a6.45,6.45,0,0,1,2-1l-.12-1.53A8.9,8.9,0,0,0,85,205.16C85.31,205.49,85.66,205.84,86,206.14Zm-.41.09c-.22-.19-.52-.49-.82-.81a5.85,5.85,0,0,0-1.48,2.93l1.49.09a3.83,3.83,0,0,1,1-2.09A1.88,1.88,0,0,1,85.56,206.23Zm2.81,16.08-.1-1.29a7.14,7.14,0,0,0-4.69,2,6.1,6.1,0,0,0,.92,1.37A6.31,6.31,0,0,1,88.37,222.31Zm-5.42-14a5.93,5.93,0,0,1,1.58-3.14c-.35-.38-.69-.77-.93-1a6.16,6.16,0,0,0-1.75,4.12ZM69.24,227.53l-.1-1.36a7.53,7.53,0,0,0-4.94,2.13,6.54,6.54,0,0,0,1,1.44A6.65,6.65,0,0,1,69.24,227.53ZM66.71,196.2a7.4,7.4,0,0,1,1.92-3.8c-.43-.46-.84-.93-1.13-1.27a7.46,7.46,0,0,0-2.12,5Zm-5,73.68a5.24,5.24,0,0,1,3.24-1.75L64.83,267a6.11,6.11,0,0,0-3.92,1.71A5.14,5.14,0,0,0,61.67,269.88Zm8.7-76.34c.14-.11.27-.22.42-.32a7.84,7.84,0,0,1,2.4-1.17l-.14-1.85a10.8,10.8,0,0,0-3.85,2.16C69.58,192.76,70,193.18,70.37,193.54ZM73,189.86l-.11-1.36A7.54,7.54,0,0,0,68,190.63a6.56,6.56,0,0,0,1,1.45A6.73,6.73,0,0,1,73,189.86Zm.72,66.5a6.4,6.4,0,0,1,3.87-2.1l-.1-1.28a7.13,7.13,0,0,0-4.68,2A6.12,6.12,0,0,0,73.75,256.36ZM60.52,269.13a5.91,5.91,0,0,0-1.68,4l1,.06a5.91,5.91,0,0,1,1.53-3C61.08,269.77,60.75,269.4,60.52,269.13Zm11.87-13.66a7,7,0,0,0-2,4.73l1.27.07a7,7,0,0,1,1.82-3.6C73.05,256.23,72.66,255.79,72.39,255.47Zm1.3,1.45a6.93,6.93,0,0,0-1.7,3.37l1.72.1A4.39,4.39,0,0,1,74.84,258l-.2-.15A13.14,13.14,0,0,1,73.69,256.92Zm-4.81-64.25a7.26,7.26,0,0,0-1.79,3.55l1.81.11a4.59,4.59,0,0,1,1.19-2.52l-.21-.17A12.23,12.23,0,0,1,68.88,192.67ZM65.1,230.33a7.32,7.32,0,0,0-1.8,3.56l1.82.1a4.62,4.62,0,0,1,1.18-2.52l-.2-.16A12.59,12.59,0,0,1,65.1,230.33ZM41.19,215.44l-.21-.16a12.59,12.59,0,0,1-1-1,7.29,7.29,0,0,0-1.79,3.56L40,218A4.59,4.59,0,0,1,41.19,215.44ZM84.44,225a6.89,6.89,0,0,0-1.7,3.37l1.72.1a4.35,4.35,0,0,1,1.13-2.4,2.43,2.43,0,0,1-.2-.14A13.21,13.21,0,0,1,84.44,225Zm4-2.34a10.06,10.06,0,0,0-3.65,2.05c.36.38.76.77,1.11,1.12a4.24,4.24,0,0,1,.4-.31,7.58,7.58,0,0,1,2.28-1.11ZM61.87,270.11c.3.31.63.65.93.93.11-.08.21-.17.33-.25a6.27,6.27,0,0,1,1.91-.93l-.11-1.47A8.66,8.66,0,0,0,61.87,270.11ZM74,256.63c.35.38.75.78,1.11,1.12a4,4,0,0,1,.39-.3,7.65,7.65,0,0,1,2.28-1.12l-.13-1.75A10.3,10.3,0,0,0,74,256.63Zm9.13-33.12a7.09,7.09,0,0,0-2,4.74l1.26.07a6.92,6.92,0,0,1,1.82-3.6C83.8,224.28,83.41,223.83,83.13,223.51ZM65.42,230c.37.4.79.82,1.17,1.18a2.68,2.68,0,0,1,.42-.31,8.13,8.13,0,0,1,2.4-1.18l-.14-1.84A10.57,10.57,0,0,0,65.42,230Zm-3.8,40.33a5.77,5.77,0,0,0-1.43,2.82l1.44.09a3.71,3.71,0,0,1,.95-2l-.17-.12C62.2,271,61.91,270.66,61.62,270.35ZM43,234.39c.36.38.75.78,1.11,1.12a4.17,4.17,0,0,1,.4-.3,7.51,7.51,0,0,1,2.28-1.12l-.14-1.75A10.3,10.3,0,0,0,43,234.39Zm9-45.21a10.65,10.65,0,0,0-3.85,2.15c.38.4.8.82,1.17,1.19a3.32,3.32,0,0,1,.42-.32,8.28,8.28,0,0,1,2.4-1.18Zm-10.63,44a7.06,7.06,0,0,0-2,4.73l1.26.07a7,7,0,0,1,1.82-3.6Zm1.31,1.45a7,7,0,0,0-1.71,3.37l1.72.1a4.39,4.39,0,0,1,1.13-2.39,1.73,1.73,0,0,0-.2-.15A11.41,11.41,0,0,1,42.65,234.68Zm5.15-43A7.29,7.29,0,0,0,46,195.2l1.81.1A4.59,4.59,0,0,1,49,192.78l-.21-.16A12.59,12.59,0,0,1,47.8,191.64Zm6.58,59.76c.35.38.75.78,1.11,1.13a2.42,2.42,0,0,1,.39-.31,7.72,7.72,0,0,1,2.28-1.11L58,249.36A10,10,0,0,0,54.38,251.4ZM61,211.85l-.2-.14c-.25-.21-.58-.55-.93-.91a6.79,6.79,0,0,0-1.67,3.3l1.69.1A4.28,4.28,0,0,1,61,211.85Zm-8.22,38.39a7.09,7.09,0,0,0-2,4.74l1.26.07a6.88,6.88,0,0,1,1.83-3.6Zm1.31,1.46a6.89,6.89,0,0,0-1.7,3.37l1.72.1a4.35,4.35,0,0,1,1.13-2.4l-.2-.15A11,11,0,0,1,54.07,251.7Z"/>
        <path class="cls-6" d="M116.12,115.37A17.45,17.45,0,1,0,98.46,132.6,17.46,17.46,0,0,0,116.12,115.37Zm-8.33,50.88a17.22,17.22,0,1,0-17-17.43A17.22,17.22,0,0,0,107.79,166.25Zm35.43-44a17.68,17.68,0,1,0,17.46,17.89A17.68,17.68,0,0,0,143.22,122.27Zm-61.61-1.88A17.44,17.44,0,1,0,64,137.62,17.44,17.44,0,0,0,81.61,120.39Zm42.57,58.3a17.43,17.43,0,0,0-17.08,13,18.29,18.29,0,0,0,.42-3.73,18.58,18.58,0,1,0-18.8,18.35,18.81,18.81,0,0,0,5.17-.68,14.25,14.25,0,1,0,6.41-1.45,14.44,14.44,0,0,0-3.68.46,18.62,18.62,0,0,0,10.3-12.26,17.45,17.45,0,1,0,17.26-13.73ZM78.67,101.55a19,19,0,0,0,19-15.93,18.34,18.34,0,1,0,.1-5.53,19,19,0,1,0-19.09,21.46Zm48.92,2a14.5,14.5,0,1,0,14.68-14.32A14.5,14.5,0,0,0,127.59,103.5ZM84.8,156.68A16.54,16.54,0,1,0,68.06,173,16.55,16.55,0,0,0,84.8,156.68Z"/>
        <path class="cls-10" d="M78.46,100.41c12.46.15,21.2-10.84,18-22.21s-12.3-13.29-12.3-13.29c4.9,6.17,4.33,16.36-2.54,22.17-7.34,6.21-17.49,3.64-17.49,3.64S66,100.26,78.46,100.41Zm32.18-.74c11.3,2.41,22.71-4,22.62-14.9S126.87,70,126.87,70s3.51,9.11-5.65,17.15c-8,7-21.76.87-21.76.87S103.72,98.2,110.64,99.67ZM101,119.21c-6.63,5.6-15.79,3.28-15.79,3.28s1.74,8.61,13,8.75,19.13-9.78,16.19-20-11.1-12-11.1-12A14.73,14.73,0,0,1,101,119.21Zm40.73-2.07c9.25.12,15.74-8,13.32-16.48s-9.13-9.87-9.13-9.87A12.13,12.13,0,0,1,144,107.25c-5.44,4.61-13,2.7-13,2.7S132.48,117,141.73,117.14Zm17.16,19.44c-3-10.35-11.2-12.1-11.2-12.1,4.47,5.62,3.94,14.9-2.31,20.19-6.68,5.65-15.93,3.31-15.93,3.31s1.76,8.69,13.1,8.82S161.86,146.93,158.89,136.58ZM108.14,165c10.67.13,18.16-9.29,15.37-19S113,134.58,113,134.58a14,14,0,0,1-2.17,19c-6.29,5.32-15,3.12-15,3.12S97.46,164.86,108.14,165Zm-2.79,19.07c-3-10.54-11.4-12.32-11.4-12.32a15.13,15.13,0,0,1-2.35,20.55c-6.8,5.74-16.2,3.37-16.2,3.37s1.78,8.83,13.32,9S108.37,194.59,105.35,184.06Zm22.51-3.56a14.22,14.22,0,0,1-2.21,19.3c-6.39,5.4-15.22,3.16-15.22,3.16s1.67,8.3,12.51,8.44,18.46-9.44,15.62-19.33S127.86,180.5,127.86,180.5Zm-24.59,26.11a11.18,11.18,0,0,1-1.74,15.19c-5,4.25-12,2.49-12,2.49s1.32,6.54,9.85,6.64,14.53-7.43,12.3-15.22S103.27,206.61,103.27,206.61ZM82.55,152.87c-2.74-9.55-10.33-11.16-10.33-11.16a13.71,13.71,0,0,1-2.13,18.62c-6.17,5.21-14.69,3-14.69,3s1.61,8,12.08,8.14S85.28,162.41,82.55,152.87ZM79.44,116.8c-2.84-9.89-10.71-11.57-10.71-11.57a14.21,14.21,0,0,1-2.2,19.3c-6.39,5.4-15.22,3.16-15.22,3.16S53,136,63.82,136.13,82.27,126.69,79.44,116.8Z"/>
        <path class="cls-8" d="M87.22,113.08a12.11,12.11,0,0,1,3.18-6.26c-.71-.76-1.39-1.55-1.87-2.1C84.76,109,85,113,85,113ZM76.79,68.33l-.18-2.41a13.4,13.4,0,0,0-8.76,3.77,11,11,0,0,0,1.7,2.55A11.78,11.78,0,0,1,76.79,68.33ZM87.52,175l-.17-2.29A12.69,12.69,0,0,0,79,176.33a10.92,10.92,0,0,0,1.61,2.41A11.15,11.15,0,0,1,87.52,175Zm5.73-66.36a6.3,6.3,0,0,1,.7-.51,13.44,13.44,0,0,1,4-1.94l-.23-3a17.64,17.64,0,0,0-6.35,3.55C92,107.4,92.63,108.08,93.25,108.68Zm4.38-6.05-.17-2.24a12.41,12.41,0,0,0-8.14,3.51,10.3,10.3,0,0,0,1.58,2.37A10.94,10.94,0,0,1,97.63,102.63Zm-37.22,46a11.11,11.11,0,0,1,6.86-3.71l-.17-2.29a12.69,12.69,0,0,0-8.31,3.58A10.7,10.7,0,0,0,60.41,148.59Zm2.52-40.09-.18-2.41A13.35,13.35,0,0,0,54,109.86a11.42,11.42,0,0,0,1.7,2.55C58.81,109.16,61.82,108.59,62.93,108.5Zm2.66-28.93A13,13,0,0,1,69,72.84c-.76-.83-1.5-1.67-2-2.26-4,4.55-3.76,8.85-3.76,8.85ZM53.14,110.74c-4,4.55-3.76,8.86-3.76,8.86l2.36.13A12.84,12.84,0,0,1,55.15,113C54.39,112.18,53.65,111.34,53.14,110.74ZM58.22,115a6.32,6.32,0,0,1,.75-.55c3.06-1.9,4.26-2.09,4.26-2.09L63,109.09a19,19,0,0,0-6.83,3.83C56.81,113.62,57.55,114.36,58.22,115ZM103,81.38a13,13,0,0,1,3.41-6.73c-.76-.82-1.49-1.66-2-2.26-4,4.55-3.76,8.86-3.76,8.86Zm28.78,21.51a10.67,10.67,0,0,1,2.81-5.55c-.62-.68-1.23-1.37-1.66-1.87-3.34,3.76-3.1,7.31-3.1,7.31ZM141,93.62l-.16-2a11,11,0,0,0-7.22,3.1,8.77,8.77,0,0,0,1.4,2.11A9.7,9.7,0,0,1,141,93.62ZM137.09,99a5,5,0,0,1,.62-.46,12,12,0,0,1,3.51-1.72l-.21-2.7a15.9,15.9,0,0,0-5.63,3.16C135.93,97.85,136.54,98.46,137.09,99Zm4.26,28.67-.18-2.29a12.67,12.67,0,0,0-8.3,3.58,10.59,10.59,0,0,0,1.61,2.42A11.11,11.11,0,0,1,141.35,127.66Zm-5-28.51a18.66,18.66,0,0,1-1.46-1.43,10.66,10.66,0,0,0-2.62,5.2l2.65.15a6.68,6.68,0,0,1,1.73-3.69Zm-28.92,37.76-.19-2.41a13.35,13.35,0,0,0-8.76,3.77,11.55,11.55,0,0,0,1.7,2.55A11.8,11.8,0,0,1,107.45,136.91ZM94,212a9.33,9.33,0,0,1,5.75-3.11L99.62,207a10.64,10.64,0,0,0-7,3A9.2,9.2,0,0,0,94,212ZM57.71,115.47c-.12-.08-.23-.17-.36-.27-.47-.4-1.11-1-1.76-1.73a12.9,12.9,0,0,0-3.19,6.3l3.22.18A8.06,8.06,0,0,1,57.71,115.47Zm56.44-45.32L114,67.74a13.35,13.35,0,0,0-8.76,3.77,11.55,11.55,0,0,0,1.7,2.55A11.81,11.81,0,0,1,114.15,70.15ZM115.44,188a11.09,11.09,0,0,1,6.86-3.71l-.17-2.29a12.69,12.69,0,0,0-8.31,3.58A10.7,10.7,0,0,0,115.44,188ZM97.65,139.15C93.6,143.7,93.89,148,93.89,148l2.36.13a13,13,0,0,1,3.41-6.73C98.91,140.59,98.17,139.75,97.65,139.15ZM114.45,74l-.25-3.27a19,19,0,0,0-6.82,3.82c.65.71,1.4,1.45,2.06,2.09a6.1,6.1,0,0,1,.75-.56C113.25,74.21,114.45,74,114.45,74Zm-7.64,1.1a12.82,12.82,0,0,0-3.18,6.3l3.21.18a8.13,8.13,0,0,1,2.09-4.47c-.11-.09-.23-.17-.35-.28A21.08,21.08,0,0,1,106.81,75.12ZM113,186.43c-3.84,4.31-3.57,8.4-3.57,8.4l2.24.12a12.32,12.32,0,0,1,3.23-6.38C114.2,187.79,113.51,187,113,186.43Zm-12.35-45.1c.66.71,1.4,1.45,2.06,2.09a6.21,6.21,0,0,1,.76-.56c3.05-1.89,4.25-2.08,4.25-2.08l-.25-3.27A19,19,0,0,0,100.67,141.33Zm-.57.55a12.91,12.91,0,0,0-3.18,6.3l3.21.18a8.13,8.13,0,0,1,2.09-4.47l-.35-.28A21.08,21.08,0,0,1,100.1,141.88Zm-5.71,70.5c.52.56,1.11,1.14,1.63,1.65a7.15,7.15,0,0,1,.6-.44,11.46,11.46,0,0,1,3.38-1.65l-.2-2.6A15,15,0,0,0,94.39,212.38Zm47-84.15a18.19,18.19,0,0,0-6.47,3.62c.63.67,1.33,1.37,2,2a6.55,6.55,0,0,1,.71-.53,13.67,13.67,0,0,1,4-2ZM58,147c-3.84,4.31-3.57,8.4-3.57,8.4l2.24.12a12.32,12.32,0,0,1,3.23-6.38C59.17,148.37,58.48,147.57,58,147Zm57.35,42a12.19,12.19,0,0,0-3,6l3.05.17a7.62,7.62,0,0,1,2-4.24l-.34-.26A22.83,22.83,0,0,1,115.34,189Zm16.72-59.22c-3.84,4.31-3.56,8.4-3.56,8.4l2.23.12a12.28,12.28,0,0,1,3.24-6.38C133.25,131.15,132.55,130.35,132.06,129.79Zm-16.18,58.7c.63.67,1.32,1.37,2,2a5.57,5.57,0,0,1,.72-.53,13.89,13.89,0,0,1,4-2l-.23-3.09A18,18,0,0,0,115.88,188.49Zm18.5-56.12a12.24,12.24,0,0,0-3,6l3,.17a7.67,7.67,0,0,1,2-4.24l-.34-.26A22.64,22.64,0,0,1,134.38,132.37ZM78.24,177.16c-3.84,4.32-3.57,8.4-3.57,8.4l2.24.13a12.34,12.34,0,0,1,3.23-6.39C79.42,178.53,78.72,177.73,78.24,177.16ZM69.45,73.31a12.92,12.92,0,0,0-3.19,6.29l3.22.19a8.06,8.06,0,0,1,2.09-4.48L71.21,75C70.74,74.64,70.1,74,69.45,73.31Zm7.39-4.38A19,19,0,0,0,70,72.76c.66.7,1.41,1.44,2.07,2.08a7.25,7.25,0,0,1,.75-.55c3.06-1.9,4.26-2.09,4.26-2.09Zm-16,80.14c.63.67,1.32,1.37,1.95,2a6.7,6.7,0,0,1,.72-.53,13.53,13.53,0,0,1,4-2l-.24-3.11A18.26,18.26,0,0,0,60.85,149.07Zm-.54.52a12.27,12.27,0,0,0-3,6l3.05.17a7.62,7.62,0,0,1,2-4.24c-.11-.09-.22-.17-.33-.27A17.68,17.68,0,0,1,60.31,149.59Zm33.62,63.22a10.19,10.19,0,0,0-2.52,5L94,218a6.41,6.41,0,0,1,1.66-3.55l-.28-.22A17.46,17.46,0,0,1,93.93,212.81ZM92.78,109.12l-.33-.25c-.44-.37-1-1-1.65-1.61a12.07,12.07,0,0,0-3,5.85l3,.17A7.52,7.52,0,0,1,92.78,109.12ZM80.56,179.75a12.16,12.16,0,0,0-3,6l3,.18a7.66,7.66,0,0,1,2-4.25,3.75,3.75,0,0,1-.33-.26A19,19,0,0,1,80.56,179.75ZM92,210.65c-3.21,3.61-3,7-3,7l1.88.11a10.31,10.31,0,0,1,2.71-5.35C93,211.79,92.4,211.12,92,210.65ZM81.1,179.23c.62.67,1.32,1.37,2,2a5.57,5.57,0,0,1,.72-.53,13.52,13.52,0,0,1,4-2l-.23-3.1A17.94,17.94,0,0,0,81.1,179.23Z"/>
        <path class="cls-11" d="M116.2,165.77A15,15,0,1,0,101,180.61,15,15,0,0,0,116.2,165.77ZM109,209.58a14.83,14.83,0,1,0-14.64-15A14.83,14.83,0,0,0,109,209.58Zm30.51-37.86a15.21,15.21,0,1,0,15,15.4A15.2,15.2,0,0,0,139.54,171.72Zm-53-1.63a15,15,0,1,0-15.2,14.84A15,15,0,0,0,86.49,170.09Zm36.65,50.19a15,15,0,0,0-14.7,11.22,16,16,0,1,0-11.37,12,12.26,12.26,0,1,0,5.51-1.25,12.69,12.69,0,0,0-3.17.39,16,16,0,0,0,8.87-10.54,14.82,14.82,0,0,0-.34,3,15,15,0,1,0,15.2-14.84ZM84,153.87a16.38,16.38,0,0,0,16.35-13.71,15.81,15.81,0,1,0,.09-4.76A16.38,16.38,0,1,0,84,153.87Zm42.12,1.68a12.49,12.49,0,1,0,12.64-12.33A12.48,12.48,0,0,0,126.08,155.55ZM89.23,201.34A14.24,14.24,0,1,0,74.82,215.4,14.23,14.23,0,0,0,89.23,201.34Z"/>
        <path class="cls-7" d="M83.78,152.89c10.73.13,18.25-9.33,15.45-19.12s-10.59-11.45-10.59-11.45a14,14,0,0,1-2.19,19.09c-6.32,5.35-15.06,3.14-15.06,3.14S73.05,152.76,83.78,152.89Zm27.71-.64c9.73,2.07,19.55-3.46,19.47-12.83s-5.5-12.75-5.5-12.75,3,7.84-4.87,14.77c-6.84,6-18.73.75-18.73.75S105.52,151,111.49,152.25Zm-8.31,16.83c-5.7,4.82-13.59,2.82-13.59,2.82s1.5,7.42,11.18,7.53,16.47-8.42,13.94-17.25-9.56-10.33-9.56-10.33A12.68,12.68,0,0,1,103.18,169.08Zm35.07-1.78c8,.09,13.55-6.93,11.47-14.2s-7.86-8.49-7.86-8.49a10.43,10.43,0,0,1-1.62,14.17c-4.69,4-11.18,2.32-11.18,2.32S130.29,167.2,138.25,167.3ZM153,184c-2.56-8.91-9.64-10.42-9.64-10.42a12.81,12.81,0,0,1-2,17.38c-5.76,4.87-13.72,2.86-13.72,2.86s1.51,7.48,11.28,7.6S155.58,193,153,184Zm-43.7,24.47c9.19.11,15.64-8,13.23-16.39s-9.07-9.8-9.07-9.8a12,12,0,0,1-1.87,16.35c-5.41,4.58-12.9,2.69-12.9,2.69S100.14,208.38,109.33,208.5Zm-2.4,16.41c-2.6-9.07-9.81-10.6-9.81-10.6a13,13,0,0,1-2,17.68c-5.85,5-14,2.9-14,2.9s1.54,7.61,11.47,7.74S109.53,234,106.93,224.91Zm19.38-3.06a12.23,12.23,0,0,1-1.9,16.61c-5.5,4.65-13.11,2.73-13.11,2.73s1.44,7.15,10.78,7.26,15.89-8.12,13.44-16.64S126.31,221.85,126.31,221.85Zm-21.17,22.47a9.63,9.63,0,0,1-1.5,13.09c-4.33,3.66-10.32,2.14-10.32,2.14s1.14,5.63,8.49,5.72,12.51-6.4,10.59-13.11S105.14,244.32,105.14,244.32ZM87.3,198.06c-2.36-8.22-8.9-9.61-8.9-9.61a11.8,11.8,0,0,1-1.83,16c-5.31,4.49-12.64,2.63-12.64,2.63s1.39,6.9,10.39,7S89.65,206.28,87.3,198.06ZM84.62,167c-2.44-8.52-9.21-10-9.21-10a12.25,12.25,0,0,1-1.91,16.62c-5.5,4.65-13.1,2.72-13.1,2.72s1.44,7.15,10.78,7.26S87.06,175.52,84.62,167Z"/>
        <path class="cls-8" d="M91.33,163.8a10.31,10.31,0,0,1,2.73-5.39c-.61-.66-1.2-1.33-1.61-1.81-3.24,3.64-3,7.09-3,7.09Zm-9-38.53-.16-2.07a11.51,11.51,0,0,0-7.54,3.25,9.73,9.73,0,0,0,1.47,2.19A10.17,10.17,0,0,1,82.34,125.27Zm9.24,91.87-.15-2a10.91,10.91,0,0,0-7.15,3.07,9.26,9.26,0,0,0,1.39,2.08A9.63,9.63,0,0,1,91.58,217.14ZM96.51,160a7.35,7.35,0,0,1,.61-.44,11.31,11.31,0,0,1,3.41-1.67l-.21-2.62a15.35,15.35,0,0,0-5.46,3.07C95.39,158.91,96,159.5,96.51,160Zm3.78-5.2-.15-1.94a10.72,10.72,0,0,0-7,3,8.78,8.78,0,0,0,1.37,2.05A9.34,9.34,0,0,1,100.29,154.81ZM68.23,194.37a9.57,9.57,0,0,1,5.92-3.19l-.16-2a10.91,10.91,0,0,0-7.15,3.08A9.87,9.87,0,0,0,68.23,194.37Zm2.18-34.52-.16-2.07A11.47,11.47,0,0,0,62.71,161a10,10,0,0,0,1.46,2.2A10.13,10.13,0,0,1,70.41,159.85ZM72.7,135a11.2,11.2,0,0,1,2.94-5.8c-.65-.71-1.28-1.43-1.73-2-3.49,3.92-3.24,7.63-3.24,7.63ZM62,161.78c-3.49,3.92-3.24,7.63-3.24,7.63l2,.11a11.14,11.14,0,0,1,2.94-5.79C63.06,163,62.42,162.3,62,161.78Zm3.93,4.08-.3-.24a20.16,20.16,0,0,1-1.53-1.49,11.22,11.22,0,0,0-2.74,5.43l2.77.15A7,7,0,0,1,65.91,165.86Zm.44-.41A5.42,5.42,0,0,1,67,165a12.16,12.16,0,0,1,3.67-1.8l-.22-2.81a16.31,16.31,0,0,0-5.88,3.29C65.14,164.27,65.78,164.9,66.35,165.45Zm34,20.8c-3.48,3.92-3.23,7.62-3.23,7.62l2,.12a11.2,11.2,0,0,1,2.93-5.8C101.38,187.48,100.75,186.76,100.3,186.25Zm37.3-39.2-.13-1.72a9.53,9.53,0,0,0-6.22,2.68,7.69,7.69,0,0,0,1.22,1.82A8.29,8.29,0,0,1,137.6,147.05Zm-7.95,8a9.26,9.26,0,0,1,2.42-4.79c-.53-.58-1.06-1.18-1.42-1.6a9.33,9.33,0,0,0-2.67,6.29Zm4.61-3.36a3.63,3.63,0,0,1,.53-.39,10.29,10.29,0,0,1,3-1.49l-.18-2.32a13.37,13.37,0,0,0-4.85,2.72C133.26,150.69,133.78,151.21,134.26,151.67Zm3.67,24.68-.16-2a11,11,0,0,0-7.15,3.08,9.26,9.26,0,0,0,1.39,2.08A9.65,9.65,0,0,1,137.93,176.35Zm-4.29-24.54a15.5,15.5,0,0,1-1.25-1.23,9.2,9.2,0,0,0-2.27,4.47l2.29.13a5.75,5.75,0,0,1,1.48-3.18ZM97.18,249a8,8,0,0,1,4.94-2.68l-.12-1.65a9.16,9.16,0,0,0-6,2.58A7.83,7.83,0,0,0,97.18,249Zm18.43-20.64a9.61,9.61,0,0,1,5.92-3.19l-.15-2a10.92,10.92,0,0,0-7.16,3.08A9.87,9.87,0,0,0,115.61,228.31Zm-10.74-91.8a11.16,11.16,0,0,1,2.94-5.8c-.65-.7-1.29-1.43-1.73-1.94-3.49,3.92-3.24,7.62-3.24,7.62Zm3.87,47.81-.16-2.08a11.51,11.51,0,0,0-7.54,3.25,9.29,9.29,0,0,0,1.46,2.19A10.1,10.1,0,0,1,108.74,184.32Zm5.77-57.48-.16-2.08a11.51,11.51,0,0,0-7.54,3.25,9.73,9.73,0,0,0,1.47,2.19A10.08,10.08,0,0,1,114.51,126.84Zm-1,100.11c-3.31,3.71-3.07,7.23-3.07,7.23l1.93.11a10.58,10.58,0,0,1,2.78-5.5C114.55,228.12,114,227.44,113.53,227Zm-5.34-95.83a11.14,11.14,0,0,0-2.75,5.42l2.77.16a7,7,0,0,1,1.8-3.85l-.3-.24A18.54,18.54,0,0,1,108.19,131.12Zm6.58-1-.22-2.81a16.37,16.37,0,0,0-5.87,3.29c.57.61,1.2,1.24,1.77,1.8a5.47,5.47,0,0,1,.65-.48A12.53,12.53,0,0,1,114.77,130.16Zm-11.87,58c.57.61,1.21,1.24,1.78,1.8a6.28,6.28,0,0,1,.64-.48,12.23,12.23,0,0,1,3.67-1.79l-.21-2.82A16.39,16.39,0,0,0,102.9,188.12Zm-.49.48A11.1,11.1,0,0,0,99.67,194l2.77.16a7,7,0,0,1,1.8-3.86l-.31-.23A20.29,20.29,0,0,1,102.41,188.6Zm13.12,40.58a10.54,10.54,0,0,0-2.6,5.14l2.63.15a6.61,6.61,0,0,1,1.7-3.66l-.29-.22A20.08,20.08,0,0,1,115.53,229.18Zm-18,20.11c.45.48,1,1,1.41,1.43a4.82,4.82,0,0,1,.51-.38,9.75,9.75,0,0,1,2.92-1.43l-.18-2.23A13,13,0,0,0,97.49,249.29Zm34.44-68.88a10.54,10.54,0,0,0-2.6,5.14l2.63.15a6.56,6.56,0,0,1,1.7-3.65c-.09-.07-.19-.14-.29-.23A16.62,16.62,0,0,1,131.93,180.41Zm6-3.57a15.5,15.5,0,0,0-5.57,3.12c.54.58,1.14,1.18,1.69,1.7a5.65,5.65,0,0,1,.61-.45,11.46,11.46,0,0,1,3.48-1.7Zm-8,1.34c-3.31,3.72-3.07,7.23-3.07,7.23l1.92.11a10.68,10.68,0,0,1,2.79-5.49C131,179.36,130.35,178.67,129.93,178.18ZM116,228.73c.55.57,1.15,1.17,1.69,1.7a5.65,5.65,0,0,1,.61-.45,11.9,11.9,0,0,1,3.48-1.71l-.2-2.67A15.67,15.67,0,0,0,116,228.73ZM66.15,193c-3.31,3.71-3.07,7.23-3.07,7.23l1.93.11a10.58,10.58,0,0,1,2.78-5.5C67.17,194.18,66.57,193.5,66.15,193Zm16.23-67.22a16.21,16.21,0,0,0-5.87,3.29c.57.61,1.2,1.24,1.77,1.79a6.8,6.8,0,0,1,.65-.47,12.53,12.53,0,0,1,3.67-1.8ZM76,129.55A11,11,0,0,0,73.28,135l2.76.15a7,7,0,0,1,1.8-3.85l-.3-.23A20.75,20.75,0,0,1,76,129.55ZM83.59,219c-3.31,3.72-3.07,7.24-3.07,7.24l1.92.1a10.6,10.6,0,0,1,2.79-5.49C84.61,220.15,84,219.46,83.59,219ZM68.15,195.24a10.54,10.54,0,0,0-2.6,5.14l2.63.15a6.56,6.56,0,0,1,1.7-3.65l-.29-.23A20.08,20.08,0,0,1,68.15,195.24Zm.46-.45c.54.57,1.15,1.17,1.69,1.7a5.65,5.65,0,0,1,.61-.45,11.9,11.9,0,0,1,3.48-1.71l-.21-2.66A15.5,15.5,0,0,0,68.61,194.79Zm26.82,53a9,9,0,0,0-2.57,6.06l1.61.09a8.88,8.88,0,0,1,2.33-4.6C96.28,248.79,95.78,248.21,95.43,247.8Zm.68-87.41-.29-.22a19.35,19.35,0,0,1-1.41-1.38,10.27,10.27,0,0,0-2.55,5l2.57.14A6.51,6.51,0,0,1,96.11,160.39ZM85.58,221.2A10.59,10.59,0,0,0,83,226.34l2.62.15a6.62,6.62,0,0,1,1.71-3.65,2.92,2.92,0,0,1-.29-.23A18.08,18.08,0,0,1,85.58,221.2ZM97.1,249.67A8.84,8.84,0,0,0,94.92,254l2.2.12A5.54,5.54,0,0,1,98.55,251l-.24-.19C98,250.58,97.55,250.14,97.1,249.67Zm-11-28.92c.54.58,1.14,1.18,1.68,1.7a4.94,4.94,0,0,1,.62-.45,11.51,11.51,0,0,1,3.47-1.7l-.2-2.67A15.58,15.58,0,0,0,86.05,220.75Z"/>
        <path class="cls-12" d="M67,132.49a12.29,12.29,0,1,0-12.44,12.13A12.29,12.29,0,0,0,67,132.49ZM61.1,168.31a12.13,12.13,0,1,0-12-12.27A12.13,12.13,0,0,0,61.1,168.31Zm24.95-31a12.44,12.44,0,1,0,12.3,12.59A12.43,12.43,0,0,0,86.05,137.35ZM42.67,136a12.28,12.28,0,1,0-12.43,12.13A12.29,12.29,0,0,0,42.67,136Zm30,41a12.27,12.27,0,0,0-12,9.18,14,14,0,0,0,.3-2.62,13.09,13.09,0,1,0-13.24,12.92,13.27,13.27,0,0,0,3.64-.48,10.19,10.19,0,1,0,1.91-.7,13.08,13.08,0,0,0,7.26-8.63,12.44,12.44,0,0,0-.28,2.46,12.29,12.29,0,1,0,12.43-12.13Zm-32-54.32A13.4,13.4,0,0,0,54,111.54a12.92,12.92,0,1,0,.07-3.9A13.4,13.4,0,1,0,40.6,122.75Zm34.45,1.38A10.21,10.21,0,1,0,85.38,114,10.2,10.2,0,0,0,75.05,124.13ZM44.91,161.57a11.65,11.65,0,1,0-11.79,11.51A11.63,11.63,0,0,0,44.91,161.57Z"/>
        <path class="cls-13" d="M40.45,122c8.78.11,14.93-7.64,12.64-15.64S44.43,97,44.43,97a11.5,11.5,0,0,1-1.79,15.61c-5.17,4.37-12.32,2.56-12.32,2.56S31.68,121.84,40.45,122Zm22.66-.52c8,1.69,16-2.84,15.93-10.5s-4.5-10.42-4.5-10.42,2.47,6.41-4,12.08c-5.6,4.91-15.32.61-15.32.61S58.24,120.39,63.11,121.43Zm-6.79,13.76c-4.67,3.94-11.11,2.31-11.11,2.31s1.22,6.06,9.14,6.16,13.47-6.89,11.4-14.11-7.82-8.45-7.82-8.45A10.38,10.38,0,0,1,56.32,135.19ZM85,133.73c6.51.08,11.09-5.66,9.38-11.61S88,115.18,88,115.18a8.52,8.52,0,0,1-1.32,11.58c-3.84,3.25-9.14,1.91-9.14,1.91S78.49,133.65,85,133.73Zm12.09,13.69c-2.09-7.29-7.89-8.52-7.89-8.52a10.46,10.46,0,0,1-1.62,14.21c-4.71,4-11.22,2.34-11.22,2.34s1.23,6.11,9.22,6.21S99.18,154.71,97.09,147.42Zm-35.74,20c7.51.09,12.79-6.54,10.82-13.4s-7.42-8-7.42-8a9.84,9.84,0,0,1-1.53,13.38c-4.43,3.74-10.55,2.19-10.55,2.19S53.83,167.34,61.35,167.43Zm-2,13.42c-2.12-7.41-8-8.67-8-8.67a10.66,10.66,0,0,1-1.65,14.47c-4.79,4-11.41,2.37-11.41,2.37s1.25,6.22,9.38,6.32S61.51,188.27,59.38,180.85Zm15.86-2.5a10,10,0,0,1-1.56,13.58c-4.5,3.81-10.72,2.24-10.72,2.24s1.18,5.84,8.82,5.93,13-6.64,11-13.61S75.24,178.35,75.24,178.35ZM57.92,196.73a7.88,7.88,0,0,1-1.22,10.7c-3.54,3-8.44,1.75-8.44,1.75s.93,4.61,6.94,4.68,10.23-5.23,8.66-10.72S57.92,196.73,57.92,196.73ZM43.33,158.89c-1.93-6.72-7.27-7.86-7.27-7.86a9.66,9.66,0,0,1-1.5,13.11c-4.34,3.67-10.35,2.15-10.35,2.15s1.14,5.64,8.51,5.73S45.26,165.61,43.33,158.89Zm-2.19-25.4c-2-7-7.54-8.14-7.54-8.14a10,10,0,0,1-1.55,13.58c-4.5,3.81-10.72,2.23-10.72,2.23s1.18,5.85,8.81,5.94S43.14,140.46,41.14,133.49Z"/>
        <path class="cls-8" d="M26.2,132.22a4.51,4.51,0,0,1,.53-.38,9.92,9.92,0,0,1,3-1.47l-.18-2.31a13.32,13.32,0,0,0-4.81,2.7C25.21,131.25,25.73,131.77,26.2,132.22Zm-.36.34-.25-.2a16.93,16.93,0,0,1-1.25-1.22,9.21,9.21,0,0,0-2.24,4.44l2.27.13A5.67,5.67,0,0,1,25.84,132.56Zm3.68-4.92L29.39,126a9.39,9.39,0,0,0-6.17,2.65,7.89,7.89,0,0,0,1.2,1.8A8.37,8.37,0,0,1,29.52,127.64Zm-6.9,1.58A9.31,9.31,0,0,0,20,135.46l1.66.09a9.13,9.13,0,0,1,2.4-4.74C23.5,130.23,23,129.64,22.62,129.22Zm43-28.58-.13-1.7a9.43,9.43,0,0,0-6.17,2.66,7.89,7.89,0,0,0,1.2,1.8A8.32,8.32,0,0,1,65.59,100.64ZM39.28,99.36l-.13-1.69A9.39,9.39,0,0,0,33,100.32a7.89,7.89,0,0,0,1.2,1.8A8.37,8.37,0,0,1,39.28,99.36Zm-7.89,7.91a9.21,9.21,0,0,1,2.4-4.74c-.53-.58-1-1.17-1.41-1.59a9.31,9.31,0,0,0-2.65,6.24Zm-3.65,48.61a8,8,0,0,1,4.83-2.62l-.12-1.61a8.94,8.94,0,0,0-5.85,2.52A7.34,7.34,0,0,0,27.74,155.88Zm32.67-51.74a9.17,9.17,0,0,0-2.24,4.44l2.27.13a5.67,5.67,0,0,1,1.47-3.15l-.25-.2A16.93,16.93,0,0,1,60.41,104.14Zm-1.72-1.92A9.31,9.31,0,0,0,56,108.46l1.66.09a9.17,9.17,0,0,1,2.41-4.74C59.57,103.23,59.05,102.64,58.69,102.22Zm-24.19.26c.47.49,1,1,1.46,1.46a4.55,4.55,0,0,1,.53-.39,10.29,10.29,0,0,1,3-1.47l-.18-2.3A13.4,13.4,0,0,0,34.5,102.48ZM26,154.76a8.83,8.83,0,0,0-2.51,5.92l1.58.08a8.59,8.59,0,0,1,2.28-4.49C26.87,155.72,26.38,155.16,26,154.76Zm39.59-53.7a13.22,13.22,0,0,0-4.8,2.7c.46.49,1,1,1.45,1.46a4.55,4.55,0,0,1,.53-.39,10.29,10.29,0,0,1,3-1.47Zm-31.52,1.8a9.17,9.17,0,0,0-2.24,4.44l2.27.13a5.67,5.67,0,0,1,1.47-3.15l-.25-.2A16.93,16.93,0,0,1,34.1,102.86Zm-6.43,53.72a8.74,8.74,0,0,0-2.13,4.21l2.15.12a5.42,5.42,0,0,1,1.4-3l-.24-.19A13.76,13.76,0,0,1,27.67,156.58Zm.38-.36c.44.47.94,1,1.38,1.4a3.14,3.14,0,0,1,.5-.38,9.36,9.36,0,0,1,2.84-1.39l-.17-2.19A12.73,12.73,0,0,0,28.05,156.22Z"/>
        <path class="cls-14" d="M93.91,138.19A15,15,0,1,0,78.71,153,15,15,0,0,0,93.91,138.19ZM86.74,182A14.82,14.82,0,1,0,72.1,167,14.81,14.81,0,0,0,86.74,182Zm30.51-37.86a15.22,15.22,0,1,0,15,15.4A15.23,15.23,0,0,0,117.25,144.13Zm-53-1.62A15,15,0,1,0,49,157.34,15,15,0,0,0,64.2,142.51Zm36.65,50.19a15,15,0,0,0-14.7,11.23,16.19,16.19,0,0,0,.36-3.21,16.06,16.06,0,1,0-11.74,15.21,12.7,12.7,0,1,0,2.35-.85A16,16,0,0,0,86,204.52a15,15,0,1,0,14.86-11.82ZM61.67,126.28A16.37,16.37,0,0,0,78,112.57a15.81,15.81,0,1,0,.09-4.75,16.38,16.38,0,1,0-16.44,18.46ZM103.79,128a12.48,12.48,0,1,0,12.63-12.33A12.49,12.49,0,0,0,103.79,128ZM66.94,173.75a14.24,14.24,0,1,0-14.41,14.07A14.24,14.24,0,0,0,66.94,173.75Z"/>
        <path class="cls-6" d="M61.49,125.31c10.72.13,18.25-9.34,15.45-19.13S66.35,94.74,66.35,94.74a14.06,14.06,0,0,1-2.19,19.09C57.84,119.17,49.1,117,49.1,117S50.76,125.17,61.49,125.31Zm27.71-.64c9.72,2.07,19.55-3.47,19.47-12.83s-5.5-12.75-5.5-12.75,3,7.84-4.87,14.77c-6.84,6-18.74.74-18.74.74S83.23,123.4,89.2,124.67Zm-8.31,16.82c-5.7,4.83-13.59,2.83-13.59,2.83s1.5,7.41,11.17,7.53,16.48-8.42,14-17.26-9.56-10.32-9.56-10.32A12.68,12.68,0,0,1,80.89,141.49ZM116,139.71c8,.1,13.55-6.93,11.47-14.19s-7.86-8.5-7.86-8.5a10.43,10.43,0,0,1-1.63,14.17c-4.69,4-11.17,2.33-11.17,2.33S108,139.62,116,139.71Zm14.78,16.74c-2.56-8.92-9.65-10.42-9.65-10.42a12.79,12.79,0,0,1-2,17.38c-5.75,4.87-13.71,2.85-13.71,2.85s1.51,7.48,11.28,7.6S133.29,165.36,130.74,156.45ZM87,180.91c9.19.11,15.64-8,13.23-16.38s-9.07-9.81-9.07-9.81a12,12,0,0,1-1.87,16.36c-5.42,4.58-12.9,2.68-12.9,2.68S77.85,180.8,87,180.91Zm-2.4,16.41c-2.6-9.06-9.81-10.6-9.81-10.6a13,13,0,0,1-2,17.69c-5.86,5-13.95,2.9-13.95,2.9s1.53,7.61,11.47,7.73S87.24,206.39,84.64,197.32ZM104,194.26a12.25,12.25,0,0,1-1.9,16.62C96.62,215.53,89,213.6,89,213.6s1.44,7.15,10.78,7.26,15.88-8.12,13.44-16.64S104,194.26,104,194.26ZM82.85,216.74a9.62,9.62,0,0,1-1.5,13.08C77,233.48,71,232,71,232s1.14,5.63,8.49,5.72,12.51-6.4,10.59-13.11S82.85,216.74,82.85,216.74ZM65,170.47c-2.36-8.22-8.9-9.61-8.9-9.61a11.8,11.8,0,0,1-1.83,16c-5.31,4.49-12.65,2.63-12.65,2.63s1.39,6.9,10.4,7S67.36,178.69,65,170.47Zm-2.68-31.05c-2.44-8.52-9.22-10-9.22-10a12.22,12.22,0,0,1-1.9,16.61c-5.5,4.65-13.1,2.73-13.1,2.73s1.44,7.15,10.77,7.26S64.77,147.94,62.33,139.42Z"/>
        <path class="cls-15" d="M69.29,189.56l-.15-2A10.89,10.89,0,0,0,62,190.67a9.14,9.14,0,0,0,1.39,2.08A9.57,9.57,0,0,1,69.29,189.56ZM60.05,97.69l-.16-2.08a11.51,11.51,0,0,0-7.54,3.25,10,10,0,0,0,1.47,2.2A10,10,0,0,1,60.05,97.69Zm9,38.52a10.46,10.46,0,0,1,2.73-5.39c-.6-.65-1.19-1.33-1.6-1.8-3.25,3.64-3,7.09-3,7.09Zm5.19-3.78a4.41,4.41,0,0,1,.6-.44,11.45,11.45,0,0,1,3.41-1.67L78,127.7a15.12,15.12,0,0,0-5.46,3.06C73.1,131.33,73.69,131.91,74.22,132.43ZM78,127.22l-.15-1.93a10.66,10.66,0,0,0-7,3,9,9,0,0,0,1.37,2.05A9.43,9.43,0,0,1,78,127.22ZM50.41,107.36a11.1,11.1,0,0,1,2.94-5.79c-.65-.71-1.29-1.44-1.73-1.95-3.49,3.92-3.24,7.63-3.24,7.63ZM39.68,134.2c-3.48,3.92-3.23,7.63-3.23,7.63l2,.11a11.2,11.2,0,0,1,2.93-5.8C40.76,135.44,40.13,134.71,39.68,134.2Zm8.44-1.93L48,130.19a11.51,11.51,0,0,0-7.54,3.25,9.29,9.29,0,0,0,1.46,2.19A10.1,10.1,0,0,1,48.12,132.27ZM78,158.66c-3.48,3.92-3.24,7.63-3.24,7.63l2,.11a11.3,11.3,0,0,1,2.94-5.79C79.09,159.9,78.46,159.18,78,158.66Zm-32.07,8.12a9.62,9.62,0,0,1,5.92-3.19l-.16-2a10.91,10.91,0,0,0-7.15,3.07A9.26,9.26,0,0,0,45.94,166.78Zm-1.88-28.91a5.47,5.47,0,0,1,.65-.48,12.28,12.28,0,0,1,3.66-1.79l-.21-2.82a16.39,16.39,0,0,0-5.88,3.29C42.85,136.68,43.49,137.31,44.06,137.87Zm-.44.41-.3-.24a20.16,20.16,0,0,1-1.53-1.49A11.1,11.1,0,0,0,39.05,142l2.77.16A7,7,0,0,1,43.62,138.28Zm71.69-18.82-.13-1.71a9.47,9.47,0,0,0-6.22,2.68,7.91,7.91,0,0,0,1.21,1.82A8.42,8.42,0,0,1,115.31,119.46ZM112,124.08a5.76,5.76,0,0,1,.54-.39,10,10,0,0,1,3-1.48l-.18-2.32a13.52,13.52,0,0,0-4.84,2.71C111,123.1,111.49,123.63,112,124.08Zm3.67,24.69-.15-2a10.89,10.89,0,0,0-7.15,3.08,9.49,9.49,0,0,0,1.39,2.08A9.6,9.6,0,0,1,115.63,148.77Zm-8.27-21.33a9.16,9.16,0,0,1,2.42-4.78c-.54-.58-1.06-1.18-1.43-1.6a9.39,9.39,0,0,0-2.67,6.29Zm4-3.22a15.36,15.36,0,0,1-1.26-1.23,9.33,9.33,0,0,0-2.26,4.48l2.29.13a5.75,5.75,0,0,1,1.48-3.18ZM82.58,108.93a11.12,11.12,0,0,1,2.94-5.8c-.65-.71-1.29-1.43-1.73-1.95-3.49,3.92-3.24,7.63-3.24,7.63ZM74.89,221.37a8.13,8.13,0,0,1,4.94-2.69L79.7,217a9.1,9.1,0,0,0-6,2.57A7.51,7.51,0,0,0,74.89,221.37Zm11.55-64.64-.16-2.07a11.48,11.48,0,0,0-7.54,3.24,9.74,9.74,0,0,0,1.47,2.2A10.11,10.11,0,0,1,86.44,156.73Zm5.78-57.48-.16-2.07a11.47,11.47,0,0,0-7.54,3.24,9.76,9.76,0,0,0,1.46,2.2A10.13,10.13,0,0,1,92.22,99.25Zm1.1,101.47a9.63,9.63,0,0,1,5.91-3.19l-.15-2a11,11,0,0,0-7.15,3.08A9,9,0,0,0,93.32,200.72ZM80.12,161a11,11,0,0,0-2.74,5.43l2.77.15a6.92,6.92,0,0,1,1.8-3.85l-.31-.24A20.29,20.29,0,0,1,80.12,161Zm-36.26,4.41c-3.31,3.72-3.07,7.24-3.07,7.24l1.92.11a10.7,10.7,0,0,1,2.79-5.5C44.88,166.6,44.28,165.91,43.86,165.42Zm47.38,33.94c-3.31,3.72-3.07,7.24-3.07,7.24l1.92.1a10.72,10.72,0,0,1,2.79-5.49C92.26,200.54,91.66,199.85,91.24,199.36ZM80.61,160.54c.57.61,1.2,1.24,1.77,1.79a6,6,0,0,1,.65-.47,12.16,12.16,0,0,1,3.67-1.8l-.22-2.82A16.52,16.52,0,0,0,80.61,160.54Zm5.28-57A11.22,11.22,0,0,0,83.15,109l2.77.15a7,7,0,0,1,1.8-3.85c-.1-.08-.2-.15-.3-.24A20.16,20.16,0,0,1,85.89,103.53Zm7.35,98.06a10.52,10.52,0,0,0-2.6,5.15l2.63.14a6.56,6.56,0,0,1,1.7-3.65c-.09-.07-.19-.14-.29-.23A16.62,16.62,0,0,1,93.24,201.59Zm.46-.45c.54.58,1.14,1.18,1.69,1.7a7.41,7.41,0,0,1,.61-.45,11.6,11.6,0,0,1,3.48-1.7L99.27,198A15.58,15.58,0,0,0,93.7,201.14Zm22-51.89a15.65,15.65,0,0,0-5.57,3.13c.54.57,1.14,1.17,1.68,1.7a4.94,4.94,0,0,1,.62-.45,11.76,11.76,0,0,1,3.48-1.71Zm-6,3.58A10.46,10.46,0,0,0,107,158l2.62.15a6.62,6.62,0,0,1,1.71-3.65l-.29-.23A16.62,16.62,0,0,1,109.64,152.83Zm-2-2.23c-3.31,3.71-3.07,7.23-3.07,7.23l1.92.11a10.62,10.62,0,0,1,2.79-5.5C108.66,151.77,108.06,151.09,107.64,150.6ZM75.2,221.71c.45.48,1,1,1.41,1.42.16-.13.33-.26.51-.38A9.87,9.87,0,0,1,80,221.33l-.17-2.24A13,13,0,0,0,75.2,221.71ZM92.48,102.58l-.22-2.81a16.31,16.31,0,0,0-5.88,3.29c.57.61,1.21,1.24,1.78,1.79a5.42,5.42,0,0,1,.65-.47A12.53,12.53,0,0,1,92.48,102.58ZM60.09,98.2a16.27,16.27,0,0,0-5.87,3.3c.57.6,1.2,1.24,1.77,1.79a5.47,5.47,0,0,1,.65-.48A12.23,12.23,0,0,1,60.31,101ZM53.73,102A11.18,11.18,0,0,0,51,107.39l2.77.16a7,7,0,0,1,1.8-3.85c-.1-.08-.2-.15-.3-.24A18.54,18.54,0,0,1,53.73,102ZM46.32,167.2c.54.58,1.14,1.18,1.69,1.7a7.41,7.41,0,0,1,.61-.45,11.83,11.83,0,0,1,3.48-1.7l-.21-2.67A15.66,15.66,0,0,0,46.32,167.2Zm-.46.45a10.52,10.52,0,0,0-2.6,5.15l2.62.15a6.63,6.63,0,0,1,1.71-3.66l-.29-.22A18.61,18.61,0,0,1,45.86,167.65Zm15.43,23.74c-3.3,3.71-3.07,7.23-3.07,7.23l1.93.11a10.58,10.58,0,0,1,2.78-5.5C62.32,192.56,61.72,191.88,61.29,191.39Zm2,2.23a10.54,10.54,0,0,0-2.6,5.14l2.63.15A6.58,6.58,0,0,1,65,195.25l-.29-.22A18.08,18.08,0,0,1,63.29,193.62Zm9.85,26.6a9,9,0,0,0-2.57,6.05l1.61.1a8.9,8.9,0,0,1,2.33-4.61C74,221.2,73.49,220.63,73.14,220.22Zm1.67,1.86a8.92,8.92,0,0,0-2.18,4.31l2.2.13a5.54,5.54,0,0,1,1.43-3.06l-.24-.19A14.5,14.5,0,0,1,74.81,222.08Zm-1-89.27-.28-.22a17.82,17.82,0,0,1-1.41-1.39,10.22,10.22,0,0,0-2.55,5l2.57.15A6.46,6.46,0,0,1,73.81,132.81ZM63.76,193.17c.54.57,1.14,1.17,1.68,1.7a4.94,4.94,0,0,1,.62-.45,11.81,11.81,0,0,1,3.47-1.71l-.2-2.67A15.65,15.65,0,0,0,63.76,193.17Z"/>
        <path class="cls-16" d="M202.91,125.14c-5-9-12-15.12-8.95-16.25s6-3.9.85-4.82-10.46-3.45-7.37-4.59,7.44-3.54,3.66-4.76-8.89-2.14-6.32-3.72,7.81-2.51,4-3.43-11.9-7.88-8-9.76S189,73.52,184.1,73s-10.13.39-8.74-1.47,6.45-6,.12-3.11-15.57,11.31-22,8.19-6.13-14.95,3.79-13.19,23.61,2.22,22-.06-1.49-1.61-4.16-2.25.58-1.12,4-2.18,7-3,4-3.74-6.66-1-2.47-4,11.31-7.94,7.47-7.61S173,42.39,174.93,40.67s5.95-3.9.41-3-10.11,1.64-9-.29,4.61-4.85.49-3.33-12,1.81-10.28-.27,4.32-3.67.34-2.74-12.23,4-9.83.46,5.42-5.6.86-3.56-10.45,5.64-8.62,3.26,6.07-7,0-2.81-8.77,10.43-8.44,6.44,1-10.73-1.36-3.47-2.45,6.31-3.84,8.17-1.66,4.31-3.9,1.89-.79-4.58.82-7.33,1-4.15-1.95-2.35-5.24.94-3.64-1.81,5.49-5.89,1.14-4.75-7.65,4.44-6.35.36-.13-6-2.1-3-3,7.42-5.58,4.93-6.17-4.31-5.77-.76,1.05,8.71-.75,7-5.35-3.8-4.36-.11S95,42.15,93,41.06s-5.12-2.17-3.75,1.29,4.88,8.38,2,8.63-8.29-.73-2.57,1.58,23.93,3.7,23.68,16.49c0,0-3.88,5.86-10.46-2S91.79,60.51,86.3,58.57s-9.92-1.76-8.06-.37,6.68,3.49,3.8,3.74S72.58,62.17,75,64s4.1,3.8.85,4.28-8.92,3.19-6.62,4,5.35,2.54,2.41,4.34S66,81.9,68.48,81.88s8.12-1.19,5.13,3.42-5,8.85-2.08,7.34,11.4-7,8.93-1.93.56,4.21,3.43,2.71,10.89-4.91,8.78-1.34-7.26,6.72-3.56,7,3.79,1.22,0,5-6.07,7-3.12,6.47,5.67-2.72,4.46,2.32,0,10.35,2,8.63,6.06-.42,5.88,4.24,2.31,10,4.14,7.57,7.29-2.95,8.07,1.63,2.38,9.66,4.21,7.28,3-4.61,4.29.4,3.62,8.4,3.8,3.74-.41-12.64,2.13-10.15,5.44,4.76,4.5-.49-1.49-9.44.81-8.58,4.73-.12.78-3.26-7.94-12.65-2.13-16,6.21.46,6.11,6.08,4.35,23.48,6.75,18.73,3.69-8.83,6.18-3.53,5.92,9.26,7.29,4.88,1.54-9,4.76-5.44,12.39,5.8,11.55,2.78-2.94-6,1.75-3.34,11.39,8.69,11.5,4.33-5.42-10.08,2.68-5.94S208,134.19,202.91,125.14Z"/>
        <path class="cls-1" d="M114.05,75.09c4-2.22,8.1-6.46-2.87-3.21a12.58,12.58,0,0,1-11.55-4.72c-4.55-6-9.06-5.4-12.42-7.22s-5.58-2.15-4.24-.65-.4,3.44-2.44,3.53-5.28-.3-4.32.77,3.47,3.46,1.36,4.76-9.3,2.33-8.15,3.62,4.83,1.08,3.69,3.26-5.73,4.16-4.37,5.25,4.12-.78,5.66.73,1.52,1.92-.54,6.08,2.4.74,4.76-1.36,13.8-6.35,19.54-7.05S110.06,77.31,114.05,75.09Zm1.36,19.22c1.92-12.31,5.29-18,5.29-18-4.69,7.48-16.49,10.88-14.52,12s.31,9-6.78,11.84,3,4.45,6.24,12.16-1.9,12.12-4.11,15.25,5.69.12,7.56-.59,3.87,7.34,4.45,11.45.91,1.88,3.1-.85,5.59,9.28,5.59,9.28-3.33-13.22-4.55-20.42S113.5,106.63,115.41,94.31ZM122,75.74l.3,1.85s3.1,2.82,3.15,9.14,7.05,15.87,10.59,14.44,9.74,4.22,10.76,11.4,7.14,7.13,12.55,5,17.94-.22,22.09,1.85a66.37,66.37,0,0,0,9.37,3.58Z"/>
        <path class="cls-17" d="M86.89,82.35a34.05,34.05,0,0,0-8.15,4.25A74.69,74.69,0,0,1,86.89,82.35ZM132.31,50c0-1-.07-1.56-.07-1.56S132.27,49,132.31,50Zm23.24-4.83a22.21,22.21,0,0,0,.65-2.48S155.94,43.7,155.55,45.16Zm12.13,39.38s-7.1-.21-14.57-.47A96,96,0,0,0,167.68,84.54ZM172,104.88c4.64,1.17,8.14,1.69,8.14,1.69S176.15,105.61,172,104.88Zm19.24,19s-6-4.23-14.23-10.19l5.37,1-8.06-3,0,.11c-3.25-2.37-6.76-4.94-10.34-7.59,1.48-.29,4.76.14,8,.71-.71-.18-1.44-.37-2.19-.58-3.78-1-6.81-1.73-8.42-2.07-3.79-2.78-8.07-5.76-12.36-8.71,1.66-.11,4.12.71,6.54,1.29,4.54,1.1,19-.66,19-.66a102.56,102.56,0,0,1-16.78-.69c-4.79-.74-9.12-1.45-11.52-1.86-4.88-3.35-9.64-6.6-13.54-9.38.51-.26,1.72.85,3.67,1.08,1.71.21,9.38.51,16.7.77-1.21-.14-2.42-.32-3.58-.54-6.94-1.31-16.4-2.64-19.17-3-3.81-2.79-6.43-4.93-6.9-6-.9-1.94,1.79-3.32,6.67-5.74l.13,0c4.05,1.39,14.38,3.67,14.38,3.67s-8.81-4-12-5c2.13-1.07,4.55-2.34,7.19-3.89,3.68.94,8.41,1.76,8.41,1.76a61.34,61.34,0,0,0-6-3.23l.82-.52a48.92,48.92,0,0,1,7.6-3.89c2.3.93,8.14.66,11.33,2.58a13.4,13.4,0,0,0,6.18,2.11s-8.23-4.9-11.2-5.61a12,12,0,0,0-3.43-.19,102.54,102.54,0,0,1,21.19-5s-3.56-.85-15.42,1.53a51.67,51.67,0,0,0-6.47,1.8c.58-1.87,1.91-6.86,2.71-9.9A47.14,47.14,0,0,1,153,51.54a16,16,0,0,1-3.19,4.62c-3,1.18-6,2.55-8.84,3.94.62-2.33,2.49-6.55,3.14-9.86.94-4.79-1.18-15.13-1.18-15.13s.58,14.15-1.49,20.14c-1.43,4.14-4.18,5.86-4.5,6.89-2.28,1.18-4.4,2.32-6.26,3.32.2-.83.73-1.91,1.16-3.32.73-2.37.56-9.08.44-12.15A32.25,32.25,0,0,1,131,59.83c-1.09,3.5-2.58,5.55-2.72,6.93-.68.35-1.32.68-1.89.95-5.94,2.89-7.35-1.21-8.76-7.19.24-.81.52-2.44,1.1-5.31a61.13,61.13,0,0,0,1.21-7.66s-2.26,5.94-2.88,8.51a5,5,0,0,1-.27.87c-.46-2-1-4.35-1.64-6.84.1-1.81,0-4.48.17-6a60.49,60.49,0,0,1,1.22-6.81,10.92,10.92,0,0,0-2.7,6c0,.44,0,.8-.06,1.12-1.31-5.34-2.44-9.87-2.44-9.87s.38,5.11,1.23,11.06l-1-.56c-2.24-1.17-7.1-4.43-7.1-4.43s6.24,5.53,8.79,9.11a69.3,69.3,0,0,0,1.71,7.52,14.12,14.12,0,0,1-1.08-1c-1.69-1.66-6-3.74-6-3.74s5.47,5.15,7.92,7.42c2.19,7.27,1.71,10.79,1.71,10.79-.79,1.71-3.6,3.41-8,4.91C105.74,73.63,96,72.14,96,72.14s6.78,2.25,11.33,4.18a.26.26,0,0,1,.09.05,84.31,84.31,0,0,1-8.3,1.95l-.29.06c-.14-.15-.29-.29-.46-.45-3.08-2.83-17.13-1.81-17.13-1.81s10.48.64,15.2,2.81a60.4,60.4,0,0,0-9.56,3.42,33.86,33.86,0,0,1,8-1.92c.87-.09,1.76-.22,2.67-.37.55,2.77-8.42,7.77-8.42,7.77a79.35,79.35,0,0,0,7.75-3.57c2.45-1.37,3.87-2.73,2.92-4.6,2.93-.56,5.91-1.27,8.64-1.91.27,3.48-7.82,11-7.82,11S111.26,80,110.9,77.18c4.48-1,7.82-1.54,8.24-.33.35,1-.61,3.68-1.87,7.08-3.46.71-10.13,8-10.13,8,4.14-4.11,7.13-5.65,9.28-5.72a64.75,64.75,0,0,0-2.92,10c-2.53,1.53-4.93,6.29-4.93,6.29a9.12,9.12,0,0,1,4.56-3.84c-.07.67-.12,1.32-.14,2a52,52,0,0,0,.62,7.75c-2,2.11-4.08,6.68-4.08,6.68,1.46-2.7,3-4.13,4.38-4.76,1.57,9.83,4.64,21.15,4.64,21.15s-.69-5.77-2.5-21.56a6.39,6.39,0,0,1,3.53,1.5c-1.25-1.34-2.69-2.85-3.66-3.78l-.09-.07a55.79,55.79,0,0,1-.06-9c3.69.74,6.56,5,7.08,5.82-.54-.86-3.79-6-6.69-8.18l-.14-.09a51.93,51.93,0,0,1,2.21-9.54,5.87,5.87,0,0,1,2.82,3.54,15.92,15.92,0,0,0-2.12-5.66c.5-1.49.95-2.88,1.27-4.21.77-3.2,5-1.39,10,1.84,2.11,6.44,5.51,24,5.51,24s-2.09-13-3-19.75c-.17-1.25-.27-2.15-.3-2.8,4.27,3,8.75,6.57,11.84,8.72l.54.37c1.2,4.61,2.34,17.25,2.34,17.25s.91-8.14,0-13.16a3.6,3.6,0,0,1,.18-2.35c3.22,2.18,8,5.38,13.15,8.87l4,14.57s-.91-9.83-1.22-12.72l11.49,7.7,2.07,5.89-1-5.19ZM121.05,90.12a58.81,58.81,0,0,1,1,6A19.88,19.88,0,0,0,121.05,90.12Zm1.8,14.27.09.14Zm-3.27,7c1.38,1.47,2.51,2.72,2.51,2.72A12.76,12.76,0,0,0,119.58,111.44Z"/>
        <path class="cls-15" d="M81.21,146.45c-1-15.45-8.8-26.32-16.89-24.47-7.6,1.75-12.75,14.23-11.89,28s7.52,25,15.29,24.89C76,174.75,82.25,162,81.21,146.45ZM43.46,125.84c-5.22-1.14-10.89,6.91-12.83,17.73-1.91,10.62.38,20.61,5.26,22.58,5.09,2,11.19-5.31,13.45-16.75C51.65,137.71,48.93,127,43.46,125.84Z"/>
        <path class="cls-18" d="M28.37,199.64a6.2,6.2,0,0,0-2.35.64A10.6,10.6,0,0,1,28.37,199.64Zm22.38,1.62c-12.16-2.69-19.11-2.22-22.38-1.62,4.59-.48,16,1.66,34.45,25.9,8.9,11.68,31.54,13.84,34.2-13.21,1.36-13.89,8.32-31.45,8.32-31.45S84.43,208.72,50.75,201.26Z"/>
        <path class="cls-19" d="M45.23,201.14s6.79,15.2,21,12.36S96,191.22,96,191.22,76,211.63,45.23,201.14Z"/>
        <path class="cls-20" d="M88.58,210.3a15.2,15.2,0,0,0-3.85,8.33s-1.86-5.69.78-10c0,0-9.63,2.51-7.4,11.5s13.7,7.16,15.49.17S92.15,206.34,88.58,210.3Z"/>
        <path class="cls-19" d="M79.48,219.56s.51,5.71,5,5.88,5.38-2.37,5.38-2.37S81.75,224.48,79.48,219.56Z"/>
        <path class="cls-21" d="M42.06,125.72c-7.26,1.12-10,12.29-10,12.29,9-14.93,17.35-3.59,17.35-3.59S47.56,124.87,42.06,125.72Zm22.07-3.93c-7,1.61-9.85,11.85-9.85,11.85,10-14.75,23.18-2.27,23.18-2.27S71.52,120.09,64.13,121.79Z"/>
        <path class="cls-22" d="M81.71,147.77s-.1-7.52-1.32-11.43-5.26-16.16-14.25-15.49-11.76,12.63-11.76,12.63a22.14,22.14,0,0,1,6.25-8.5c4.23-3.27,8.51-2,13.44,1.82A13.44,13.44,0,0,1,77.7,132c-1.51-2.16-3.4-3.32-5.26-2.91-3.45.75-5.5,6.57-4.64,13s4.35,11.34,7.84,10.86c3.23-.45,5.34-5.28,5.06-11.16C81.42,145.18,81.71,147.77,81.71,147.77Zm-9.33-9.36a2.48,2.48,0,0,1-2.69-2.4,2.87,2.87,0,0,1,1.92-3.3,2.46,2.46,0,0,1,2.72,2.39A2.86,2.86,0,0,1,72.38,138.41ZM33.88,133a1.47,1.47,0,0,1-.08.17ZM44,124.87c-5.81-.79-9.51,6.84-10.07,8.09a18.47,18.47,0,0,1,3.59-4.56c3.06-3.08,6.67-2.94,9.84,1.19a14,14,0,0,1,2,5.92c-.73-1.79-1.8-2.92-3-2.88-2,.06-3.52,3.61-3.41,7.91s1.83,7.8,3.83,7.86c1.4,0,2.58-1.61,3.15-4.07,0,1.15,0,1.88,0,1.88a45.86,45.86,0,0,0,.87-7.41C50.74,136.17,50.28,125.73,44,124.87Zm2.7,13.87c-.8.16-1.55-.59-1.69-1.67a2,2,0,0,1,1.18-2.27c.8-.17,1.56.58,1.7,1.67A2.4,2.4,0,0,1,46.65,138.74Z"/>
        <path class="cls-22" d="M21.34,108.48c-6.23,3-4.75,14.24-4.75,14.24a13.16,13.16,0,0,1,7.94-12.17c8.36-3.69,14.31-1.88,14.31-1.88A19.61,19.61,0,0,0,21.34,108.48Zm63-10.58s3.49-.37,6.2,5.42C92.4,109.37,93,118.41,93,118.41S99.4,94,84.36,97.9Z"/>
      </g>
    </g>
  </g>
</svg>
