<svg xmlns="http://www.w3.org/2000/svg" xmlns:xlink="http://www.w3.org/1999/xlink" viewBox="0 0 119.38 60.25">
  <defs>
    <style>
      .cls-1, .cls-10, .cls-14, .cls-15, .cls-16, .cls-2, .cls-3, .cls-4, .cls-5, .cls-6, .cls-7, .cls-8, .cls-9 {
        fill-rule: evenodd;
      }

      .cls-1 {
        fill: url(#linear-gradient);
      }

      .cls-2 {
        fill: url(#linear-gradient-2);
      }

      .cls-3 {
        fill: url(#linear-gradient-3);
      }

      .cls-4 {
        fill: url(#linear-gradient-4);
      }

      .cls-5 {
        fill: url(#linear-gradient-5);
      }

      .cls-6 {
        fill: #b9cb33;
      }

      .cls-7 {
        fill: url(#radial-gradient);
      }

      .cls-8 {
        fill: #b14534;
      }

      .cls-9 {
        fill: url(#radial-gradient-2);
      }

      .cls-10 {
        fill: url(#radial-gradient-3);
      }

      .cls-11 {
        fill: #1a171b;
      }

      .cls-12, .cls-15 {
        fill: #fff;
      }

      .cls-13 {
        fill: #a7d5e7;
      }

      .cls-16 {
        fill: #e32528;
      }
    </style>
    <linearGradient id="linear-gradient" x1="59.69" y1="-32.03" x2="59.69" y2="18.25" gradientTransform="translate(0 42)" gradientUnits="userSpaceOnUse">
      <stop offset="0" stop-color="#fff"/>
      <stop offset="1" stop-color="#c8c1c1"/>
    </linearGradient>
    <linearGradient id="linear-gradient-2" x1="0.67" y1="-20.78" x2="74.16" y2="-20.78" gradientTransform="translate(0 42)" gradientUnits="userSpaceOnUse">
      <stop offset="0" stop-color="#b9cb00"/>
      <stop offset="1" stop-color="#789922"/>
    </linearGradient>
    <linearGradient id="linear-gradient-3" x1="0.67" y1="-21.34" x2="74.24" y2="-21.34" gradientTransform="translate(0 42)" gradientUnits="userSpaceOnUse">
      <stop offset="0" stop-color="#b9cb00"/>
      <stop offset="0.3" stop-color="#82a30d"/>
      <stop offset="0.62" stop-color="#4d7d19"/>
      <stop offset="0.87" stop-color="#2c6621"/>
      <stop offset="1" stop-color="#205d24"/>
    </linearGradient>
    <linearGradient id="linear-gradient-4" x1="4.01" y1="-20.54" x2="72.33" y2="-20.54" gradientTransform="translate(0 42)" gradientUnits="userSpaceOnUse">
      <stop offset="0" stop-color="#a4b50e"/>
      <stop offset="1" stop-color="#3c7929"/>
    </linearGradient>
    <linearGradient id="linear-gradient-5" x1="2.53" y1="-19.81" x2="65.31" y2="-19.81" gradientTransform="translate(0 42)" gradientUnits="userSpaceOnUse">
      <stop offset="0" stop-color="#a2bf17"/>
      <stop offset="1" stop-color="#789922"/>
    </linearGradient>
    <radialGradient id="radial-gradient" cx="90.03" cy="-32.27" r="39.26" gradientTransform="translate(0 42)" gradientUnits="userSpaceOnUse">
      <stop offset="0" stop-color="#fff"/>
      <stop offset="0.31" stop-color="#e2001a"/>
      <stop offset="0.4" stop-color="#d2081a"/>
      <stop offset="0.52" stop-color="#c50f1b"/>
      <stop offset="0.62" stop-color="#c0111b"/>
      <stop offset="0.94" stop-color="#6a0d0e"/>
    </radialGradient>
    <radialGradient id="radial-gradient-2" cx="56.11" cy="-13.14" r="38.1" xlink:href="#radial-gradient"/>
    <radialGradient id="radial-gradient-3" cx="66.76" cy="10.27" r="10.28" gradientTransform="translate(0 42)" gradientUnits="userSpaceOnUse">
      <stop offset="0" stop-color="#a21318"/>
      <stop offset="0.16" stop-color="#921115"/>
      <stop offset="0.43" stop-color="#7c0f11"/>
      <stop offset="0.7" stop-color="#6f0d0f"/>
      <stop offset="0.94" stop-color="#6a0d0e"/>
    </radialGradient>
  </defs>
  <g id="Шар_2" data-name="Шар 2">
    <g id="Vrstva_2" data-name="Vrstva 2">
      <g>
        <path class="cls-1" d="M110.88,22.55c-8.45-3.11-17.39-1.38-17.39-1.38s-9.2,1-13,6.66a9.12,9.12,0,0,0-1.07,2.11c-.56-.24-1.13-.46-1.69-.66-.57-5.54-4.48-13.48-24.23-17.66C25.86,5.75,4,17.17,0,20.3,0,20.3,6.52,37.17,32.58,40l14.48,1.56c-2,7.49,2.23,15.11,14.86,18C76.23,62.86,87,53.35,88.8,48.05a13.87,13.87,0,0,0,.51-6.87,38.42,38.42,0,0,0,4.25,1c13.46,2.33,23.53-4,25.17-7.61S119.33,25.67,110.88,22.55Z"/>
        <path class="cls-2" d="M54.72,7.84C29.26-4.47,5.26,1.37.67,3.46c0,0,2.3,18,26.92,26.92S61.52,42.93,66.2,42.07c5.29-1,5.42-2.79,6.46-6.34S80.18,20.16,54.72,7.84Z"/>
        <path class="cls-3" d="M57.85,9.72C31.14-5.3.67,3.46.67,3.46s11.81,2.8,31,12.4S70.58,40.4,70.58,40.4,84.56,24.75,57.85,9.72Z"/>
        <path class="cls-4" d="M72.29,29.34c-.33-5-7-7.18-11.69-6.18s-10.35-9.68-13-14.69-16-2.17-18.86-1S21.37,4.13,17.2,3,4,3.29,4,3.29,22.67,11.49,36.19,18,70.58,40.4,70.58,40.4,72.62,34.34,72.29,29.34Z"/>
        <path class="cls-5" d="M40.07,19.65C25.38,11.31,13.36,6.3,5.18,4.13c0,0-4-1-2.17,1.84s11.85,5.34,10,7.67-.84,7.18,3.34,6.52,14.85.33,13.52,3.5,1.33,7.34,5.84,7.51,12.19,5.34,17.7,6,7.17,4.18,11.18,3S54.76,28,40.07,19.65Z"/>
        <path class="cls-6" d="M58.27,35.68l.22-.09a19.09,19.09,0,0,0-3.06,1.26S56.1,36.51,58.27,35.68Zm10.56,3.41a.72.72,0,0,0,.2.1Zm-1.21-2.58c-.51-2.5,0-10,0-10s-.84,5.67-1,7.68,0,2.84-1,2.17-3.34-2.84-4.67-3.84-2-5-2-7.68-.16-5.68-.16-5.68-.5,6.85-.34,9.52.17,2-2,1.33-5.51-4-7.85-5.67-1.67-.84-2.17-3.84c0-.1-.38-2.13,0-.3s-1.28-7.88-1.28-7.88a78,78,0,0,1,.5,8.35c-.17,2,0,1.16-2,.5s-4.51-3.34-6.35-4-3-5.09-2.51-3.42-.1-.27-.16-.42C33.39,10.31,32.73,8,32.73,8a38,38,0,0,0,.66,5.34c.5,2.17,1.67,2.5,0,2.17S28.22,12.81,27.05,12a4.88,4.88,0,0,1-1-2c.05.32,0,.38-.09-.22s-.09-.37.09.22c-.07-.48-.27-1.58-.34-2a40.35,40.35,0,0,0-1-4s.17,4.51.34,6-.67.17-2.17.17S19,8.64,17.37,7a14.54,14.54,0,0,1-2.51-3.34s.5,2.84,1.34,3.5a3,3,0,0,1,1,1.17s-4-2.5-6-2.84a26.61,26.61,0,0,0-3.84-.33S16.7,9.14,19,9.81a20.24,20.24,0,0,1,3,1s.67.66-1.83,1.67A54.84,54.84,0,0,0,13.7,16s8.17-4.51,10.68-4,6.51,4.18,8.18,4.85,3,1,1.83,1.16-9.34,4.34-9.34,4.34,9-3.67,11.35-3.17,7.68,3.68,10.18,5,5.18,2.67,3.51,3.17-6.51,2.84-6.51,2.84,6.34-2.67,8.34-1.67S59.6,33,60.6,33.68s-.09,1.13-2.11,1.91c1.3-.39,2.72-.6,3.62-.08,1.76,1,5.78,3.1,6.72,3.58C68.53,38.89,68,38.29,67.62,36.51Z"/>
        <g>
          <path class="cls-7" d="M93.45,2.61S82,2.36,77.8,10.57s-1.42,16.05,7.31,24.26,16.69,7.83,22.59,4.75S119,29.18,118.74,23,111.68,3.64,93.45,2.61Z"/>
          <path class="cls-8" d="M117.07,30.7c-.41-.31.16-.58.36-1s-1.39-.25-1.39-.25c0,2.37-2.15,4.62-2.46,5.24s.41-.2.41.51.72,0,1-.92.2-.82.92-.41,0-.82,0-1.54.92-.62,1.54-1S117.48,31,117.07,30.7Z"/>
        </g>
        <g>
          <path class="cls-9" d="M72.1,15.45c-8.81-1.12-12.46.75-13.86,1.78A21.69,21.69,0,0,0,47.56,37.46c.94,14.14,13,22.38,21.26,22s17.88-7.3,18.82-19.85S80.9,16.58,72.1,15.45Z"/>
          <path class="cls-8" d="M68.54,56.09A4.61,4.61,0,0,0,71,53.38c.13-.42-1.54.66-2.41.16-1.09-.64-.07-2-1.52-1.75-2.62.37-3.46.56-3.46.56s2.15,2.9.09,2.06c-1.17-.48.57,2.1.66,2.25.57.74,3.2.67,3.93.84C70.32,58,67.51,56.38,68.54,56.09Z"/>
          <path class="cls-10" d="M68.07,54.78c-.75.28-.37-2.24-.37-2.24-.38.65-.94.84-1.41.28s-.56-.28-1.4.37-.57.94,1,.84-.75,1.22-1.69,2.16.38.47,1.59-.19,1,.19,1.5.94.75-.1.66-.94,1.87-.94,2.34-1.5S68.82,54.5,68.07,54.78Z"/>
        </g>
        <g>
          <path class="cls-11" d="M68,38.3a10.22,10.22,0,0,1,3.73-2.08,11.31,11.31,0,0,1,3.79-.3l-1.2-.45s1.56-6.53-2.75-9.94-6.86,1.33-6.38,5.34A13.88,13.88,0,0,0,68,37.6Z"/>
          <path class="cls-11" d="M56.81,38.81a5.86,5.86,0,0,1,4-.34,5.17,5.17,0,0,1,2.27,1.26l-.27-.94a11,11,0,0,0,1.74-9.6c-1.7-5.33-4.71-5.49-6.88-2.9s-2.18,7.33-1.51,9.41a6,6,0,0,0,1.18,2.5Z"/>
          <g>
            <path class="cls-12" d="M60.69,26c-2.33-.1-4.35,2.86-4.51,6.6a8.47,8.47,0,0,0,1.65,5.71,4.13,4.13,0,0,1,1.67-.59,4.48,4.48,0,0,1,3,.81A8.45,8.45,0,0,0,64.64,33C64.79,29.25,63,26.14,60.69,26Zm13.24,4.68c-1-3.61-3.66-5.91-5.86-5.13S64.94,29.92,66,33.53a8.82,8.82,0,0,0,2.25,4.08,7.81,7.81,0,0,1,4-1.82,7.65,7.65,0,0,1,1.51,0A7.71,7.71,0,0,0,73.93,30.72Z"/>
            <path class="cls-13" d="M60.28,25.86c-2.8.52-3.75,4.17-3.75,4.17A9.16,9.16,0,0,1,60,26.94c2.17-1,4,1.89,4,1.89S62.84,25.37,60.28,25.86Zm8-.4c-2.31.66-2.58,3.67-2.58,3.67a4.08,4.08,0,0,1,2.92-2.58,4.94,4.94,0,0,1,4,1.24S70.58,24.81,68.27,25.46Z"/>
            <path d="M61.76,36.7c0-.14,0-.28,0-.41-.24-1.25-1.07-2.13-1.86-2s-1.25,1.28-1,2.52a3.32,3.32,0,0,0,.36,1l.3-.06a4.34,4.34,0,0,1,2,.29,2.16,2.16,0,0,0,.15-.45c-.45-.19-1.13-.52-1-.86S61.34,36.56,61.76,36.7Zm-1.7-1.34a.41.41,0,0,1-.48-.33.4.4,0,0,1,.32-.48.41.41,0,0,1,.16.81Zm11.15-.28c.09-.22.39-.21.72-.11a1.46,1.46,0,0,0,0-.22c-.22-1.19-1.06-2-1.87-1.88S68.74,34.11,69,35.3a2.75,2.75,0,0,0,.65,1.36,7.48,7.48,0,0,1,2.27-.79l0-.13C71.51,35.6,71.08,35.38,71.21,35.08Zm-.95-1.19a.43.43,0,0,1-.5-.34.44.44,0,0,1,.34-.5.43.43,0,0,1,.16.84Z"/>
            <path class="cls-14" d="M66.28,38.89a1.68,1.68,0,0,0-1.83,1.6,2.92,2.92,0,0,1,3.65-.69S68,39.06,66.28,38.89Z"/>
            <path class="cls-14" d="M56.07,20a5.07,5.07,0,0,0-2.37,4.07,5.52,5.52,0,0,1,2.66-3.55,4.58,4.58,0,0,1,3.9,0A3.61,3.61,0,0,0,56.07,20Z"/>
            <path d="M68.84,17.63a10.64,10.64,0,0,1,3.07,2.18s-2.84-3.95-5.26-2.74A3.25,3.25,0,0,1,68.84,17.63Zm-3,0a2.36,2.36,0,0,1,.76-.55A1,1,0,0,0,65.89,17.62ZM69,46.9c-12,2.54-17.72-4.53-17.72-4.53s5.73,8,18.34,5.27S84.24,35.75,84.24,35.75,81,44.35,69,46.9Zm6.36,1.94c-.78.91-3.09,1.25-3.09,1.25,6-.38,3.88-2.64,3.88-2.64S76.17,47.93,75.39,48.84ZM52.56,39.79a4,4,0,0,0-2.66,1.55c-1.06,1.44-.18,3.56-.18,3.56A5.4,5.4,0,0,1,52.56,39.79Zm32.27-6a2.67,2.67,0,0,0-2.87.93c2-1.23,4.52.28,4.52.28S86.73,34.33,84.83,33.83Z"/>
          </g>
        </g>
        <g>
          <path class="cls-11" d="M100.6,13.78A6.45,6.45,0,0,1,102,8.55a3.25,3.25,0,0,1,5.85,1.62,7.74,7.74,0,0,1-.6,4.86,13.78,13.78,0,0,0-3.32-1.17A11.5,11.5,0,0,0,100.6,13.78Z"/>
          <g>
            <path d="M96.88,22.56C89,19.21,85,11.25,85,11.25c.5,1.59,4.36,7.79,5.36,9.72s1.6,6.29,1.85,10.48S90.26,36,90.26,36a9.63,9.63,0,0,0,3,2.26c1.42.51,4.78,1.26,8.8-1.51s3.94-8.8,5.7-12.24A60.16,60.16,0,0,1,112,17.7s-1.09,1.18-2.35,2.77S104.77,25.92,96.88,22.56ZM92.61,9.72s1.76.88,3.08,1.51.37.37.37.37a3,3,0,0,0-2.45,1,5.72,5.72,0,0,1,2.76-.53l.07,0a2.17,2.17,0,0,1,.61.3,3.7,3.7,0,0,1,1,1.08l.62-1.76-.81.88a4.38,4.38,0,0,0-.9-1,7.58,7.58,0,0,0-1.87-1.18C93,9.46,92.61,9.72,92.61,9.72Zm3.2,5.53a2.8,2.8,0,0,1,2.71-.19,4.7,4.7,0,0,1,1.88,1.26S98.83,12.48,95.81,15.25Zm4.28-1a4.92,4.92,0,0,1,3.39,1.51A17,17,0,0,1,105.24,18s-1.26-2.83-2.45-3.4A5.57,5.57,0,0,0,100.09,14.24Zm5.78.32a7.39,7.39,0,0,1,3,2.5,7.23,7.23,0,0,0-1.72-2.31c-.88-.57-4.4-2.27-7.42-.7A9.3,9.3,0,0,1,105.87,14.56Zm3,2.5.17.33A2.38,2.38,0,0,0,108.91,17.06Zm.73-2.82c1.45.63,1.83.82,1.83.82s-2.2-2.89-5.1-.88A5.48,5.48,0,0,1,109.64,14.24ZM95.79,3.85a4.9,4.9,0,0,0-2.74-2,3.78,3.78,0,0,0-3.21.82S93.51,1.53,95.79,3.85Zm15.68-2.5c-2-2.51-6.17-.75-6.17-.75,7.42-1.51,6.92,6.29,6.92,6.29A5.83,5.83,0,0,0,111.47,1.35Z"/>
            <path class="cls-15" d="M89.86,18s-.52,8.49,1.49,9.83,4.28,3.18,8.47,1.84,5.78-6,5.78-6S98.59,26.67,89.86,18Z"/>
            <path class="cls-12" d="M105,8c-2-.38-3.92,1.25-4.38,3.64a5,5,0,0,0,0,2.15,9.17,9.17,0,0,1,3.75,0,7.65,7.65,0,0,1,2.58,1,5.33,5.33,0,0,0,.7-1.77C108.18,10.59,107,8.35,105,8Z"/>
            <path class="cls-13" d="M105.62,8.11a3.48,3.48,0,0,0-3.71,1c4.13-2,5.9,2.34,5.9,2.34A3.94,3.94,0,0,0,105.62,8.11ZM99.05,23.73a5.16,5.16,0,0,1,2.78,2.13,2.61,2.61,0,0,1,.36,2.56,11.08,11.08,0,0,0,2.45-2.78c1-1.7,1-2,1-2S103.31,24.66,99.05,23.73Z"/>
            <path d="M104.21,12.82c.14-.13.48-.06.81.06a1.52,1.52,0,0,0-1-1.81c-.71-.13-1.42.51-1.59,1.43a2,2,0,0,0,.12,1.15,7.85,7.85,0,0,1,2,.18h0a1.92,1.92,0,0,0,.25-.47C104.47,13.15,104,13.05,104.21,12.82ZM104,12a.42.42,0,0,1,.37-.46A.46.46,0,1,1,104,12Z"/>
            <path class="cls-16" d="M102.73,30.2a11.39,11.39,0,0,0-4.54,3.57,3.91,3.91,0,0,1,.91-1.87,4.19,4.19,0,0,1,1.45-1.33s-2.72.72-3.08.84c0,0-5.51,1.88-4,3.88s5.75,1.87,9-.49S105.64,29,102.73,30.2Z"/>
            <path class="cls-15" d="M93.85,34.58s-.33,1,1.28,1.5a4.56,4.56,0,0,0,2.91,0S94.3,35.89,93.85,34.58Z"/>
          </g>
        </g>
      </g>
    </g>
  </g>
</svg>
